<svg width="388" height="81" viewBox="0 0 388 81" fill="none" xmlns="http://www.w3.org/2000/svg">
<path opacity="0.3" d="M12.242 70.2311L10.0175 15.6527C33.8445 14.6816 45.8657 14.8476 57.7248 15.0203C69.2598 15.2062 80.7949 15.392 103.973 14.4473C127.152 13.5026 139.651 13.4306 151.51 13.6033C163.036 13.5709 174.733 13.7502 197.749 12.8121C220.766 11.874 233.094 11.5904 244.935 11.3264C256.614 11.0691 268.294 10.8115 291.634 9.86019C314.975 8.90889 328.148 9.46549 340.025 10.0748C351.74 10.6907 362.807 11.3332 385.499 10.4083L387.724 64.9867C363.572 65.9711 351.209 65.3814 339.332 64.7721C327.617 64.1562 316.551 63.5137 293.859 64.4386C271.166 65.3635 258.515 65.6607 246.673 65.9247C234.994 66.182 223.315 66.4392 199.974 67.3906C176.633 68.3419 164.297 68.4072 152.438 68.2346C140.912 68.267 129.214 68.0876 106.198 69.0257C83.1814 69.9638 70.3497 69.8308 58.4906 69.6581C46.9556 69.4722 35.4206 69.2864 12.242 70.2311Z" fill="#C7C8FF"/>
<path d="M355.698 44.8984L354.89 8.61719H364.769L363.96 44.8984H355.698ZM359.812 61.5273C358.312 61.5273 357.046 61.0117 356.015 59.9805C354.983 58.9258 354.468 57.6484 354.468 56.1484C354.468 54.6484 354.983 53.3828 356.015 52.3516C357.046 51.2969 358.323 50.7695 359.847 50.7695C361.347 50.7695 362.612 51.2969 363.644 52.3516C364.675 53.3828 365.19 54.6484 365.19 56.1484C365.19 57.6484 364.675 58.9258 363.644 59.9805C362.612 61.0117 361.335 61.5273 359.812 61.5273Z" fill="#5F63FD"/>
<path d="M327.026 61.7734C323.792 61.7734 320.967 60.9648 318.553 59.3477C316.139 57.707 314.264 55.4453 312.928 52.5625C311.616 49.6562 310.959 46.2695 310.959 42.4023C310.959 38.6055 311.627 35.2539 312.963 32.3477C314.299 29.4414 316.174 27.1797 318.588 25.5625C321.002 23.9219 323.792 23.1016 326.956 23.1016C328.573 23.1016 330.073 23.3242 331.456 23.7695C332.838 24.2148 334.081 24.8711 335.182 25.7383C336.307 26.6055 337.256 27.6953 338.03 29.0078H338.135V8.61719H347.346V61H338.276V55.4453H338.17C337.42 56.8281 336.483 57.9883 335.358 58.9258C334.233 59.8633 332.967 60.5664 331.561 61.0352C330.155 61.5273 328.643 61.7734 327.026 61.7734ZM329.241 54.1094C331.139 54.1094 332.792 53.6289 334.198 52.668C335.604 51.707 336.694 50.3477 337.467 48.5898C338.241 46.832 338.627 44.7695 338.627 42.4023C338.627 40.0352 338.241 37.9844 337.467 36.25C336.694 34.4922 335.604 33.1328 334.198 32.1719C332.792 31.1875 331.139 30.6953 329.241 30.6953C327.459 30.6953 325.889 31.1523 324.53 32.0664C323.17 32.9805 322.116 34.3047 321.366 36.0391C320.616 37.7734 320.241 39.8945 320.241 42.4023C320.241 44.9102 320.616 47.043 321.366 48.8008C322.116 50.5352 323.17 51.8594 324.53 52.7734C325.889 53.6641 327.459 54.1094 329.241 54.1094Z" fill="#5F63FD"/>
<path d="M291.393 61.8438C287.667 61.8438 284.432 61.0117 281.69 59.3477C278.971 57.6836 276.874 55.3984 275.397 52.4922C273.92 49.5625 273.182 46.2227 273.182 42.4727C273.182 38.6992 273.944 35.3477 275.467 32.418C276.991 29.4883 279.088 27.1914 281.76 25.5273C284.456 23.8633 287.549 23.0312 291.042 23.0312C293.713 23.0312 296.139 23.5 298.319 24.4375C300.522 25.375 302.409 26.6992 303.979 28.4102C305.573 30.1211 306.792 32.1602 307.635 34.5273C308.502 36.8711 308.936 39.4727 308.936 42.332V44.793H276.733V38.6055H304.366L300.252 40.2227C300.252 38.1836 299.877 36.4258 299.127 34.9492C298.401 33.4492 297.358 32.3008 295.999 31.5039C294.639 30.6836 293.034 30.2734 291.182 30.2734C289.354 30.2734 287.76 30.6836 286.401 31.5039C285.065 32.3008 284.022 33.4492 283.272 34.9492C282.545 36.4258 282.182 38.1836 282.182 40.2227V44.2305C282.182 46.293 282.545 48.1211 283.272 49.7148C284.022 51.2852 285.1 52.5039 286.506 53.3711C287.913 54.2383 289.612 54.6719 291.604 54.6719C293.081 54.6719 294.381 54.4609 295.506 54.0391C296.631 53.5938 297.569 52.9844 298.319 52.2109C299.069 51.4375 299.608 50.5234 299.936 49.4688H308.479C308.034 51.9062 307.002 54.0508 305.385 55.9023C303.792 57.7539 301.788 59.207 299.374 60.2617C296.983 61.3164 294.323 61.8438 291.393 61.8438Z" fill="#5F63FD"/>
<path d="M271.756 23.875V31.2227H249.432V23.875H271.756ZM254.951 13.75H264.162V49.5039C264.162 51.0039 264.479 52.0703 265.111 52.7031C265.744 53.3359 266.811 53.6523 268.311 53.6523C268.873 53.6523 269.471 53.6523 270.104 53.6523C270.736 53.6523 271.287 53.6523 271.756 53.6523V61C271.123 61 270.326 61 269.365 61C268.404 61 267.42 61 266.412 61C262.662 61 259.814 60.1562 257.869 58.4688C255.924 56.7578 254.951 54.2734 254.951 51.0156V13.75Z" fill="#5F63FD"/>
<path d="M226.596 61.5977C224.135 61.5977 221.943 61.1875 220.021 60.3672C218.1 59.5469 216.576 58.3164 215.451 56.6758C214.35 55.0117 213.799 52.9492 213.799 50.4883C213.799 48.3789 214.186 46.6328 214.959 45.25C215.756 43.8672 216.834 42.7656 218.193 41.9453C219.553 41.1016 221.111 40.4688 222.869 40.0469C224.627 39.625 226.455 39.3086 228.354 39.0977C230.65 38.8398 232.467 38.6172 233.803 38.4297C235.162 38.2422 236.123 37.9492 236.686 37.5508C237.271 37.1523 237.564 36.5312 237.564 35.6875V35.4414C237.564 34.4102 237.295 33.5078 236.756 32.7344C236.24 31.9375 235.49 31.3164 234.506 30.8711C233.521 30.4258 232.338 30.2031 230.955 30.2031C229.549 30.2031 228.318 30.4258 227.264 30.8711C226.209 31.3164 225.365 31.9375 224.732 32.7344C224.123 33.5078 223.771 34.4219 223.678 35.4766H214.854C214.994 33.1562 215.721 31.0703 217.033 29.2188C218.346 27.3672 220.186 25.8906 222.553 24.7891C224.92 23.6641 227.756 23.1016 231.061 23.1016C233.475 23.1016 235.643 23.4062 237.564 24.0156C239.486 24.625 241.127 25.4922 242.486 26.6172C243.846 27.7188 244.877 29.0195 245.58 30.5195C246.307 32.0195 246.67 33.6719 246.67 35.4766V61H237.635V55.7617H237.494C236.908 56.8867 236.146 57.8945 235.209 58.7852C234.271 59.6523 233.1 60.3438 231.693 60.8594C230.287 61.3516 228.588 61.5977 226.596 61.5977ZM228.951 54.8828C230.803 54.8828 232.373 54.543 233.662 53.8633C234.975 53.1836 235.959 52.2812 236.615 51.1562C237.295 50.0078 237.635 48.7188 237.635 47.2891V43.3516C237.354 43.5156 236.943 43.6797 236.404 43.8438C235.889 44.0078 235.268 44.1602 234.541 44.3008C233.814 44.4414 233.029 44.582 232.186 44.7227C231.342 44.8633 230.475 45.0039 229.584 45.1445C228.342 45.3086 227.193 45.6016 226.139 46.0234C225.107 46.4219 224.275 46.9727 223.643 47.6758C223.033 48.3555 222.729 49.2461 222.729 50.3477C222.729 51.7773 223.291 52.8906 224.416 53.6875C225.541 54.4844 227.053 54.8828 228.951 54.8828Z" fill="#5F63FD"/>
<path d="M154.857 61V23.875H163.752V30.2734H163.893C164.689 28.1641 166.084 26.4414 168.076 25.1055C170.068 23.7695 172.354 23.1016 174.932 23.1016C177.58 23.1016 179.865 23.7812 181.787 25.1406C183.709 26.5 184.986 28.2344 185.619 30.3438H185.76C186.51 28.2812 187.939 26.5586 190.049 25.1758C192.158 23.793 194.631 23.1016 197.467 23.1016C199.834 23.1016 201.955 23.6172 203.83 24.6484C205.705 25.6797 207.182 27.1914 208.26 29.1836C209.361 31.1523 209.912 33.5781 209.912 36.4609V61H200.701V37.8672C200.701 35.4766 200.045 33.7188 198.732 32.5938C197.42 31.4453 195.826 30.8711 193.951 30.8711C191.771 30.8711 190.037 31.5625 188.748 32.9453C187.482 34.3281 186.85 36.1094 186.85 38.2891V61H177.92V37.5156C177.92 35.5 177.299 33.8945 176.057 32.6992C174.838 31.4805 173.256 30.8711 171.311 30.8711C170.021 30.8711 168.814 31.1875 167.689 31.8203C166.588 32.4297 165.709 33.332 165.053 34.5273C164.396 35.6992 164.068 37.1523 164.068 38.8867V61H154.857Z" fill="#5F63FD"/>
<path d="M132.549 61.8438C128.893 61.8438 125.67 61.0352 122.881 59.418C120.115 57.7773 117.959 55.5039 116.412 52.5977C114.889 49.6914 114.127 46.3164 114.127 42.4727C114.127 38.6055 114.889 35.2188 116.412 32.3125C117.959 29.4062 120.115 27.1328 122.881 25.4922C125.67 23.8516 128.893 23.0312 132.549 23.0312C136.229 23.0312 139.451 23.8516 142.217 25.4922C144.982 27.1328 147.127 29.4062 148.65 32.3125C150.197 35.2188 150.971 38.6055 150.971 42.4727C150.971 46.3164 150.197 49.6914 148.65 52.5977C147.127 55.5039 144.982 57.7773 142.217 59.418C139.451 61.0352 136.229 61.8438 132.549 61.8438ZM132.549 54.2148C134.4 54.2148 136.006 53.7461 137.365 52.8086C138.748 51.8477 139.814 50.4883 140.564 48.7305C141.314 46.9727 141.689 44.8867 141.689 42.4727C141.689 40.0352 141.314 37.9375 140.564 36.1797C139.814 34.4219 138.748 33.0625 137.365 32.1016C136.006 31.1406 134.4 30.6602 132.549 30.6602C130.721 30.6602 129.115 31.1406 127.732 32.1016C126.35 33.0391 125.283 34.3984 124.533 36.1797C123.783 37.9375 123.408 40.0352 123.408 42.4727C123.408 44.9102 123.783 47.0078 124.533 48.7656C125.283 50.5 126.338 51.8477 127.697 52.8086C129.08 53.7461 130.697 54.2148 132.549 54.2148Z" fill="#5F63FD"/>
<path d="M112.701 23.875V31.2227H90.3765V23.875H112.701ZM95.896 13.75H105.107V49.5039C105.107 51.0039 105.423 52.0703 106.056 52.7031C106.689 53.3359 107.755 53.6523 109.255 53.6523C109.818 53.6523 110.416 53.6523 111.048 53.6523C111.681 53.6523 112.232 53.6523 112.701 53.6523V61C112.068 61 111.271 61 110.31 61C109.349 61 108.365 61 107.357 61C103.607 61 100.759 60.1562 98.814 58.4688C96.8687 56.7578 95.896 54.2734 95.896 51.0156V13.75Z" fill="#5F63FD"/>
<path d="M78.3686 45.1094V23.875H87.5796V61H78.4741V54.6016H78.3686C77.5483 56.6641 76.1772 58.375 74.2554 59.7344C72.3569 61.0938 69.9546 61.7734 67.0483 61.7734C64.4702 61.7734 62.1147 61.1992 59.9819 60.0508C57.8726 58.8789 56.1968 57.2031 54.9546 55.0234C53.7124 52.8203 53.0913 50.1719 53.0913 47.0781V23.875H62.3022V45.6719C62.3022 48.3672 63.0054 50.418 64.4116 51.8242C65.8413 53.2305 67.7515 53.9336 70.1421 53.9336C71.6655 53.9336 73.0483 53.6172 74.2905 52.9844C75.5327 52.3516 76.5171 51.3906 77.2436 50.1016C77.9936 48.7891 78.3686 47.125 78.3686 45.1094Z" fill="#5F63FD"/>
<path d="M27.3721 61.5977C24.9111 61.5977 22.7197 61.1875 20.7979 60.3672C18.876 59.5469 17.3525 58.3164 16.2275 56.6758C15.126 55.0117 14.5752 52.9492 14.5752 50.4883C14.5752 48.3789 14.9619 46.6328 15.7354 45.25C16.5322 43.8672 17.6104 42.7656 18.9697 41.9453C20.3291 41.1016 21.8877 40.4688 23.6455 40.0469C25.4033 39.625 27.2314 39.3086 29.1299 39.0977C31.4268 38.8398 33.2432 38.6172 34.5791 38.4297C35.9385 38.2422 36.8994 37.9492 37.4619 37.5508C38.0479 37.1523 38.3408 36.5312 38.3408 35.6875V35.4414C38.3408 34.4102 38.0713 33.5078 37.5322 32.7344C37.0166 31.9375 36.2666 31.3164 35.2822 30.8711C34.2979 30.4258 33.1143 30.2031 31.7314 30.2031C30.3252 30.2031 29.0947 30.4258 28.04 30.8711C26.9854 31.3164 26.1416 31.9375 25.5088 32.7344C24.8994 33.5078 24.5479 34.4219 24.4541 35.4766H15.6299C15.7705 33.1562 16.4971 31.0703 17.8096 29.2188C19.1221 27.3672 20.9619 25.8906 23.3291 24.7891C25.6963 23.6641 28.5322 23.1016 31.8369 23.1016C34.251 23.1016 36.4189 23.4062 38.3408 24.0156C40.2627 24.625 41.9033 25.4922 43.2627 26.6172C44.6221 27.7188 45.6533 29.0195 46.3564 30.5195C47.083 32.0195 47.4463 33.6719 47.4463 35.4766V61H38.4111V55.7617H38.2705C37.6846 56.8867 36.9229 57.8945 35.9854 58.7852C35.0479 59.6523 33.876 60.3438 32.4697 60.8594C31.0635 61.3516 29.3643 61.5977 27.3721 61.5977ZM29.7275 54.8828C31.5791 54.8828 33.1494 54.543 34.4385 53.8633C35.751 53.1836 36.7354 52.2812 37.3916 51.1562C38.0713 50.0078 38.4111 48.7188 38.4111 47.2891V43.3516C38.1299 43.5156 37.7197 43.6797 37.1807 43.8438C36.665 44.0078 36.0439 44.1602 35.3174 44.3008C34.5908 44.4414 33.8057 44.582 32.9619 44.7227C32.1182 44.8633 31.251 45.0039 30.3604 45.1445C29.1182 45.3086 27.9697 45.6016 26.915 46.0234C25.8838 46.4219 25.0518 46.9727 24.4189 47.6758C23.8096 48.3555 23.5049 49.2461 23.5049 50.3477C23.5049 51.7773 24.0674 52.8906 25.1924 53.6875C26.3174 54.4844 27.8291 54.8828 29.7275 54.8828Z" fill="#5F63FD"/>
<path d="M382.618 28.4267C382.415 27.6095 382.401 27.4661 382.13 26.4126C381.859 25.359 381.983 25.1712 381.704 24.4488C381.594 24.1622 381.307 23.9821 381.001 24.0014C380.987 24.0014 380.974 24.0014 380.96 24.0034C380.687 24.0189 380.447 24.1932 380.346 24.4469C380.048 25.1886 380.155 25.3861 379.889 26.4223C379.624 27.4584 379.603 27.6172 379.397 28.4364C379.281 28.9032 378.915 29.2692 378.448 29.3854C377.606 29.5965 377.472 29.6042 376.407 29.8793C375.342 30.1543 375.176 30.0458 374.443 30.3402C374.176 30.4486 374 30.7101 374 30.9987C374 31.0006 374 31.0025 374 31.0045C374 31.2911 374.176 31.5487 374.442 31.6571C375.176 31.9534 375.375 31.8624 376.405 32.1277C377.5 32.4086 377.604 32.4395 378.507 32.6739C378.948 32.7881 379.291 33.1368 379.397 33.5803C379.591 34.3878 379.578 34.5408 379.847 35.5886C380.116 36.6363 380.021 36.8203 380.321 37.5601C380.428 37.8197 380.678 37.994 380.958 37.9998C380.976 37.9998 380.991 37.9998 381.007 37.9998C381.305 38.0075 381.578 37.8274 381.685 37.5485C381.962 36.8223 381.836 36.6034 382.097 35.5789C382.376 34.4905 382.436 34.3878 382.67 33.5008C382.785 33.067 383.125 32.73 383.561 32.6216C384.378 32.4163 384.518 32.3969 385.573 32.1258C386.629 31.8547 386.819 31.9883 387.549 31.7075C387.824 31.601 388.004 31.3337 388 31.0393C388 31.0122 388 30.9851 388 30.958C387.996 30.6694 387.818 30.4118 387.549 30.3073C386.817 30.0264 386.598 30.1581 385.571 29.8928C384.487 29.6139 384.382 29.552 383.501 29.3176C383.067 29.2014 382.779 28.9903 382.67 28.5526L382.618 28.4267Z" fill="#FFB800"/>
<path d="M246.156 13.162C246.01 12.5782 246.001 12.4758 245.807 11.7233C245.613 10.9707 245.702 10.8366 245.503 10.3206C245.424 10.1158 245.219 9.98718 245.001 10.001C244.991 10.001 244.981 10.001 244.972 10.0024C244.777 10.0135 244.605 10.138 244.533 10.3192C244.32 10.849 244.396 10.9901 244.207 11.7302C244.017 12.4703 244.002 12.5837 243.855 13.1689C243.772 13.5023 243.511 13.7637 243.177 13.8467C242.576 13.9975 242.48 14.003 241.719 14.1995C240.959 14.3959 240.84 14.3184 240.317 14.5287C240.126 14.6062 240 14.7929 240 14.999C240 15.0004 240 15.0018 240 15.0032C240 15.2079 240.126 15.3919 240.315 15.4694C240.84 15.681 240.982 15.616 241.718 15.8055C242.5 16.0061 242.574 16.0282 243.219 16.1956C243.534 16.2772 243.779 16.5263 243.855 16.843C243.994 17.4199 243.984 17.5292 244.176 18.2776C244.368 19.026 244.301 19.1574 244.515 19.6858C244.591 19.8712 244.77 19.9957 244.97 19.9998C244.983 19.9998 244.994 19.9998 245.005 19.9998C245.218 20.0054 245.413 19.8767 245.489 19.6775C245.687 19.1588 245.597 19.0024 245.784 18.2706C245.983 17.4932 246.026 17.4199 246.193 16.7863C246.275 16.4765 246.518 16.2357 246.829 16.1583C247.413 16.0116 247.513 15.9978 248.267 15.8041C249.021 15.6105 249.156 15.7059 249.678 15.5053C249.874 15.4293 250.003 15.2384 250 15.0281C250 15.0087 250 14.9894 250 14.97C249.997 14.7639 249.87 14.5799 249.678 14.5052C249.155 14.3046 248.998 14.3987 248.265 14.2091C247.491 14.0099 247.416 13.9657 246.787 13.7983C246.477 13.7153 246.271 13.5645 246.193 13.2519L246.156 13.162Z" fill="#00B4FF"/>
<path d="M8.61803 59.4267C8.41468 58.6095 8.40113 58.4661 8.13 57.4126C7.85887 56.359 7.98281 56.1712 7.70394 55.4488C7.59355 55.1622 7.30693 54.9821 7.00094 55.0014C6.98738 55.0014 6.97382 55.0014 6.96027 55.0034C6.6872 55.0189 6.44706 55.1932 6.34636 55.4469C6.04811 56.1886 6.15463 56.3861 5.88931 57.4223C5.62399 58.4584 5.60269 58.6172 5.3974 59.4364C5.28121 59.9032 4.91518 60.2692 4.44845 60.3854C3.60602 60.5965 3.47239 60.6042 2.40724 60.8793C1.34209 61.1543 1.17554 61.0458 0.44349 61.3402C0.176234 61.4486 0 61.7101 0 61.9987C0 62.0006 0 62.0025 0 62.0045C0 62.2911 0.176234 62.5487 0.441553 62.6571C1.17554 62.9534 1.37501 62.8624 2.4053 63.1277C3.4995 63.4086 3.60408 63.4395 4.50655 63.6739C4.9481 63.7881 5.29089 64.1368 5.3974 64.5803C5.59107 65.3878 5.57751 65.5408 5.8467 66.5886C6.1159 67.6363 6.021 67.8203 6.32118 68.5601C6.42769 68.8197 6.67752 68.994 6.95833 68.9998C6.97576 68.9998 6.99125 68.9998 7.00675 68.9998C7.30499 69.0075 7.57806 68.8274 7.68457 68.5485C7.96151 67.8223 7.83563 67.6034 8.09707 66.5789C8.37595 65.4905 8.43599 65.3878 8.67032 64.5008C8.78458 64.067 9.12543 63.73 9.56117 63.6216C10.3784 63.4163 10.5179 63.3969 11.5733 63.1258C12.6288 62.8547 12.8186 62.9883 13.5487 62.7075C13.8237 62.601 14.0038 62.3337 13.9999 62.0393C13.9999 62.0122 13.9999 61.9851 13.9999 61.958C13.9961 61.6694 13.8179 61.4118 13.5487 61.3073C12.8167 61.0264 12.5978 61.1581 11.5714 60.8928C10.4869 60.6139 10.3823 60.552 9.50113 60.3176C9.06733 60.2014 8.77877 59.9903 8.67032 59.5526L8.61803 59.4267Z" fill="#FF6737"/>
</svg>
