<svg width="16" height="16" viewBox="0 0 16 16" fill="none" xmlns="http://www.w3.org/2000/svg">
<path d="M10.7277 1.76035C8.30199 0.754638 7.88434 0.744614 5.4586 1.74698C3.03287 2.74935 2.74553 3.06009 1.73982 5.48248C0.734105 7.90487 0.764176 8.3125 1.76655 10.7349C2.76891 13.1573 3.0596 13.4079 5.48533 14.4136C7.91106 15.4193 8.27526 15.4059 10.701 14.4036C13.1267 13.3978 13.394 13.1473 14.3964 10.7249C15.3988 8.30247 14.8174 8.08529 14.3997 5.49584C13.9821 2.90639 13.1501 2.76606 10.7277 1.76035Z" stroke="#5F63FF" stroke-width="1.3" stroke-miterlimit="10"/>
<path d="M4.80859 7.98449C5.81764 9.05368 6.81333 10.1396 6.89686 10.1062C7.42478 9.9057 9.3393 7.84082 11.5913 5.41174" stroke="#5F63FF" stroke-width="1.3" stroke-miterlimit="10"/>
</svg>
