<svg width="16" height="17" viewBox="0 0 16 17" fill="none" xmlns="http://www.w3.org/2000/svg">
<g clip-path="url(#clip0_340_2136)">
<path fill-rule="evenodd" clip-rule="evenodd" d="M14.7481 7.70005C15.19 7.70005 15.5481 8.05822 15.5481 8.50005C15.5481 8.94188 15.19 9.30005 14.7481 9.30005L8.80205 9.30005L8.80205 15.25C8.80205 15.6919 8.44388 16.05 8.00205 16.05C7.56023 16.05 7.20205 15.6919 7.20205 15.25L7.20205 9.30005L1.24922 9.30005C0.80739 9.30005 0.449218 8.94188 0.449218 8.50005C0.449218 8.05822 0.80739 7.70005 1.24922 7.70005L7.20205 7.70005L7.20205 1.75112C7.20205 1.30929 7.56023 0.951119 8.00205 0.951119C8.44388 0.951119 8.80205 1.30929 8.80205 1.75112L8.80205 7.70005L14.7481 7.70005Z" fill="#868692"/>
</g>
<defs>
<clipPath id="clip0_340_2136">
<rect width="16" height="16" fill="white" transform="translate(0 0.5)"/>
</clipPath>
</defs>
</svg>
