<svg width="132" height="20" viewBox="0 0 132 20" fill="none" xmlns="http://www.w3.org/2000/svg">
<g clip-path="url(#clip0_50_1137)">
<path d="M17.1226 0L18.5686 5.62571L24.1943 7.07162V8.13631L18.5686 9.58222L17.1226 15.2079H16.058L14.612 9.58222L8.98633 8.13631V7.07162L14.612 5.62571L16.0552 0H17.1199H17.1226Z" fill="#7B7FFF"/>
<path d="M7.6242 0H4.62891V15.2488H7.6242V0Z" fill="#7B7FFF"/>
<path d="M42.5292 6.21388H35.4875V0H32.8652V15.2079H35.4875V8.49575H42.5292V15.2079H45.1378V0H42.5292V6.21388Z" fill="white"/>
<path d="M51.7285 11.4532L48.7795 3.99763H45.9258L50.4759 14.8569L50.2962 15.3335C50.043 15.9407 49.7598 16.3764 49.4521 16.6378C49.1444 16.8992 48.7468 17.0299 48.2594 17.0299C47.6712 17.0299 47.0994 16.9346 46.5412 16.744V19.1184C47.1348 19.2873 47.772 19.3717 48.45 19.3717C49.403 19.3717 50.2036 19.1293 50.8462 18.6446C51.4889 18.1599 52.0171 17.3812 52.4256 16.3056L57.2943 3.99219H54.6012L51.7285 11.4478V11.4532Z" fill="white"/>
<path d="M67.2761 5.29037C66.8296 4.81657 66.3176 4.45441 65.7376 4.2039C65.1576 3.95338 64.5368 3.82812 63.8724 3.82812C63.1018 3.82812 62.4101 3.98606 61.8002 4.30465C61.1902 4.62324 60.7164 5.07798 60.3842 5.67159V3.99695H58.0098V19.2049H60.4904V13.7752C60.7736 14.2626 61.2038 14.652 61.7784 14.9407C62.3529 15.2293 62.9956 15.3764 63.7036 15.3764C64.4115 15.3764 65.0215 15.2511 65.6178 15.0006C66.2142 14.7501 66.7451 14.3879 67.2081 13.9141C67.671 13.4403 68.0386 12.8331 68.3109 12.0951C68.5832 11.3572 68.7193 10.5267 68.7193 9.60905C68.7193 8.6914 68.5913 7.85816 68.3326 7.11751C68.074 6.37413 67.7227 5.7669 67.2761 5.2931V5.29037ZM65.4299 12.3048C64.8853 12.9365 64.1855 13.2551 63.3305 13.2551C62.4755 13.2551 61.743 12.942 61.1984 12.3103C60.6538 11.6812 60.3815 10.7799 60.3815 9.60632C60.3815 8.43271 60.6538 7.5314 61.1984 6.90239C61.743 6.27338 62.4537 5.95751 63.3305 5.95751C64.2073 5.95751 64.8853 6.27338 65.4299 6.90783C65.9745 7.53957 66.2468 8.44088 66.2468 9.60632C66.2468 10.7718 65.9745 11.6731 65.4299 12.3048Z" fill="white"/>
<path d="M74.9925 3.82812C74.2355 3.82812 73.5275 3.96155 72.8658 4.22568C72.2041 4.48981 71.6268 4.86559 71.1312 5.35028C70.6357 5.83497 70.2463 6.44493 69.9658 7.18013C69.6826 7.91534 69.541 8.72407 69.541 9.60905C69.541 11.3899 70.0502 12.7977 71.0686 13.8297C72.087 14.8617 73.3886 15.3791 74.9707 15.3791C76.2015 15.3791 77.2444 15.0959 78.0994 14.5241C78.9544 13.9549 79.5262 13.1544 79.8176 12.1224L77.4731 11.6867C77.2825 12.1823 76.9721 12.5662 76.5391 12.844C76.1089 13.119 75.5833 13.2579 74.9707 13.2579C74.151 13.2579 73.4758 12.9856 72.9448 12.441C72.4138 11.8964 72.1142 11.1121 72.0434 10.0856H80.0518V9.05628C80.0518 7.43065 79.597 6.15084 78.6903 5.2223C77.7808 4.29376 76.55 3.82812 74.9952 3.82812H74.9925ZM72.1496 8.28295C72.3321 7.48511 72.6725 6.8806 73.168 6.47488C73.6636 6.06915 74.2627 5.86493 74.9707 5.86493C75.6786 5.86493 76.2777 6.06915 76.7515 6.48032C77.2253 6.8915 77.5085 7.49056 77.6011 8.28295H72.1496Z" fill="white"/>
<path d="M85.0889 4.32099C84.5334 4.65047 84.1304 5.09432 83.8745 5.65253V3.99695H81.5V15.2075H83.9807V8.80304C83.9807 7.93985 84.2339 7.24276 84.7431 6.70906C85.2523 6.17535 85.8731 5.90849 86.6111 5.90849C87.1557 5.90849 87.654 6.0038 88.106 6.19441V3.97789C87.7248 3.87986 87.3626 3.82812 87.025 3.82812C86.2898 3.82812 85.6444 3.9915 85.0889 4.32099Z" fill="white"/>
<path d="M96.8131 9.51939C96.2331 9.01292 95.3889 8.67254 94.278 8.49555L92.7939 8.28315C91.7129 8.13339 91.171 7.70588 91.171 7.00062C91.171 6.62485 91.3426 6.32804 91.6857 6.1102C92.0288 5.89236 92.4944 5.78072 93.0798 5.78072C93.6653 5.78072 94.1364 5.89509 94.4631 6.12654C94.7926 6.35527 95.0186 6.70382 95.1466 7.17217L97.4257 6.95978C97.3631 5.92776 96.9601 5.14899 96.2167 4.62072C95.4733 4.09519 94.4277 3.83105 93.0771 3.83105C91.7265 3.83105 90.7626 4.13058 89.9974 4.73237C89.2295 5.33415 88.8456 6.12654 88.8456 7.10682C88.8456 7.99179 89.1097 8.69705 89.6407 9.22259C90.1717 9.74813 90.9178 10.0858 91.879 10.2355L93.363 10.4479C94.0002 10.546 94.4686 10.7121 94.7735 10.9408C95.0785 11.1695 95.2283 11.48 95.2283 11.8693C95.2283 12.3513 95.054 12.7135 94.7027 12.9558C94.3515 13.2009 93.8586 13.3207 93.2241 13.3207C92.5897 13.3207 92.0642 13.1682 91.6966 12.866C91.3289 12.561 91.1166 12.1498 91.0594 11.6243L88.5352 11.7931C88.5923 12.8687 89.0171 13.7346 89.8068 14.3908C90.5992 15.0498 91.7374 15.3766 93.2214 15.3766C94.5938 15.3766 95.6776 15.0552 96.4781 14.4126C97.276 13.77 97.6763 12.8877 97.6763 11.7713C97.6763 10.7747 97.3849 10.0231 96.8076 9.51667L96.8131 9.51939Z" fill="white"/>
<path d="M102.345 11.2327V6.00182H105.229V3.99769H101.517C102.07 3.6791 102.345 3.17535 102.345 2.48098V0.828125H99.8754V2.65253C99.8754 3.55112 99.4261 4.00042 98.5275 4.00042H97.9121V6.00454H99.8754V11.4124C99.8754 12.714 100.169 13.6997 100.76 14.3723C101.351 15.0449 102.19 15.3798 103.279 15.3798C104.148 15.3798 104.831 15.2954 105.327 15.1266V12.8665C104.981 12.9945 104.518 13.0571 103.938 13.0571C102.879 13.0571 102.348 12.4499 102.348 11.2327H102.345Z" fill="white"/>
<path d="M114.256 4.88465C113.447 4.18211 112.29 3.82812 110.781 3.82812C109.501 3.82812 108.477 4.13038 107.709 4.73488C106.942 5.33939 106.495 6.12906 106.367 7.10389L108.562 7.32718C108.731 6.30878 109.471 5.79957 110.778 5.79957C111.492 5.79957 112.039 5.99018 112.423 6.3714C112.804 6.75262 112.995 7.27272 112.995 7.93168V8.47356L109.844 8.65328C108.6 8.71591 107.639 9.04539 106.966 9.639C106.291 10.2326 105.953 11.025 105.953 12.0135C105.953 13.0019 106.296 13.8379 106.982 14.4533C107.669 15.0687 108.54 15.3764 109.602 15.3764C111.277 15.3764 112.437 14.7473 113.082 13.4893V15.2075H115.467V7.93168C115.467 6.60286 115.062 5.58718 114.253 4.88192L114.256 4.88465ZM112.998 10.9787C112.998 11.3681 112.913 11.7166 112.747 12.0243C112.581 12.332 112.363 12.5771 112.096 12.7568C111.827 12.9365 111.538 13.0727 111.228 13.1653C110.917 13.2579 110.596 13.3042 110.264 13.3042C109.719 13.3042 109.278 13.1843 108.943 12.9447C108.608 12.7051 108.439 12.3674 108.439 11.9372C108.439 10.9978 109.041 10.494 110.242 10.4314L113 10.2626V10.9842L112.998 10.9787Z" fill="white"/>
<path d="M130.609 13.0544C129.55 13.0544 129.019 12.4472 129.019 11.23V6.00182H131.903V3.99769H128.191C128.744 3.6791 129.019 3.17535 129.019 2.48098V0.828125H126.549V2.65253C126.549 3.55112 126.1 4.00042 125.201 4.00042H124.586V6.00454H126.549V11.4124C126.549 12.714 126.843 13.6997 127.434 14.3723C128.025 15.0449 128.864 15.3798 129.953 15.3798C130.822 15.3798 131.505 15.2954 132.001 15.1266V12.8665C131.655 12.9945 131.192 13.0571 130.612 13.0571L130.609 13.0544Z" fill="white"/>
<path d="M122.902 3.98633C122.167 3.98633 121.521 4.14971 120.966 4.47919C120.41 4.80867 120.007 5.25252 119.751 5.81074V3.99722H117.377V15.2078H119.858V8.96124C119.858 8.93674 119.858 8.91223 119.86 8.88772V8.81148C119.86 6.85092 121.464 6.00407 122.308 6.00407H123.702V3.98905H122.905C122.905 3.98905 122.905 3.98905 122.902 3.98905V3.98633Z" fill="white"/>
</g>
<defs>
<clipPath id="clip0_50_1137">
<rect width="132" height="19.3768" fill="white"/>
</clipPath>
</defs>
</svg>
