<svg width="131" height="24" viewBox="0 0 131 24" fill="none" xmlns="http://www.w3.org/2000/svg">
<path d="M12.4957 2L13.9416 7.62571L19.5673 9.07162V10.1363L13.9416 11.5822L12.4957 17.2079H11.431L9.98509 11.5822L4.35938 10.1363V9.07162L9.98509 7.62571L11.4283 2H12.493H12.4957Z" fill="white"/>
<path d="M2.9953 2H0V17.2488H2.9953V2Z" fill="white"/>
<path d="M37.6639 8.21388H30.6222V2H28V17.2079H30.6222V10.4958H37.6639V17.2079H40.2725V2H37.6639V8.21388Z" fill="white"/>
<path d="M46.8652 13.4532L43.9162 5.99763H41.0625L45.6126 16.8569L45.4329 17.3335C45.1797 17.9407 44.8965 18.3764 44.5888 18.6378C44.2811 18.8992 43.8835 19.0299 43.3961 19.0299C42.8079 19.0299 42.2361 18.9346 41.6779 18.744V21.1184C42.2715 21.2873 42.9087 21.3717 43.5867 21.3717C44.5398 21.3717 45.3403 21.1293 45.983 20.6446C46.6256 20.1599 47.1538 19.3812 47.5623 18.3056L52.431 5.99219H49.738L46.8652 13.4478V13.4532Z" fill="white"/>
<path d="M62.4148 7.29037C61.9682 6.81657 61.4563 6.45441 60.8763 6.2039C60.2963 5.95338 59.6755 5.82812 59.0111 5.82812C58.2404 5.82812 57.5488 5.98606 56.9389 6.30465C56.3289 6.62324 55.8551 7.07798 55.5229 7.67159V5.99695H53.1484V21.2049H55.6291V15.7752C55.9123 16.2626 56.3425 16.652 56.9171 16.9407C57.4916 17.2293 58.1342 17.3764 58.8422 17.3764C59.5502 17.3764 60.1602 17.2511 60.7565 17.0006C61.3528 16.7501 61.8838 16.3879 62.3467 15.9141C62.8096 15.4403 63.1772 14.8331 63.4495 14.0951C63.7218 13.3572 63.858 12.5267 63.858 11.609C63.858 10.6914 63.73 9.85816 63.4713 9.11751C63.2126 8.37413 62.8614 7.7669 62.4148 7.2931V7.29037ZM60.5686 14.3048C60.024 14.9365 59.3242 15.2551 58.4692 15.2551C57.6142 15.2551 56.8817 14.942 56.3371 14.3103C55.7925 13.6812 55.5202 12.7799 55.5202 11.6063C55.5202 10.4327 55.7925 9.5314 56.3371 8.90239C56.8817 8.27338 57.5924 7.95751 58.4692 7.95751C59.346 7.95751 60.024 8.27338 60.5686 8.90783C61.1132 9.53957 61.3855 10.4409 61.3855 11.6063C61.3855 12.7718 61.1132 13.6731 60.5686 14.3048Z" fill="white"/>
<path d="M70.1311 5.82812C69.3741 5.82812 68.6662 5.96155 68.0045 6.22568C67.3428 6.48981 66.7655 6.86559 66.2699 7.35028C65.7743 7.83497 65.3849 8.44493 65.1045 9.18013C64.8213 9.91534 64.6797 10.7241 64.6797 11.609C64.6797 13.3899 65.1889 14.7977 66.2073 15.8297C67.2257 16.8617 68.5273 17.3791 70.1093 17.3791C71.3401 17.3791 72.383 17.0959 73.2381 16.5241C74.0931 15.9549 74.6649 15.1544 74.9563 14.1224L72.6118 13.6867C72.4212 14.1823 72.1107 14.5662 71.6778 14.844C71.2476 15.119 70.722 15.2579 70.1093 15.2579C69.2897 15.2579 68.6144 14.9856 68.0834 14.441C67.5525 13.8964 67.2529 13.1121 67.1821 12.0856H75.1905V11.0563C75.1905 9.43065 74.7357 8.15084 73.829 7.2223C72.9195 6.29376 71.6887 5.82812 70.1339 5.82812H70.1311ZM67.2883 10.2829C67.4708 9.48511 67.8111 8.8806 68.3067 8.47488C68.8023 8.06915 69.4014 7.86493 70.1093 7.86493C70.8173 7.86493 71.4164 8.06915 71.8902 8.48032C72.364 8.8915 72.6472 9.49056 72.7398 10.2829H67.2883Z" fill="white"/>
<path d="M80.2217 6.32099C79.6662 6.65047 79.2632 7.09432 79.0073 7.65253V5.99695H76.6328V17.2075H79.1135V10.803C79.1135 9.93985 79.3667 9.24276 79.8759 8.70906C80.3851 8.17535 81.0059 7.90849 81.7439 7.90849C82.2885 7.90849 82.7868 8.0038 83.2388 8.19441V5.97789C82.8576 5.87986 82.4954 5.82812 82.1578 5.82812C81.4226 5.82812 80.7772 5.9915 80.2217 6.32099Z" fill="white"/>
<path d="M90.0038 17.6453C88.7505 17.6453 87.6757 17.4398 86.7795 17.0288C85.8833 16.6177 85.196 16.0281 84.7176 15.26C84.2392 14.4851 84 13.5619 84 12.4905H86.7088C86.7155 13.0768 86.8503 13.5821 87.1131 14.0066C87.3826 14.4312 87.7633 14.758 88.2552 14.9871C88.7471 15.2094 89.3367 15.3206 90.024 15.3206C90.6372 15.3206 91.1729 15.2364 91.6311 15.0679C92.0893 14.8927 92.4464 14.6468 92.7025 14.3301C92.9585 14.0066 93.0866 13.6327 93.0866 13.2082C93.0866 12.8578 92.9922 12.5545 92.8036 12.2985C92.6216 12.0357 92.3251 11.81 91.9141 11.6213C91.5098 11.4259 90.9775 11.2541 90.3171 11.1058L88.7 10.7419C87.1973 10.405 86.0889 9.89966 85.3746 9.22583C84.6604 8.54526 84.3032 7.67266 84.3032 6.60801C84.3032 5.70508 84.5323 4.9167 84.9905 4.24287C85.4555 3.56904 86.1057 3.04346 86.9413 2.66611C87.7835 2.28877 88.764 2.1001 89.8825 2.1001C91.0078 2.1001 91.9815 2.29551 92.8036 2.68633C93.6324 3.07041 94.2759 3.62295 94.7341 4.34395C95.1923 5.06494 95.4349 5.92407 95.4618 6.92134H92.8339C92.7867 6.14644 92.497 5.53662 91.9646 5.09189C91.4391 4.64717 90.7417 4.4248 89.8724 4.4248C89.3266 4.4248 88.8415 4.5124 88.4169 4.6876C87.9992 4.86279 87.669 5.10537 87.4264 5.41533C87.1906 5.71855 87.0727 6.07231 87.0727 6.47661C87.0727 6.80679 87.1636 7.09316 87.3456 7.33574C87.5275 7.57158 87.8172 7.78384 88.2148 7.97251C88.6124 8.15444 89.1346 8.31953 89.7814 8.46777L91.2875 8.81143C92.0758 8.97988 92.7564 9.19214 93.3292 9.44819C93.9019 9.70425 94.3736 10.0041 94.7442 10.3478C95.1148 10.6914 95.3911 11.0856 95.573 11.5303C95.7549 11.975 95.8459 12.4771 95.8459 13.0363C95.8459 13.9729 95.6067 14.7883 95.1283 15.4823C94.6566 16.1764 93.9828 16.7121 93.1068 17.0894C92.2376 17.46 91.2032 17.6453 90.0038 17.6453Z" fill="white"/>
<path d="M100.883 13.2547V8.02379H103.767V6.01967H100.055C100.608 5.70108 100.883 5.19732 100.883 4.50296V2.8501H98.4133V4.67451C98.4133 5.57309 97.964 6.02239 97.0654 6.02239H96.45V8.02651H98.4133V13.4344C98.4133 14.736 98.7074 15.7217 99.2983 16.3943C99.8892 17.0669 100.728 17.4018 101.817 17.4018C102.686 17.4018 103.369 17.3174 103.865 17.1486V14.8885C103.519 15.0164 103.056 15.0791 102.476 15.0791C101.417 15.0791 100.886 14.4718 100.886 13.2547H100.883Z" fill="white"/>
<path d="M112.791 6.90662C111.983 6.20409 110.825 5.8501 109.317 5.8501C108.037 5.8501 107.013 6.15235 106.245 6.75686C105.478 7.36136 105.031 8.15103 104.903 9.12586L107.098 9.34915C107.267 8.33075 108.007 7.82155 109.314 7.82155C110.028 7.82155 110.575 8.01216 110.959 8.39338C111.34 8.7746 111.531 9.29469 111.531 9.95365V10.4955L108.38 10.6752C107.136 10.7379 106.175 11.0674 105.502 11.661C104.827 12.2546 104.489 13.047 104.489 14.0354C104.489 15.0239 104.832 15.8598 105.518 16.4752C106.205 17.0906 107.076 17.3983 108.138 17.3983C109.813 17.3983 110.973 16.7693 111.618 15.5113V17.2295H114.003V9.95365C114.003 8.62483 113.598 7.60915 112.789 6.9039L112.791 6.90662ZM111.533 13.0007C111.533 13.3901 111.449 13.7386 111.283 14.0463C111.117 14.354 110.899 14.5991 110.632 14.7788C110.363 14.9585 110.074 15.0947 109.764 15.1873C109.453 15.2798 109.132 15.3261 108.8 15.3261C108.255 15.3261 107.814 15.2063 107.479 14.9667C107.144 14.7271 106.975 14.3894 106.975 13.9592C106.975 13.0197 107.577 12.516 108.778 12.4534L111.536 12.2845V13.0061L111.533 13.0007Z" fill="white"/>
<path d="M129.145 15.0764C128.086 15.0764 127.555 14.4691 127.555 13.2519V8.02379H130.439V6.01967H126.727C127.28 5.70108 127.555 5.19732 127.555 4.50296V2.8501H125.085V4.67451C125.085 5.57309 124.636 6.02239 123.737 6.02239H123.122V8.02651H125.085V13.4344C125.085 14.736 125.379 15.7217 125.97 16.3943C126.561 17.0669 127.4 17.4018 128.489 17.4018C129.358 17.4018 130.041 17.3174 130.537 17.1486V14.8885C130.191 15.0164 129.728 15.0791 129.148 15.0791L129.145 15.0764Z" fill="white"/>
<path d="M121.436 6.00635C120.701 6.00635 120.055 6.16973 119.5 6.49921C118.944 6.82869 118.541 7.27254 118.285 7.83076V6.01724H115.911V17.2278H118.392V10.9813C118.392 10.9568 118.392 10.9322 118.394 10.9077V10.8315C118.394 8.87094 119.998 8.02409 120.842 8.02409H122.236V6.00907H121.439C121.439 6.00907 121.439 6.00907 121.436 6.00907V6.00635Z" fill="white"/>
</svg>
