<svg width="20" height="20" viewBox="0 0 20 20" fill="none" xmlns="http://www.w3.org/2000/svg">
<path d="M17.8804 1.25H2.01087C1.57609 1.25 1.25 1.57812 1.25 2.01562V18.0938C1.25 18.4219 1.57609 18.75 2.01087 18.75H17.9891C18.4239 18.75 18.75 18.4219 18.75 17.9844V2.01562C18.6413 1.57812 18.3152 1.25 17.8804 1.25ZM6.3587 16.125H3.8587V7.8125H6.46739V16.125H6.3587ZM5.16304 6.71875C4.29348 6.71875 3.6413 5.95312 3.6413 5.1875C3.6413 4.3125 4.29348 3.65625 5.16304 3.65625C6.03261 3.65625 6.68478 4.3125 6.68478 5.1875C6.57609 5.95312 5.92391 6.71875 5.16304 6.71875ZM16.0326 16.125H13.4239V12.0781C13.4239 11.0938 13.4239 9.89062 12.1196 9.89062C10.8152 9.89062 10.5978 10.9844 10.5978 12.0781V16.2344H7.98913V7.8125H10.4891V8.90625C10.8152 8.25 11.6848 7.59375 12.8804 7.59375C15.4891 7.59375 15.9239 9.34375 15.9239 11.5312V16.125H16.0326Z" fill="white" fill-opacity="0.8"/>
</svg>
