<svg width="20" height="20" viewBox="0 0 20 20" fill="none" xmlns="http://www.w3.org/2000/svg">
<g clip-path="url(#clip0_287_4345)">
<path fill-rule="evenodd" clip-rule="evenodd" d="M10 0.333257C7.70329 0.331514 5.48097 1.14758 3.73118 2.63526C1.9814 4.12295 0.818468 6.18504 0.450726 8.45214C0.0829851 10.7192 0.534461 13.0432 1.72427 15.0077C2.91409 16.9722 4.7645 18.4489 6.94401 19.1733C7.42801 19.2613 7.60401 18.9626 7.60401 18.7066C7.60401 18.4773 7.59601 17.8693 7.59068 17.0626C4.90268 17.6466 4.33468 15.7666 4.33468 15.7666C3.89468 14.6493 3.26135 14.3533 3.26135 14.3533C2.38401 13.7533 3.32801 13.7653 3.32801 13.7653C4.29868 13.8333 4.80801 14.7613 4.80801 14.7613C5.67068 16.2386 7.07068 15.8119 7.62135 15.5639C7.70935 14.9399 7.96001 14.5133 8.23468 14.2719C6.08801 14.0279 3.83201 13.1986 3.83201 9.49459C3.83201 8.43859 4.20935 7.57726 4.82801 6.90126C4.72801 6.65592 4.39601 5.67459 4.92135 4.34126C4.92135 4.34126 5.73468 4.08259 7.58001 5.33326C8.36884 5.11874 9.18254 5.00935 10 5.00792C10.8175 5.00946 11.6312 5.11885 12.42 5.33326C14.2653 4.08259 15.076 4.34259 15.076 4.34259C15.604 5.67326 15.272 6.65592 15.172 6.90126C15.792 7.57726 16.1653 8.43859 16.1653 9.49459C16.1653 13.2079 13.9053 14.0253 11.752 14.2639C12.0987 14.5626 12.408 15.1533 12.408 16.0546C12.408 17.3479 12.396 18.3893 12.396 18.7066C12.396 18.9653 12.5707 19.2666 13.0613 19.1719C15.2404 18.4467 17.0901 16.9693 18.2791 15.0044C19.468 13.0396 19.9186 10.7156 19.5501 8.44874C19.1816 6.18191 18.018 4.12033 16.2678 2.63328C14.5177 1.14624 12.2966 0.330881 10 0.333257Z" fill="white" fill-opacity="0.8"/>
</g>
<defs>
<clipPath id="clip0_287_4345">
<rect width="20" height="20" fill="white"/>
</clipPath>
</defs>
</svg>
