<svg width="21" height="23" viewBox="0 0 21 23" fill="none" xmlns="http://www.w3.org/2000/svg">
<path d="M19.2301 1.67102L20.3738 2.82666V20.1873L19.2301 21.2883V1.67102Z" fill="#151A1F"/>
<path d="M1.14355 1.67102L-0.000141363 2.82666V20.1873L1.14355 21.2883V1.67102Z" fill="#151A1F"/>
<path d="M17.5577 -0.000488281L18.121 0.563799V22.3936L17.53 22.985L16.9773 22.4337V12.467H3.3985V22.4337L2.83067 23L2.2553 22.4247V0.896559L2.82966 0.322248L3.3985 0.889042V11.3264H16.9783V0.57733L17.5577 -0.000488281Z" fill="#151A1F"/>
<path d="M15.869 1.68274V10.3315H4.50785L4.50484 1.68274L5.64854 2.82434V9.18987H14.7253V2.82434L15.869 1.68274Z" fill="#151A1F"/>
<path d="M4.50484 21.2878V13.4604L15.869 13.4564V21.2878L14.7248 20.1868V14.6015H5.64854V20.1868L4.50484 21.2878Z" fill="#151A1F"/>
</svg>
