<svg width="49" height="49" viewBox="0 0 49 49" fill="none" xmlns="http://www.w3.org/2000/svg">
<path d="M29.7008 16.2288C29.0472 13.6018 29.0036 13.1412 28.1321 9.75475C27.2606 6.36833 27.659 5.7645 26.7627 3.44255C26.4078 2.52125 25.4866 1.94232 24.503 2.00457C24.4594 2.00457 24.4159 2.00457 24.3723 2.01079C23.4946 2.06059 22.7227 2.62085 22.399 3.43633C21.4404 5.82052 21.7827 6.45548 20.9299 9.78588C20.0771 13.1163 20.0086 13.6267 19.3488 16.2599C18.9753 17.7602 17.7988 18.9367 16.2986 19.3102C13.5908 19.9887 13.1612 20.0136 9.73755 20.8976C6.31386 21.7816 5.77851 21.4329 3.4255 22.3792C2.56647 22.7278 2 23.5681 2 24.4957C2 24.5019 2 24.5081 2 24.5143C2 25.4357 2.56647 26.2636 3.41928 26.6122C5.77851 27.5646 6.41968 27.272 9.73133 28.1249C13.2484 29.0275 13.5845 29.1271 16.4853 29.8803C17.9046 30.2476 19.0064 31.3681 19.3488 32.7937C19.9713 35.3895 19.9277 35.8813 20.793 39.249C21.6582 42.6168 21.3532 43.2082 22.3181 45.5861C22.6604 46.4203 23.4635 46.9806 24.3661 46.9992C24.4221 46.9992 24.4719 46.9992 24.5217 46.9992C25.4803 47.0241 26.358 46.4452 26.7004 45.5488C27.5906 43.2144 27.1859 42.511 28.0263 39.2179C28.9227 35.7194 29.1157 35.3895 29.8689 32.5384C30.2361 31.144 31.3317 30.0609 32.7323 29.7123C35.3592 29.0524 35.8074 28.9902 39.2 28.1187C42.5926 27.2471 43.2026 27.6767 45.5494 26.774C46.4333 26.4317 47.0123 25.5726 46.9998 24.6264C46.9998 24.5392 46.9998 24.4521 46.9998 24.3649C46.9874 23.4374 46.4147 22.6095 45.5494 22.2733C43.1964 21.3707 42.493 21.794 39.1938 20.9412C35.7078 20.0448 35.3717 19.8456 32.5394 19.0923C31.145 18.7188 30.2175 18.0403 29.8689 16.6334L29.7008 16.2288Z" stroke="#5F63FE" stroke-width="4" stroke-miterlimit="10"/>
</svg>
