<svg width="36" height="36" viewBox="0 0 36 36" fill="none" xmlns="http://www.w3.org/2000/svg">
<path d="M21.6984 12.1183C21.2336 10.2502 21.2026 9.92262 20.5828 7.51449C19.9631 5.10637 20.2464 4.67698 19.609 3.02582C19.3567 2.37066 18.7015 1.95898 18.0021 2.00325C17.9712 2.00325 17.9402 2.00325 17.9092 2.00767C17.285 2.04309 16.7361 2.44149 16.506 3.02139C15.8243 4.71682 16.0677 5.16834 15.4613 7.53663C14.8548 9.90491 14.8061 10.2679 14.3369 12.1404C14.0713 13.2072 13.2347 14.0439 12.1679 14.3095C10.2423 14.792 9.93689 14.8097 7.50226 15.4383C5.06763 16.0669 4.68694 15.819 3.01369 16.4918C2.40282 16.7397 2 17.3373 2 17.9969C2 18.0013 2 18.0058 2 18.0102C2 18.6654 2.40282 19.2541 3.00926 19.502C4.68694 20.1793 5.14288 19.9712 7.49783 20.5777C9.99886 21.2196 10.2379 21.2904 12.3007 21.826C13.31 22.0872 14.0935 22.884 14.3369 23.8977C14.7796 25.7437 14.7486 26.0934 15.3639 28.4882C15.9792 30.8831 15.7623 31.3036 16.4484 32.9946C16.6919 33.5878 17.2629 33.9862 17.9048 33.9995C17.9446 33.9995 17.98 33.9995 18.0154 33.9995C18.6971 34.0172 19.3213 33.6055 19.5647 32.968C20.1977 31.308 19.91 30.8078 20.5076 28.4661C21.145 25.9783 21.2823 25.7437 21.8179 23.7162C22.079 22.7246 22.8581 21.9544 23.8541 21.7065C25.7221 21.2373 26.0408 21.193 28.4533 20.5733C30.8658 19.9535 31.2996 20.259 32.9685 19.6171C33.597 19.3736 34.0087 18.7627 33.9999 18.0899C33.9999 18.0279 33.9999 17.9659 33.9999 17.904C33.991 17.2444 33.5838 16.6556 32.9685 16.4166C31.2952 15.7747 30.795 16.0757 28.4489 15.4693C25.97 14.8318 25.731 14.6902 23.7169 14.1545C22.7253 13.8889 22.0658 13.4064 21.8179 12.406L21.6984 12.1183Z" stroke="#75C212" stroke-width="3" stroke-miterlimit="10"/>
</svg>
