<svg width="28" height="28" viewBox="0 0 28 28" fill="none" xmlns="http://www.w3.org/2000/svg">
<mask id="mask0_360_12818" style="mask-type:alpha" maskUnits="userSpaceOnUse" x="4" y="1" width="20" height="26">
<path d="M4.66602 2.91662C4.66602 1.95013 5.44952 1.16663 6.41602 1.16663H16.3327L23.3327 8.16663V25.0833C23.3327 26.0498 22.5492 26.8333 21.5827 26.8333H6.41601C5.44952 26.8333 4.66602 26.0498 4.66602 25.0833V2.91662Z" fill="black"/>
</mask>
<g mask="url(#mask0_360_12818)">
<path d="M4.66602 2.91662C4.66602 1.95013 5.44952 1.16663 6.41602 1.16663H21.5827C22.5492 1.16663 23.3327 1.95013 23.3327 2.91663V25.0833C23.3327 26.0498 22.5492 26.8333 21.5827 26.8333H6.41601C5.44952 26.8333 4.66602 26.0498 4.66602 25.0833V2.91662Z" fill="#20A464"/>
<path fill-rule="evenodd" clip-rule="evenodd" d="M6.41602 26.8334C5.44952 26.8334 4.66602 26.0499 4.66602 25.0834V2.91671C4.66602 2.91274 4.66603 2.90878 4.66606 2.90481V24.7916C4.66606 25.7581 5.44956 26.5416 6.41606 26.5416H21.5827C22.5452 26.5416 23.3262 25.7646 23.3327 24.8036V25.0834C23.3327 26.0499 22.5492 26.8334 21.5827 26.8334H6.41602Z" fill="#149456"/>
<path fill-rule="evenodd" clip-rule="evenodd" d="M6.41602 1.16663C5.44952 1.16663 4.66602 1.95013 4.66602 2.91662V25.0833C4.66602 25.0873 4.66603 25.0912 4.66606 25.0952V3.20836C4.66606 2.24186 5.44956 1.45836 6.41606 1.45836H21.5827C22.5452 1.45836 23.3262 2.23541 23.3327 3.1964V2.91663C23.3327 1.95013 22.5492 1.16663 21.5827 1.16663H6.41602Z" fill="#38AE74"/>
<path d="M23.334 14.1459L17.0808 7.89273C16.8052 7.61712 17.0004 7.14587 17.3902 7.14587H23.334V14.1459Z" fill="url(#paint0_linear_360_12818)"/>
<path d="M16.334 1.16663L23.334 8.16663H18.084C17.1175 8.16663 16.334 7.38312 16.334 6.41663V1.16663Z" fill="#8ED1B1"/>
<path fill-rule="evenodd" clip-rule="evenodd" d="M17.5005 13.7084H18.6672V13.7084H18.6674V14.8751H18.6672V16.3334H18.6673V17.2084H18.6672V18.6666H18.6673V19.5416H18.6672V21H18.6673V22.1667H18.6672V22.1667H17.5005V22.1667H14.5837V22.1667H13.4171V22.1667H10.5007V22.1667H9.33402V22.1667H9.33398V21H9.33402V19.5416H9.33398V18.6666H9.33402V17.2084H9.33398V16.3334H9.33402V14.8751V13.7084H10.5007H13.4171V13.7084H14.5837V13.7084H17.5005V13.7084ZM13.4171 14.8751H10.5007V16.3334H13.4171V14.8751ZM14.5837 16.3334V14.8751H17.5005V16.3334H14.5837ZM13.4171 17.2084H10.5007V18.6666H13.4171V17.2084ZM14.5837 18.6666V17.2084H17.5005V18.6666H14.5837ZM13.4171 19.5416H10.5007V21H13.4171V19.5416ZM14.5837 21V19.5416H17.5005V21H14.5837Z" fill="white"/>
</g>
<defs>
<linearGradient id="paint0_linear_360_12818" x1="19.834" y1="14.1459" x2="19.834" y2="7.00004" gradientUnits="userSpaceOnUse">
<stop stop-color="#20A464"/>
<stop offset="1" stop-color="#207E55"/>
</linearGradient>
</defs>
</svg>
