<svg width="60" height="20" viewBox="0 0 60 20" fill="none" xmlns="http://www.w3.org/2000/svg">
<g clip-path="url(#clip0_50_1286)">
<path d="M49.9051 -0.000101879C49.539 -0.000101879 49.1038 -0.000101876 48.7447 0.0689688L46.638 3.76425C47.5843 3.18406 48.7447 2.89396 49.912 2.89396C53.697 2.89396 56.819 6.00905 56.819 9.78031C56.819 13.5516 53.6901 16.6667 49.912 16.6667C46.1338 16.6667 43.074 13.6206 43.0049 9.84938L40.8223 13.5447C42.2797 17.0949 45.8437 19.5607 49.8429 19.5607C55.2235 19.5607 59.6647 15.1402 59.6647 9.7734C59.7407 4.40661 55.2995 -0.013916 49.9189 -0.013916L49.9051 -0.000101879Z" fill="#1D1F25"/>
<path d="M20.2266 10.2222L21.8981 7.32125L25.6831 13.7725L30.0484 6.30591L34.4137 13.7725L41.9079 1.08417C42.2739 0.434901 42.9992 -0.000244141 43.8004 -0.000244141H45.907L34.4137 19.5813L30.0484 12.1148L25.6831 19.5813L20.2266 10.2291V10.2222Z" fill="#1D1F25"/>
<path d="M23.3541 -0.000244141L11.8607 19.5813L0.443359 -0.000244141H2.55002C3.35124 -0.000244141 4.07648 0.434901 4.44255 1.08417L11.8607 13.8484L19.3549 1.08417C19.721 0.434901 20.4462 -0.000244141 21.2474 -0.000244141H23.3541Z" fill="#1D1F25"/>
</g>
<defs>
<clipPath id="clip0_50_1286">
<rect width="59.2074" height="19.5815" fill="white" transform="translate(0.449219)"/>
</clipPath>
</defs>
</svg>
