<svg width="24" height="24" viewBox="0 0 24 24" fill="none" xmlns="http://www.w3.org/2000/svg">
<path d="M15.3533 14.3517L13.7231 16.3896C11.1982 14.9059 9.09403 12.8019 7.61011 10.2771L9.64762 8.64691C9.88654 8.45581 10.0554 8.19092 10.1278 7.89367C10.2002 7.59641 10.172 7.28354 10.0477 7.004L8.19018 2.82169C8.05692 2.52165 7.82142 2.2787 7.52567 2.13615C7.22993 1.99361 6.89317 1.96075 6.57545 2.04342L3.04004 2.95989C2.71005 3.04596 2.42313 3.25013 2.23368 3.53368C2.04422 3.81723 1.96541 4.16045 2.01219 4.49825C2.63297 8.91704 4.67531 13.0137 7.8305 16.1689C10.9857 19.3242 15.0823 21.3667 19.501 21.9876C19.8388 22.0342 20.182 21.9554 20.4655 21.7659C20.7491 21.5765 20.9532 21.2896 21.0394 20.9597L21.9559 17.4234C22.0382 17.1057 22.0052 16.7692 21.8627 16.4736C21.7202 16.178 21.4774 15.9425 21.1776 15.8091L16.9962 13.9539C16.7169 13.8295 16.4042 13.801 16.107 13.873C15.8098 13.945 15.5448 14.1133 15.3533 14.3517Z" fill="#3F3F3F"/>
</svg>
