<svg width="95" height="36" viewBox="0 0 95 36" fill="none" xmlns="http://www.w3.org/2000/svg">
<g clip-path="url(#clip0_287_2940)">
<path d="M58.8248 18.2192C57.2479 16.9136 55.209 16.0699 53.4112 15.3267C50.9304 14.3022 48.7811 13.4184 48.7811 11.7712C48.7811 11.0581 49.1125 10.3952 49.7252 9.92318C50.368 9.42099 51.2719 9.14982 52.2562 9.14982C55.3597 9.14982 57.8304 11.3494 57.8606 11.3695L58.4632 11.9219L61.2151 6.75943L60.9038 6.42799C60.7833 6.29742 57.8907 3.31445 52.2964 3.31445C49.6147 3.31445 47.154 4.16816 45.3462 5.72493C43.5182 7.30178 42.5139 9.48126 42.5139 11.8616C42.5139 14.2419 43.4178 16.0498 45.2658 17.5865C46.8226 18.8721 48.751 19.7157 50.6291 20.5192C53.1802 21.624 55.3898 22.5681 55.3898 24.2655C55.3898 25.5511 54.516 26.9371 52.0654 26.9371C48.5501 26.9371 45.7379 24.2655 45.7077 24.2354L45.1754 23.7232L41.7606 28.4638L42.1021 28.8454C42.1021 28.8454 43.0261 29.8598 44.6833 30.8341C46.2099 31.7279 48.7108 32.7825 51.985 32.7825C54.8475 32.7825 57.2981 31.8987 59.0457 30.2415C60.6929 28.6747 61.6068 26.5153 61.6068 24.155C61.6068 21.7948 60.6929 19.786 58.8248 18.2393" fill="white"/>
<path d="M87.7466 32.3487H94.1544V3.73438H87.7466V32.3487Z" fill="white"/>
<path d="M75.2155 26.9847H70.3342V9.08694H74.6329C76.5613 9.08694 77.6661 10.1616 77.6661 12.0398C77.6661 13.9179 76.6718 14.9022 74.7133 14.9022H73.2369V20.1651H75.2155C76.3002 20.1651 77.2041 20.5066 77.8268 21.1494C78.4796 21.8223 78.7508 22.4852 78.7508 23.4494C78.7508 25.6288 77.3949 26.9847 75.2155 26.9847ZM83.7224 19.4821C83.0897 18.4878 82.2159 17.6944 81.1814 17.162C82.8486 15.8262 83.7927 13.7673 83.7927 11.4271C83.7927 9.08694 82.8888 7.07821 81.1814 5.70223C79.5744 4.4066 77.3347 3.72363 74.7133 3.72363H64.288V32.338H74.8338C77.6259 32.338 80.0465 31.6349 81.8242 30.2891C83.843 28.7725 84.9076 26.5127 84.9076 23.7507C84.9076 22.1738 84.4958 20.6974 83.7224 19.4721" fill="white"/>
<path d="M18.0197 -0.00292969C8.07644 -0.00292969 0.0113831 8.08221 0.0113831 18.0455C0.0113831 27.3861 7.09216 35.0795 16.1716 36.0036V22.8966C14.2232 22.1534 12.8271 20.2652 12.8271 18.0556C12.8271 15.1931 15.1472 12.873 18.0096 12.873C20.872 12.873 23.1921 15.2032 23.1921 18.0556C23.1921 20.2652 21.7961 22.1534 19.8476 22.8966V36.0036C28.9271 35.0795 36.0078 27.3961 36.0078 18.0455C36.0279 8.08221 27.9629 -0.00292969 18.0197 -0.00292969Z" fill="white"/>
</g>
<defs>
<clipPath id="clip0_287_2940">
<rect width="94.1391" height="36.0065" fill="white" transform="translate(0 -0.00292969)"/>
</clipPath>
</defs>
</svg>
