<svg width="93" height="33" viewBox="0 0 93 33" fill="none" xmlns="http://www.w3.org/2000/svg">
<g clip-path="url(#clip0_287_2997)">
<path d="M13.9508 32.9331C10.1945 32.6017 6.90019 31.1152 4.40936 28.6144C2.0491 26.2541 0.602818 23.2611 0.110679 19.7157C-0.00984485 18.8419 -0.0399758 16.803 0.0604607 15.8891C0.371814 12.9161 1.45653 10.2546 3.29452 7.96461C3.78666 7.35195 4.81111 6.29737 5.40368 5.81527C8.52726 3.22401 12.4744 1.95851 16.753 2.18952C18.7718 2.3 20.1578 2.54104 21.7045 3.07336C22.7792 3.44497 24.3259 4.21833 24.798 4.64017L24.9185 4.7406V5.91571L24.8884 7.09082L24.3761 6.77946C22.036 5.34322 19.0731 4.5799 15.8089 4.5799C13.0469 4.5799 10.4958 5.32313 8.32639 6.74933C6.0967 8.22575 4.40936 10.2947 3.42508 12.8057C2.08928 16.1904 2.3002 20.3384 3.96744 23.6729C5.87574 27.4794 9.38097 29.9301 13.7299 30.4925C15.0054 30.6532 16.8936 30.5829 18.2395 30.3117C22.6285 29.4279 25.3805 26.4248 25.963 21.8851C26.0233 21.4131 26.0434 20.8406 26.0534 19.6052V17.958L20.8709 17.948H15.6884V15.6078H28.3635V17.707C28.3635 20.0773 28.3133 21.3126 28.1726 22.3069C27.7508 25.3 26.636 27.6803 24.798 29.5283C22.9299 31.3965 20.5495 32.4912 17.4862 32.8829C16.7731 32.9733 14.684 33.0135 13.9609 32.9532L13.9508 32.9331ZM73.0879 5.10217V0H75.4682V8.6275L75.2673 8.71789C74.8455 8.90872 74.2429 9.32051 73.1582 10.1642C73.1079 10.2043 73.0979 9.1799 73.0979 5.10217H73.0879ZM69.4922 6.95021V0H71.8726V11.1384L71.501 11.5301C71.1193 11.9319 70.4363 12.7353 69.8839 13.4284C69.7132 13.6393 69.5525 13.8402 69.5324 13.8602C69.5123 13.8904 69.4922 10.7768 69.4922 6.95021Z" fill="white"/>
<path d="M14.591 29.3054C11.598 29.0744 9.0871 27.9194 7.1085 25.8705C6.52597 25.2678 6.19453 24.856 5.74257 24.1731C4.08536 21.6622 3.44257 18.3779 4.00501 15.3246C4.72816 11.4076 7.4299 8.1635 11.2164 6.64691C12.1805 6.26525 13.3657 5.98403 14.4906 5.8635C15.2238 5.7932 17.1923 5.83337 17.9657 5.93381C20.4666 6.27529 22.6962 7.04865 24.484 8.19363L24.9059 8.46481V9.61983C24.9059 10.6744 24.9058 10.7748 24.8255 10.815C24.7552 10.8552 24.6045 10.7748 24.1325 10.4735C22.2543 9.28839 20.2657 8.59538 17.9155 8.31415C17.0216 8.20367 15.0832 8.19363 14.4203 8.29407C10.1316 8.90673 7.06833 12.0002 6.52597 16.2687C6.37531 17.4338 6.47575 19.0709 6.76702 20.2058C7.40981 22.7368 8.97662 24.8058 11.0657 25.8805C12.4819 26.6137 13.7273 26.905 15.3945 26.905C17.7246 26.905 19.6028 26.2421 20.8884 24.9665C21.722 24.1429 22.2041 23.1285 22.3146 22.0137L22.3447 21.6622H15.6757V19.1814H24.8054V20.1757C24.8054 21.7023 24.6849 22.6163 24.3434 23.6408C23.6504 25.7198 22.174 27.367 20.1452 28.3412C18.8294 28.9739 17.4233 29.2753 15.6858 29.3154C15.2137 29.3255 14.7216 29.3255 14.581 29.3154L14.591 29.3054ZM80.7084 29.3355C78.8202 29.1648 77.1529 28.3312 75.7368 26.8447C74.7224 25.7801 73.9992 24.5045 73.6879 23.2189C73.5071 22.4757 73.4468 22.6163 74.4813 21.1901C74.9835 20.4971 75.4154 19.9246 75.4355 19.9146C75.4555 19.9146 75.4857 20.1456 75.4957 20.4368C75.5359 21.16 75.6062 21.6119 75.7468 22.1744C76.3997 24.6853 78.2175 26.4932 80.4874 26.8949C81.09 26.9953 82.1245 26.9652 82.7071 26.8146C84.7961 26.2722 86.1922 24.6953 86.7245 22.2547C86.8551 21.6622 86.8551 19.9347 86.7245 19.3521C86.4634 18.167 85.9612 17.1727 85.218 16.3993C84.1734 15.2945 82.7874 14.732 81.1503 14.732C79.0411 14.732 77.5145 15.5858 75.4857 17.8858C73.5071 20.1355 70.2228 24.3137 68.5756 26.6639L67.9831 27.5076V23.5905L68.8267 22.4456C69.2887 21.8128 70.1023 20.7482 70.6245 20.0652C71.1468 19.3823 71.88 18.4382 72.2516 17.9561C73.939 15.7465 75.0237 14.6417 76.4097 13.7176C79.2621 11.8294 83.0084 11.7792 85.7302 13.5971C88.5022 15.4552 89.8381 19.091 89.0948 22.767C88.4922 25.7298 86.594 28.0198 83.9726 28.9438C83.4001 29.1447 82.7472 29.2753 82.0542 29.3355C81.4114 29.3958 81.3311 29.3958 80.7084 29.3355ZM60.8119 26.1718C60.8119 20.8888 60.8019 19.9748 60.7416 19.543C60.5005 17.946 59.7674 16.6102 58.6525 15.7766C57.9294 15.2342 57.1259 14.9028 56.1617 14.7421C55.4687 14.6316 54.4442 14.6718 53.8014 14.8425C51.6421 15.415 50.0853 17.1727 49.6233 19.5831C49.4927 20.2661 49.5028 21.5617 49.6434 22.2547C50.1255 24.5246 51.5617 26.1617 53.5805 26.7342C55.3582 27.2464 57.8089 26.8648 59.3254 25.8303L59.6067 25.6395V26.8949L59.5765 28.1504L59.0944 28.4015C57.8691 29.0443 55.9407 29.456 54.5748 29.3656C51.9634 29.1949 49.8643 28.0098 48.4683 25.9207C46.9818 23.701 46.6001 20.477 47.5041 17.7652C48.6993 14.1796 52.0438 11.9901 55.8704 12.2914C57.9394 12.4622 59.4962 13.1552 60.8621 14.5211C62.1276 15.7866 62.8005 17.1526 63.1219 19.091C63.2023 19.553 63.2123 20.1657 63.2224 25.9508L63.2425 32.2984H60.8119V26.1718ZM33.5635 26.0211C33.5635 19.5831 33.5836 18.7194 33.7543 17.8757C34.1962 15.7163 35.4718 13.9989 37.3399 13.0648C37.7818 12.8438 38.7058 12.5526 39.2381 12.4622C40.8552 12.191 42.5425 12.4321 43.7377 13.1251L43.9888 13.2657L43.7879 13.5871C43.6774 13.7679 43.4364 14.2198 43.2556 14.6015C43.0748 14.9831 42.9141 15.2945 42.9141 15.2945C42.9141 15.2945 42.6932 15.2242 42.4421 15.1338C41.3573 14.7421 40.363 14.6818 39.3486 14.943C38.3945 15.184 37.5307 15.7465 36.9683 16.4796C36.6569 16.8914 36.2954 17.6547 36.1347 18.2373L36.0041 18.7194V25.5089L35.974 32.2984H33.5434V26.0211H33.5635Z" fill="white"/>
<path d="M30.012 25.6078C30.012 18.9188 30.022 18.3764 30.1827 17.3921C30.6849 14.3288 32.2919 11.828 34.6823 10.3716C36.9522 8.99565 39.9753 8.51355 42.8779 9.08604C43.9124 9.28692 45.198 9.7891 45.9914 10.3013L46.3128 10.5022L45.7404 11.0646C45.429 11.376 45.0775 11.7476 44.9569 11.8882L44.736 12.1494L44.4548 12.0087C43.5006 11.5266 41.8836 11.1751 40.6482 11.1751C36.7412 11.1751 33.698 13.445 32.7338 17.0607C32.4024 18.3061 32.4225 17.9144 32.4024 25.4672L32.3823 32.307H30.002V25.6179L30.012 25.6078ZM80.3307 32.9498C76.6848 32.6183 73.6617 30.8707 71.8036 28.0083C71.5124 27.5563 71.0001 26.5319 70.8997 26.1904L70.8394 25.9895L71.6831 24.8445L72.5268 23.6996L72.5669 23.8603C73.1093 25.9092 74.3145 27.6568 76.0019 28.862C76.5241 29.2336 77.4783 29.7458 78.111 29.9869C79.6979 30.5895 81.4556 30.7301 83.173 30.4087C84.2879 30.1978 85.6137 29.6253 86.5377 28.9725C87.1102 28.5707 88.1647 27.5161 88.5464 26.9738C89.4905 25.648 90.1032 24.0712 90.3543 22.3637C90.4647 21.5803 90.4647 20.0035 90.3543 19.2402C89.9626 16.5384 88.7272 14.369 86.7486 12.8725C85.0813 11.607 82.7311 10.9542 80.4914 11.1249C77.0966 11.386 74.7665 12.9328 71.4019 17.121C71.0604 17.5528 70.1565 18.738 69.3932 19.7524C68.6298 20.7668 67.9971 21.6105 67.9971 21.6205C67.9971 21.6306 67.977 20.8472 67.977 19.8729V18.1052L68.7905 16.9603C70.518 14.5397 71.2613 13.6157 72.4464 12.4406C73.6717 11.2153 74.656 10.4922 75.9717 9.83932C77.0765 9.29696 78.1311 8.96552 79.4468 8.76464C80.2303 8.64412 82.1586 8.64412 82.942 8.76464C85.6237 9.17643 87.753 10.2611 89.5508 12.1293C91.3084 13.9572 92.363 16.2271 92.7647 19.0493C92.8551 19.672 92.8551 21.9218 92.7647 22.5445C92.4835 24.5633 91.8307 26.3712 90.8464 27.8677C89.0184 30.6397 86.3569 32.3572 83.0726 32.8694C82.6006 32.9397 80.8027 33 80.3307 32.9598V32.9498ZM53.9561 32.9196C48.6932 32.4375 44.6255 28.7415 43.6111 23.5087C43.4203 22.5144 43.3901 22.1428 43.3901 20.8371C43.3901 19.2301 43.5006 18.4066 43.8823 17.1009C44.8766 13.6659 47.4076 10.8236 50.6316 9.50788C52.1683 8.87513 53.5041 8.62403 55.2718 8.63408C56.9792 8.63408 58.2347 8.85504 59.6709 9.40744C61.1975 9.98997 62.4229 10.8035 63.5879 11.9887C65.2753 13.7061 66.2696 15.7852 66.7015 18.4367C66.8019 19.0594 66.8019 19.2 66.822 25.6882L66.8421 32.307H64.4115V26.2205C64.4115 22.4441 64.3914 19.9131 64.3613 19.5515C64.1504 17.1511 63.1761 15.0319 61.5691 13.5153C59.7713 11.8079 57.1299 10.914 54.5386 11.1149C50.0893 11.4764 46.7849 14.5197 46.0015 18.9891C45.7805 20.2345 45.8207 21.9017 46.1019 23.2777C46.3028 24.272 46.815 25.5777 47.3172 26.3913C48.3617 28.0987 49.9085 29.334 51.8067 30.007C53.4338 30.5795 55.2919 30.7201 56.8687 30.3987C57.7726 30.2179 58.8473 29.796 59.3897 29.4244L59.6106 29.2738V31.6843L59.3294 31.865C58.536 32.3873 57.3609 32.769 56.1355 32.9096C55.6233 32.9698 54.639 32.9698 53.9762 32.9096L53.9561 32.9196Z" fill="white"/>
</g>
<defs>
<clipPath id="clip0_287_2997">
<rect width="92.8335" height="32.9733" fill="white"/>
</clipPath>
</defs>
</svg>
