<svg width="65" height="25" viewBox="0 0 65 25" fill="none" xmlns="http://www.w3.org/2000/svg">
<g clip-path="url(#clip0_50_1304)">
<path d="M40.5212 12.5362C39.4368 11.6383 38.0347 11.0581 36.7983 10.547C35.0923 9.84247 33.6142 9.23464 33.6142 8.10188C33.6142 7.61148 33.8421 7.15562 34.2634 6.83098C34.7055 6.48563 35.3271 6.29914 36.004 6.29914C38.1383 6.29914 39.8374 7.81179 39.8582 7.8256L40.2726 8.20549L42.1651 4.65526L41.951 4.42732C41.8681 4.33753 39.8789 2.28613 36.0316 2.28613C34.1875 2.28613 32.4952 2.87323 31.252 3.94383C29.9949 5.02824 29.3042 6.52707 29.3042 8.16405C29.3042 9.80102 29.9258 11.0443 31.1967 12.1011C32.2673 12.9852 33.5935 13.5654 34.8851 14.1179C36.6395 14.8777 38.159 15.527 38.159 16.6943C38.159 17.5784 37.5581 18.5316 35.8728 18.5316C33.4553 18.5316 31.5213 16.6943 31.5006 16.6736L31.1345 16.3213L28.7861 19.5814L29.021 19.8439C29.021 19.8439 29.6564 20.5415 30.7961 21.2115C31.846 21.8262 33.5658 22.5515 35.8175 22.5515C37.786 22.5515 39.4714 21.9437 40.6732 20.804C41.806 19.7265 42.4345 18.2415 42.4345 16.6183C42.4345 14.9951 41.806 13.6137 40.5212 12.55" fill="#1D1F25"/>
<path d="M60.4092 22.2476H64.8159V2.56934H60.4092V22.2476Z" fill="#1D1F25"/>
<path d="M51.7952 18.5593H48.4383V6.25087H51.3946C52.7207 6.25087 53.4805 6.98993 53.4805 8.28155C53.4805 9.57317 52.7967 10.2501 51.4498 10.2501H50.4345V13.8694H51.7952C52.5411 13.8694 53.1628 14.1042 53.591 14.5463C54.04 15.009 54.2265 15.4649 54.2265 16.128C54.2265 17.6268 53.294 18.5593 51.7952 18.5593ZM57.6454 13.3997C57.2103 12.7159 56.6094 12.1702 55.898 11.8042C57.0445 10.8855 57.6938 9.46957 57.6938 7.86022C57.6938 6.25087 57.0722 4.86946 55.898 3.92319C54.7928 3.03218 53.2526 2.5625 51.4498 2.5625H44.2803V22.2407H51.5327C53.4529 22.2407 55.1175 21.7572 56.34 20.8317C57.7283 19.7887 58.4605 18.2346 58.4605 16.3352C58.4605 15.2508 58.1773 14.2354 57.6454 13.3928" fill="#1D1F25"/>
<path d="M12.4596 0C5.62157 0 0.0751953 5.56019 0.0751953 12.412C0.0751953 18.8356 4.94468 24.1264 11.1887 24.7618V15.7481C9.8487 15.237 8.88861 13.9385 8.88861 12.4189C8.88861 10.4504 10.4841 8.85486 12.4527 8.85486C14.4212 8.85486 16.0167 10.4573 16.0167 12.4189C16.0167 13.9385 15.0566 15.237 13.7167 15.7481V24.7618C19.9606 24.1264 24.8301 18.8425 24.8301 12.412C24.8439 5.56019 19.2976 0 12.4596 0Z" fill="#1D1F25"/>
</g>
<defs>
<clipPath id="clip0_50_1304">
<rect width="64.74" height="24.7618" fill="white" transform="translate(0.0712891)"/>
</clipPath>
</defs>
</svg>
