<svg width="214" height="40" viewBox="0 0 214 40" fill="none" xmlns="http://www.w3.org/2000/svg">
<g clip-path="url(#clip0_287_2977)">
<path d="M28.3645 3.52625C27.9427 3.15463 27.3802 2.99393 26.8278 3.07428L24.4776 3.41577V2.87341C24.4776 1.6983 23.4431 0.794374 22.2781 0.955072L2.20082 3.77734C1.24667 3.90791 0.533569 4.73148 0.533569 5.69568V34.6515C0.533569 35.6258 1.25671 36.4493 2.23095 36.5699L22.3082 39.0406C23.4632 39.1812 24.4776 38.2873 24.4776 37.1223V36.4694L26.8781 36.7506C26.9484 36.7506 27.0287 36.7607 27.099 36.7607C27.5711 36.7607 28.0331 36.5899 28.3846 36.2685C28.7964 35.907 29.0274 35.3747 29.0274 34.8223V4.99262C29.0274 4.43018 28.7864 3.89786 28.3545 3.52625H28.3645ZM26.6169 34.2799L24.4776 34.0288V5.85637L26.6169 5.54502V34.2799Z" fill="white"/>
<path d="M63.0058 7.15039H57.4316L47.87 17.8368V7.15039H43.4408V32.8621H47.87V24.0438L51.5862 19.8958L58.4159 32.8621H63.3875L54.6696 16.491L63.0058 7.15039Z" fill="white"/>
<path d="M75.5695 13.6185C74.1433 13.6185 72.908 13.9198 71.8534 14.5224C70.7988 15.1251 70.0053 15.9085 69.473 16.8827V7.15039H65.2748V32.8621H69.473V21.9648C69.473 20.5084 69.925 19.3333 70.8289 18.4595C71.7328 17.5857 72.8075 17.1438 74.063 17.1438C75.3887 17.1438 76.4333 17.5355 77.1966 18.3089C77.9599 19.0822 78.3416 20.167 78.3416 21.553V32.8722H82.5398V21.0006C82.5398 18.6102 81.897 16.7823 80.6014 15.5268C79.3058 14.2713 77.6285 13.6386 75.5595 13.6386L75.5695 13.6185Z" fill="white"/>
<path d="M93.1293 13.6226C90.9699 13.6226 89.2324 14.1349 87.9368 15.1593C86.6411 16.1838 85.8878 17.5196 85.6669 19.1667L89.383 19.5383C89.6743 17.8209 90.9197 16.9571 93.1293 16.9571C94.3346 16.9571 95.2586 17.2785 95.9114 17.9213C96.5542 18.5641 96.8756 19.4479 96.8756 20.5527V21.4667L91.5525 21.768C89.4533 21.8785 87.8263 22.4309 86.6813 23.4353C85.5363 24.4396 84.9739 25.7754 84.9739 27.4527C84.9739 29.13 85.5564 30.5361 86.7114 31.5807C87.8664 32.6252 89.3429 33.1374 91.1407 33.1374C93.973 33.1374 95.9315 32.0728 97.0263 29.9436V32.8462H101.064V20.5427C101.064 18.2929 100.381 16.5755 99.0149 15.3903C97.649 14.2052 95.6904 13.6025 93.1394 13.6025L93.1293 13.6226ZM96.8756 25.7051C96.8756 26.358 96.735 26.9506 96.4538 27.4728C96.1725 27.9951 95.8009 28.4069 95.349 28.7082C94.897 29.0095 94.4049 29.2405 93.8826 29.4012C93.3603 29.5519 92.8079 29.6322 92.2555 29.6322C91.3315 29.6322 90.5883 29.4313 90.0258 29.0195C89.4533 28.6178 89.1721 28.0453 89.1721 27.3121C89.1721 25.7252 90.1865 24.8715 92.2153 24.761L96.8756 24.4698V25.6851V25.7051Z" fill="white"/>
<path d="M110.198 26.1343V17.2959H115.08V13.9112H110.198V8.54785H106.02V11.6313C106.02 13.1478 105.257 13.9112 103.74 13.9112H102.696V17.2959H106.01V26.4456C106.01 28.6452 106.512 30.3124 107.507 31.4474C108.501 32.5823 109.927 33.1548 111.765 33.1548C113.232 33.1548 114.387 33.0142 115.23 32.7229V28.9063C114.648 29.1172 113.864 29.2277 112.88 29.2277C111.082 29.2277 110.188 28.2033 110.188 26.1443L110.198 26.1343Z" fill="white"/>
<path d="M124.472 13.6226C122.313 13.6226 120.575 14.1349 119.28 15.1593C117.984 16.1838 117.231 17.5196 117.01 19.1667L120.726 19.5383C121.017 17.8209 122.263 16.9571 124.472 16.9571C125.677 16.9571 126.601 17.2785 127.254 17.9213C127.907 18.5641 128.218 19.4479 128.218 20.5527V21.4667L122.895 21.768C120.796 21.8785 119.169 22.4309 118.024 23.4353C116.879 24.4396 116.317 25.7754 116.317 27.4527C116.317 29.13 116.899 30.5361 118.054 31.5807C119.209 32.6252 120.686 33.1374 122.484 33.1374C125.316 33.1374 127.274 32.0728 128.369 29.9436V32.8462H132.407V20.5427C132.407 18.2929 131.724 16.5755 130.358 15.3903C128.992 14.2052 127.033 13.6025 124.482 13.6025L124.472 13.6226ZM128.218 25.7051C128.218 26.358 128.078 26.9506 127.797 27.4728C127.515 27.9951 127.144 28.4069 126.692 28.7082C126.24 29.0095 125.748 29.2405 125.225 29.4012C124.703 29.5519 124.151 29.6322 123.598 29.6322C122.674 29.6322 121.931 29.4313 121.369 29.0195C120.796 28.6178 120.515 28.0453 120.515 27.3121C120.515 25.7252 121.529 24.8715 123.558 24.761L128.218 24.4698V25.6851V25.7051Z" fill="white"/>
<path d="M151.867 16.0993C151.113 15.2958 150.25 14.6831 149.275 14.2613C148.301 13.8395 147.267 13.6285 146.162 13.6285C144.866 13.6285 143.711 13.8897 142.697 14.422C141.672 14.9443 140.909 15.6674 140.407 16.5713V7.15039H136.209V32.8621H140.226V30.06C141.411 32.1189 143.33 33.1434 145.981 33.1434C147.116 33.1434 148.191 32.9324 149.195 32.5106C150.199 32.0888 151.083 31.4761 151.847 30.6726C152.61 29.8691 153.213 28.8447 153.654 27.5993C154.096 26.3538 154.317 24.9477 154.317 23.391C154.317 21.8342 154.096 20.4281 153.654 19.1726C153.213 17.9172 152.61 16.8927 151.857 16.0892L151.867 16.0993ZM148.763 27.9608C147.839 29.0355 146.664 29.5678 145.208 29.5678C143.751 29.5678 142.526 29.0355 141.602 27.9709C140.678 26.9062 140.226 25.3796 140.226 23.401C140.226 21.4224 140.688 19.8958 141.602 18.8312C142.526 17.7665 143.721 17.2342 145.208 17.2342C146.694 17.2342 147.839 17.7665 148.763 18.8412C149.687 19.9159 150.139 21.4325 150.139 23.401C150.139 25.3696 149.677 26.8962 148.763 27.9608Z" fill="white"/>
<path d="M171.474 16.1871C170.641 15.3736 169.667 14.7408 168.552 14.2989C167.437 13.8469 166.232 13.626 164.936 13.626C163.64 13.626 162.455 13.8469 161.34 14.2989C160.226 14.7509 159.241 15.3736 158.408 16.1871C157.574 17.0006 156.911 18.0251 156.439 19.2705C155.957 20.5159 155.726 21.8919 155.726 23.3984C155.726 24.905 155.967 26.281 156.439 27.5163C156.921 28.7517 157.574 29.7862 158.408 30.5997C159.241 31.4133 160.226 32.046 161.34 32.488C162.455 32.9299 163.66 33.1508 164.936 33.1508C166.212 33.1508 167.427 32.9299 168.552 32.488C169.677 32.046 170.641 31.4133 171.474 30.5997C172.308 29.7762 172.961 28.7517 173.433 27.5163C173.915 26.281 174.146 24.905 174.146 23.3984C174.146 21.8919 173.905 20.5159 173.433 19.2705C172.951 18.0251 172.298 17.0006 171.474 16.1871ZM168.552 27.9583C167.598 29.0329 166.392 29.5653 164.936 29.5653C163.48 29.5653 162.274 29.0329 161.33 27.9583C160.386 26.8836 159.914 25.367 159.914 23.3984C159.914 21.4299 160.386 19.9033 161.33 18.8386C162.274 17.774 163.48 17.2316 164.936 17.2316C166.392 17.2316 167.598 17.764 168.552 18.8386C169.506 19.9133 169.978 21.4299 169.978 23.3984C169.978 25.367 169.506 26.8936 168.552 27.9583Z" fill="white"/>
<path d="M191.298 16.1871C190.464 15.3736 189.49 14.7408 188.375 14.2989C187.26 13.8469 186.055 13.626 184.759 13.626C183.463 13.626 182.278 13.8469 181.163 14.2989C180.049 14.7509 179.064 15.3736 178.231 16.1871C177.397 17.0006 176.734 18.0251 176.262 19.2705C175.78 20.5159 175.549 21.8919 175.549 23.3984C175.549 24.905 175.79 26.281 176.262 27.5163C176.744 28.7517 177.397 29.7862 178.231 30.5997C179.064 31.4233 180.049 32.046 181.163 32.488C182.278 32.9299 183.484 33.1508 184.759 33.1508C186.035 33.1508 187.25 32.9299 188.375 32.488C189.5 32.046 190.464 31.4133 191.298 30.5997C192.131 29.7862 192.784 28.7517 193.256 27.5163C193.738 26.281 193.969 24.905 193.969 23.3984C193.969 21.8919 193.728 20.5159 193.256 19.2705C192.774 18.0251 192.121 17.0006 191.298 16.1871ZM188.375 27.9583C187.421 29.0329 186.215 29.5653 184.759 29.5653C183.303 29.5653 182.098 29.0329 181.153 27.9583C180.209 26.8836 179.737 25.367 179.737 23.3984C179.737 21.4299 180.209 19.9033 181.153 18.8386C182.098 17.774 183.303 17.2316 184.759 17.2316C186.215 17.2316 187.421 17.764 188.375 18.8386C189.329 19.9133 189.801 21.4299 189.801 23.3984C189.801 25.367 189.329 26.8936 188.375 27.9583Z" fill="white"/>
<path d="M205.918 20.6691L212.376 13.9098H207.154L200.525 20.9202V7.15039H196.327V32.8621H200.525V26.3137L203.086 23.6119L209.002 32.8621H213.702L205.918 20.6691Z" fill="white"/>
</g>
<defs>
<clipPath id="clip0_287_2977">
<rect width="213.166" height="38.1056" fill="white" transform="translate(0.533447 0.947266)"/>
</clipPath>
</defs>
</svg>
