<svg width="196" height="38" viewBox="0 0 196 38" fill="none" xmlns="http://www.w3.org/2000/svg">
<g clip-path="url(#clip0_287_2960)">
<path d="M26.4847 2.57796C23.1879 3.27048 20.5738 6.34296 20.5836 9.82511C20.5836 9.94215 20.5933 10.069 20.6031 10.1177C26.1336 11.4638 28.6501 14.8094 28.6696 19.4229C28.6793 24.0463 25.0314 29.1086 18.8669 29.1281C13.8729 29.1476 8.67408 24.8851 8.65457 18.0379C8.63506 13.5121 11.0833 9.15209 14.2045 6.5673C17.2478 4.0508 21.4224 2.43165 25.2069 2.41214C25.6556 2.41214 26.1141 2.45116 26.4262 2.53894C24.0852 1.4465 21.4907 0.8125 18.7303 0.8125C8.68383 0.822254 0.549072 8.95701 0.549072 19.0035C0.549072 29.05 8.68383 37.1848 18.7303 37.1848C28.7769 37.1848 36.9019 29.05 36.9019 19.0035C36.9019 11.7466 32.6394 5.49437 26.4847 2.57796Z" fill="white"/>
<path d="M26.5218 2.56392C26.5218 2.56392 26.4619 2.54395 26.4319 2.54395C26.4519 2.55393 26.4718 2.56392 26.4918 2.57391C26.4918 2.57391 26.5118 2.57391 26.5218 2.57391V2.56392Z" fill="white"/>
<path d="M53.4448 30.1325L45.4954 11.1709H50.6844L55.6394 23.7632L60.4383 11.1709H65.3933L57.678 30.1325H53.4253H53.4448Z" fill="white"/>
<path d="M79.2242 20.5692C79.2242 19.7791 79.1364 19.0281 78.9511 18.3161C78.7658 17.604 78.4927 16.9895 78.122 16.4823C77.7514 15.9654 77.3125 15.5655 76.7858 15.2631C76.2591 14.9607 75.6446 14.8046 74.9423 14.8046C74.24 14.8046 73.6157 14.9607 73.0988 15.2631C72.5721 15.5655 72.1234 15.9654 71.7625 16.4823C71.3919 16.9895 71.1187 17.604 70.9334 18.3161C70.7481 19.0281 70.6603 19.7791 70.6603 20.5692C70.6603 21.3593 70.7481 22.1493 70.9334 22.8419C71.1187 23.5344 71.3821 24.1489 71.7332 24.6756C72.0844 25.2023 72.5331 25.612 73.0793 25.9241C73.6157 26.2265 74.24 26.3825 74.9423 26.3825C75.6446 26.3825 76.2688 26.2265 76.7858 25.9241C77.3125 25.6217 77.7514 25.2023 78.122 24.6756C78.4927 24.1489 78.7658 23.5344 78.9511 22.8419C79.1364 22.1493 79.2242 21.3885 79.2242 20.5692ZM84.0232 20.5887C84.0232 21.8275 83.8281 23.0369 83.4574 24.2269C83.077 25.4169 82.5113 26.4898 81.7603 27.4262C81.019 28.3723 80.0728 29.1331 78.9316 29.7086C77.7904 30.2841 76.4541 30.5767 74.9423 30.5767C73.4304 30.5767 72.0844 30.2938 70.9529 29.7086C69.8117 29.1331 68.8656 28.3723 68.1145 27.4262C67.3732 26.4801 66.8075 25.4169 66.4271 24.2269C66.0467 23.0369 65.8614 21.8177 65.8614 20.5887C65.8614 19.3597 66.0565 18.1502 66.4271 16.97C66.8075 15.7898 67.3732 14.7364 68.1145 13.8C68.8656 12.8734 69.8117 12.1223 70.9529 11.5566C72.0941 10.9909 73.4207 10.708 74.9423 10.708C76.4639 10.708 77.7904 10.9909 78.9121 11.5566C80.0436 12.1223 80.9799 12.8636 81.7407 13.8C82.5015 14.7266 83.077 15.7898 83.4574 16.97C83.8378 18.1502 84.0232 19.3597 84.0232 20.5887Z" fill="white"/>
<path d="M98.6858 15.3515C97.7494 14.9808 96.8716 14.7955 96.062 14.7955C95.2524 14.7955 94.5111 14.9613 93.9161 15.2734C93.3114 15.5856 92.8139 16.0147 92.4238 16.5512C92.0336 17.0877 91.741 17.6924 91.5459 18.3752C91.3509 19.0482 91.2533 19.7407 91.2533 20.443C91.2533 21.2331 91.3411 21.9841 91.5069 22.7157C91.6727 23.4375 91.9361 24.0715 92.2872 24.6079C92.6384 25.1444 93.0773 25.5833 93.6138 25.9149C94.1502 26.2368 94.7842 26.4026 95.5158 26.4026C96.1205 26.4026 96.7253 26.2368 97.3495 25.9149C97.9738 25.5833 98.4224 25.1932 98.6858 24.7542V15.3515ZM99.076 30.1384L98.8809 28.6851C98.4322 29.1825 97.847 29.6214 97.1154 30.0018C96.3839 30.3822 95.5255 30.5773 94.5306 30.5773C93.2236 30.5773 92.0726 30.3042 91.0875 29.7482C90.0926 29.202 89.2538 28.4607 88.5808 27.5439C87.898 26.627 87.381 25.5638 87.0299 24.3543C86.6787 23.1546 86.5032 21.8866 86.5032 20.5796C86.5032 19.3506 86.6885 18.1411 87.0494 16.9609C87.42 15.7806 87.9663 14.7272 88.7173 13.7908C89.4684 12.8642 90.395 12.1132 91.5264 11.5475C92.6481 10.9817 93.9747 10.6989 95.4865 10.6989C96.4814 10.6989 97.5543 10.8842 98.7053 11.2451V3.90039H103.582V30.1384H99.0955H99.076Z" fill="white"/>
<path d="M117.282 21.253C116.755 21.2822 116.209 21.331 115.663 21.3895C115.107 21.4578 114.58 21.5456 114.083 21.6431C113.02 21.8577 112.288 22.2088 111.878 22.7258C111.469 23.2428 111.264 23.7987 111.264 24.4035C111.264 25.0082 111.488 25.5349 111.956 25.9153C112.415 26.2957 113.068 26.4811 113.917 26.4811C114.551 26.4811 115.165 26.3543 115.76 26.0909C116.355 25.8275 116.863 25.4959 117.282 25.1058V21.2432V21.253ZM117.672 30.129L117.477 28.7147C116.95 29.2999 116.277 29.7584 115.458 30.0802C114.639 30.4119 113.751 30.5777 112.776 30.5777C111.956 30.5777 111.176 30.4411 110.425 30.1583C109.674 29.8852 109.011 29.4853 108.425 28.9781C107.85 28.4709 107.382 27.8369 107.031 27.0956C106.67 26.3445 106.494 25.5057 106.494 24.5595C106.494 23.6134 106.679 22.7843 107.05 22.0625C107.421 21.3408 107.918 20.736 108.552 20.2386C109.186 19.7411 109.908 19.3314 110.727 19.0193C111.537 18.7072 112.395 18.4634 113.293 18.3073C113.927 18.1805 114.619 18.0829 115.36 18.0147C116.111 17.9464 116.736 17.8879 117.233 17.8391V17.566C117.233 16.5126 116.97 15.7713 116.424 15.3226C115.887 14.8739 115.136 14.6496 114.19 14.6496C113.634 14.6496 113.107 14.7179 112.6 14.8544C112.103 14.9812 111.654 15.147 111.254 15.3421C110.854 15.5469 110.513 15.742 110.201 15.9371C109.898 16.1322 109.654 16.3077 109.469 16.4638L107.86 13.0499C108.074 12.8646 108.386 12.6403 108.825 12.3769C109.264 12.1136 109.781 11.86 110.405 11.6064C111.02 11.3625 111.712 11.1479 112.483 10.9724C113.254 10.7968 114.092 10.7188 114.98 10.7188C116.033 10.7188 116.989 10.8553 117.857 11.1382C118.726 11.421 119.467 11.8404 120.101 12.4354C120.725 13.0207 121.223 13.7717 121.574 14.6788C121.925 15.5859 122.1 16.6784 122.1 17.9561V30.1388H117.653L117.672 30.129Z" fill="white"/>
<path d="M137.204 8.23248C137.048 8.15445 136.746 8.0374 136.287 7.90085C135.829 7.75454 135.214 7.68626 134.453 7.68626C133.771 7.68626 133.205 7.89109 132.746 8.30076C132.288 8.71042 132.064 9.37369 132.064 10.2906V11.1977H136.16V15.1285H132.103V30.1495H127.226V15.1187H124.709V11.1879H127.226V10.1638C127.226 8.93476 127.382 7.89109 127.694 7.03275C128.006 6.18416 128.445 5.48188 129.011 4.95517C129.576 4.4187 130.24 4.01879 131.001 3.77495C131.761 3.5311 132.59 3.4043 133.488 3.4043C134.668 3.4043 135.643 3.51159 136.414 3.73593C137.184 3.96027 137.643 4.10658 137.77 4.19436L137.223 8.24223L137.204 8.23248Z" fill="white"/>
<path d="M150.494 20.5692C150.494 19.7791 150.396 19.0281 150.221 18.3161C150.036 17.604 149.762 16.9895 149.392 16.4823C149.021 15.9654 148.582 15.5655 148.055 15.2631C147.529 14.9607 146.914 14.8046 146.212 14.8046C145.51 14.8046 144.885 14.9607 144.368 15.2631C143.842 15.5655 143.393 15.9654 143.022 16.4823C142.662 16.9895 142.379 17.604 142.193 18.3161C142.008 19.0281 141.92 19.7791 141.92 20.5692C141.92 21.3593 142.008 22.1493 142.193 22.8419C142.379 23.5344 142.652 24.1489 143.003 24.6756C143.354 25.2023 143.803 25.612 144.339 25.9241C144.876 26.2265 145.5 26.3825 146.212 26.3825C146.924 26.3825 147.539 26.2265 148.055 25.9241C148.582 25.6217 149.021 25.2023 149.392 24.6756C149.762 24.1489 150.036 23.5344 150.221 22.8419C150.406 22.1493 150.494 21.3885 150.494 20.5692ZM155.293 20.5887C155.293 21.8275 155.098 23.0369 154.717 24.2269C154.337 25.4169 153.781 26.4898 153.03 27.4262C152.289 28.3723 151.343 29.1331 150.201 29.7086C149.06 30.2841 147.724 30.5767 146.212 30.5767C144.7 30.5767 143.354 30.2938 142.223 29.7086C141.081 29.1331 140.135 28.3723 139.384 27.4262C138.643 26.4801 138.077 25.4169 137.697 24.2269C137.316 23.0369 137.131 21.8177 137.131 20.5887C137.131 19.3597 137.316 18.1502 137.697 16.97C138.077 15.7898 138.643 14.7364 139.384 13.8C140.135 12.8734 141.081 12.1223 142.223 11.5566C143.364 10.9909 144.69 10.708 146.212 10.708C147.734 10.708 149.06 10.9909 150.182 11.5566C151.313 12.1223 152.25 12.8636 153.01 13.8C153.771 14.7266 154.347 15.7898 154.717 16.97C155.098 18.1502 155.293 19.3597 155.293 20.5887Z" fill="white"/>
<path d="M170.433 30.1378V19.3207C170.433 17.8771 170.131 16.7652 169.526 15.9751C168.921 15.1948 168.082 14.7949 167.009 14.7949C166.249 14.7949 165.546 14.99 164.912 15.3899C164.269 15.78 163.713 16.219 163.235 16.6872V30.1378H158.358V11.1762H162.805L163.04 12.6685C163.8 12.0443 164.659 11.5566 165.615 11.2152C166.57 10.8738 167.536 10.708 168.502 10.708C169.467 10.708 170.413 10.8543 171.252 11.1567C172.091 11.4591 172.813 11.937 173.418 12.5905C174.022 13.244 174.491 14.1024 174.813 15.146C175.134 16.1995 175.3 17.4577 175.3 18.9208V30.128H170.423L170.433 30.1378Z" fill="white"/>
<path d="M190.49 18.3726C190.442 17.7191 190.295 17.1436 190.071 16.6657C189.847 16.178 189.574 15.7878 189.242 15.4854C188.91 15.1831 188.559 14.9587 188.179 14.8124C187.789 14.6661 187.408 14.5978 187.008 14.5978C186.16 14.5978 185.36 14.91 184.599 15.544C183.838 16.178 183.39 17.1143 183.253 18.3726H190.49ZM183.136 21.8743C183.243 23.4739 183.741 24.6249 184.638 25.3369C185.535 26.0392 186.686 26.4001 188.11 26.4001C188.774 26.4001 189.388 26.3415 189.964 26.2245C190.539 26.1074 191.056 25.9611 191.505 25.7661C191.954 25.5807 192.334 25.3954 192.646 25.2198C192.958 25.0345 193.192 24.8589 193.358 24.7029L194.655 28.6825C194.47 28.8093 194.177 28.9848 193.768 29.2092C193.358 29.4335 192.861 29.6384 192.256 29.8432C191.651 30.0383 190.939 30.2041 190.13 30.3504C189.32 30.4967 188.423 30.565 187.457 30.565C186.218 30.565 185.048 30.3699 183.936 29.9797C182.824 29.5798 181.848 28.9751 181.01 28.146C180.171 27.3169 179.498 26.2928 179 25.0638C178.503 23.8348 178.249 22.3619 178.249 20.655C178.249 19.0554 178.474 17.6411 178.932 16.4023C179.39 15.1733 180.024 14.1297 180.815 13.2908C181.614 12.452 182.551 11.8082 183.604 11.3595C184.667 10.9109 185.799 10.6865 187.008 10.6865C188.218 10.6865 189.33 10.8914 190.354 11.2815C191.378 11.6717 192.256 12.2862 193.007 13.1055C193.748 13.9346 194.343 14.9977 194.772 16.3145C195.211 17.6216 195.426 19.1822 195.426 20.9964V21.8645H183.116L183.136 21.8743Z" fill="white"/>
</g>
<defs>
<clipPath id="clip0_287_2960">
<rect width="194.893" height="36.3528" fill="white" transform="translate(0.549072 0.823242)"/>
</clipPath>
</defs>
</svg>
