<svg width="185" height="36" viewBox="0 0 185 36" fill="none" xmlns="http://www.w3.org/2000/svg">
<g clip-path="url(#clip0_287_2948)">
<path d="M12.1929 35.7725C12.1929 35.7725 12.145 35.7342 12.1163 35.7151C11.6855 35.1885 9.04334 31.8667 6.34372 27.6066C5.53001 26.2473 5.01306 25.1942 5.10879 24.9166C5.37684 24.2082 10.0772 23.8157 11.5228 24.4571C11.9631 24.6485 11.9536 24.907 11.9536 25.0602C11.9536 25.7112 11.9248 27.4535 11.9248 27.4535C11.9248 27.8172 12.2216 28.1044 12.5758 28.1044C12.9396 28.1044 13.2268 27.8077 13.2268 27.4439V23.0881C13.2268 22.7148 12.8151 22.619 12.7386 22.5999C11.9823 22.5999 10.4506 22.5999 8.79444 22.5999C5.15666 22.5999 4.34294 22.7531 3.72069 22.3414C2.38046 21.4894 0.188213 15.5828 0.140348 12.2609C0.0733358 7.57969 2.84954 3.52069 6.75537 1.51034C8.39237 0.687048 10.2304 0.227539 12.1833 0.227539C18.3676 0.227539 23.4604 4.89922 24.1401 10.9016C24.1401 10.9016 24.1401 10.9111 24.1401 10.9207C24.2646 12.3758 16.2615 12.6822 14.6723 12.2609C14.433 12.1939 14.366 11.945 14.366 11.8397C14.366 10.7388 14.366 7.62755 14.366 7.62755C14.366 7.26378 14.0692 6.97658 13.7054 6.97658C13.3417 6.97658 13.0545 7.27335 13.0545 7.63713V13.3618C13.0832 13.7256 13.38 13.8214 13.4661 13.8405C14.366 13.8405 16.4721 13.8405 18.4346 13.8405C21.0863 13.8405 22.1968 14.1468 22.9435 14.7117C23.4317 15.085 23.6232 15.803 23.4604 16.7412C21.9766 25.0602 12.5567 35.3609 12.2025 35.7821L12.1929 35.7725ZM50.8204 15.4201C54.5826 17.0283 56.9089 18.8185 56.9089 22.7435C56.9089 26.6685 53.8742 29.3394 49.1738 29.3394C45.3637 29.3394 42.3099 27.6162 40.7878 24.6007L40.5389 24.1125L45.0191 21.5181L45.3159 21.9968C46.321 23.6434 47.4507 24.3518 49.0877 24.3518C50.4949 24.3518 51.4426 23.7295 51.4426 22.8009C51.4426 21.767 50.7534 21.3841 48.6377 20.4555L47.5655 19.996C44.6936 18.7707 42.0323 17.0666 42.0323 12.9502C42.0323 9.24541 44.8755 6.66067 48.9345 6.66067C52.017 6.66067 54.1231 7.85731 55.5782 10.4133L55.8463 10.892L51.5097 13.6778L51.2129 13.1417C50.4853 11.8397 49.8056 11.5812 48.9345 11.5812C48.0633 11.5812 47.4411 12.0791 47.4411 12.8545C47.4411 13.7448 47.8719 14.1373 49.7482 14.951L50.83 15.4105L50.8204 15.4201ZM82.517 16.1763L85.6761 7.35951H91.104L83.0626 29.7031H81.8564L76.9741 19.2397C76.7444 18.7611 76.5146 18.1676 76.3136 17.6219C76.103 18.1676 75.8637 18.7611 75.6435 19.2493L70.5793 29.7127H69.3827L61.2072 7.35951H66.999L70.1964 16.1763C70.3974 16.7412 70.608 17.4208 70.7899 18.0622C71.0101 17.4017 71.2686 16.6933 71.5366 16.1285L75.7296 7.17762H76.888L81.148 16.1285C81.4161 16.7029 81.6841 17.4113 81.8947 18.0622C82.0766 17.4208 82.2872 16.7412 82.4883 16.1763H82.517ZM97.4319 29.0618V6.9H102.908V29.0618H97.4319ZM120.867 21.6139V16.6646H131.033V26.5919L130.823 26.7642C129.655 27.7215 126.572 29.3394 122.399 29.3394C115.353 29.3394 110.432 24.6677 110.432 17.9857C110.432 11.3036 115.18 6.66067 121.719 6.66067C125.318 6.66067 127.951 7.67542 129.779 9.76236L130.134 10.174L126.4 13.8692L125.998 13.448C124.955 12.3758 123.873 11.7057 121.719 11.7057C118.368 11.7057 116.023 14.2904 116.023 17.9857C116.023 21.6809 118.521 24.3326 122.389 24.3326C123.672 24.3326 125.012 24.1125 125.921 23.7582V21.6234H120.857L120.867 21.6139ZM148.619 21.6139V16.6646H158.786V26.5919L158.575 26.7642C157.407 27.7215 154.325 29.3394 150.151 29.3394C143.105 29.3394 138.185 24.6677 138.185 17.9857C138.185 11.3036 142.933 6.66067 149.471 6.66067C153.071 6.66067 155.703 7.67542 157.532 9.76236L157.886 10.174L154.153 13.8692L153.75 13.448C152.707 12.3758 151.625 11.7057 149.471 11.7057C146.121 11.7057 143.785 14.2904 143.785 17.9857C143.785 21.6809 146.283 24.3326 150.161 24.3326C151.443 24.3326 152.784 24.1125 153.693 23.7582V21.6234H148.629L148.619 21.6139ZM178.851 6.9H184.576L176.716 21.6426V29.0618H171.212V21.9585L162.845 6.9H168.953L172.82 13.965C173.232 14.7308 173.672 15.7456 173.998 16.5784C174.314 15.7647 174.725 14.7499 175.137 13.9745L178.851 6.9Z" fill="white"/>
</g>
<defs>
<clipPath id="clip0_287_2948">
<rect width="184.436" height="35.545" fill="white" transform="translate(0.13916 0.227539)"/>
</clipPath>
</defs>
</svg>
