<svg width="148" height="27" viewBox="0 0 148 27" fill="none" xmlns="http://www.w3.org/2000/svg">
<g clip-path="url(#clip0_50_1292)">
<path d="M19.993 1.77486C19.7029 1.5193 19.3161 1.40879 18.9362 1.46404L17.32 1.69888V1.3259C17.32 0.517776 16.6085 -0.103861 15.8073 0.00665246L2.00009 1.94754C1.34392 2.03733 0.853516 2.60371 0.853516 3.26679V23.1799C0.853516 23.8499 1.35082 24.4162 2.02081 24.4991L15.828 26.1983C16.6224 26.295 17.32 25.6802 17.32 24.879V24.43L18.9708 24.6234C19.0191 24.6234 19.0744 24.6304 19.1227 24.6304C19.4473 24.6304 19.7651 24.5129 20.0068 24.2919C20.29 24.0432 20.4489 23.6772 20.4489 23.2973V2.78329C20.4489 2.3965 20.2831 2.03042 19.9861 1.77486H19.993ZM18.7912 22.9243L17.32 22.7516V3.3773L18.7912 3.16318V22.9243Z" fill="#1D1F25"/>
<path d="M43.8163 4.26147H39.9829L33.4073 11.6106V4.26147H30.3613V21.9436H33.4073V15.8792L35.963 13.0265L40.6598 21.9436H44.0788L38.0834 10.685L43.8163 4.26147Z" fill="#1D1F25"/>
<path d="M52.4567 8.70963C51.4759 8.70963 50.6263 8.91684 49.9011 9.33126C49.1758 9.74569 48.6302 10.2844 48.2641 10.9544V4.26147H45.377V21.9436H48.2641V14.4494C48.2641 13.4479 48.5749 12.6397 49.1966 12.0388C49.8182 11.4379 50.5573 11.134 51.4206 11.134C52.3324 11.134 53.0507 11.4034 53.5756 11.9352C54.1006 12.4671 54.3631 13.213 54.3631 14.1662V21.9505H57.2502V13.7863C57.2502 12.1424 56.8082 10.8854 55.9171 10.022C55.0261 9.15859 53.8726 8.72344 52.4498 8.72344L52.4567 8.70963Z" fill="#1D1F25"/>
<path d="M64.5363 8.70937C63.0513 8.70937 61.8563 9.06163 60.9653 9.76615C60.0743 10.4707 59.5563 11.3893 59.4043 12.5221L61.9599 12.7776C62.1602 11.5965 63.0167 11.0025 64.5363 11.0025C65.3651 11.0025 66.0006 11.2235 66.4495 11.6656C66.8916 12.1076 67.1126 12.7155 67.1126 13.4752V14.1038L63.4519 14.311C62.0083 14.387 60.8893 14.7669 60.1019 15.4576C59.3145 16.1483 58.9277 17.0669 58.9277 18.2204C58.9277 19.3739 59.3283 20.3409 60.1227 21.0592C60.917 21.7775 61.9323 22.1298 63.1687 22.1298C65.1165 22.1298 66.4633 21.3977 67.2162 19.9334V21.9295H69.9929V13.4683C69.9929 11.9212 69.5232 10.74 68.5838 9.92501C67.6445 9.10998 66.2976 8.69556 64.5432 8.69556L64.5363 8.70937ZM67.1126 17.0186C67.1126 17.4675 67.0159 17.8751 66.8225 18.2342C66.6291 18.5934 66.3736 18.8766 66.0627 19.0838C65.7519 19.291 65.4135 19.4499 65.0543 19.5604C64.6951 19.664 64.3152 19.7192 63.9354 19.7192C63.2999 19.7192 62.7888 19.5811 62.402 19.2979C62.0083 19.0216 61.8149 18.6279 61.8149 18.1237C61.8149 17.0324 62.5125 16.4453 63.9077 16.3693L67.1126 16.169V17.0048V17.0186Z" fill="#1D1F25"/>
<path d="M76.2729 17.3157V11.2375H79.6297V8.90981H76.2729V5.22144H73.3995V7.34191C73.3995 8.38487 72.8746 8.90981 71.8316 8.90981H71.1133V11.2375H73.3926V17.5298C73.3926 19.0425 73.738 20.1891 74.4218 20.9696C75.1056 21.75 76.0864 22.1438 77.3504 22.1438C78.3588 22.1438 79.1531 22.0471 79.7333 21.8467V19.2221C79.3327 19.3671 78.7939 19.4431 78.117 19.4431C76.8807 19.4431 76.266 18.7386 76.266 17.3226L76.2729 17.3157Z" fill="#1D1F25"/>
<path d="M86.0871 8.70937C84.602 8.70937 83.4071 9.06163 82.5161 9.76615C81.6251 10.4707 81.1071 11.3893 80.9551 12.5221L83.5107 12.7776C83.711 11.5965 84.5675 11.0025 86.0871 11.0025C86.9159 11.0025 87.5514 11.2235 88.0003 11.6656C88.4493 12.1076 88.6634 12.7155 88.6634 13.4752V14.1038L85.0026 14.311C83.5591 14.387 82.4401 14.7669 81.6527 15.4576C80.8653 16.1483 80.4785 17.0669 80.4785 18.2204C80.4785 19.3739 80.8791 20.3409 81.6734 21.0592C82.4678 21.7775 83.4831 22.1298 84.7195 22.1298C86.6672 22.1298 88.0141 21.3977 88.767 19.9334V21.9295H91.5436V13.4683C91.5436 11.9212 91.074 10.74 90.1346 9.92501C89.1952 9.10998 87.8484 8.69556 86.094 8.69556L86.0871 8.70937ZM88.6634 17.0186C88.6634 17.4675 88.5667 17.8751 88.3733 18.2342C88.1799 18.5934 87.9243 18.8766 87.6135 19.0838C87.3027 19.291 86.9643 19.4499 86.6051 19.5604C86.2459 19.664 85.866 19.7192 85.4861 19.7192C84.8507 19.7192 84.3396 19.5811 83.9528 19.2979C83.5591 19.0216 83.3657 18.6279 83.3657 18.1237C83.3657 17.0324 84.0633 16.4453 85.4585 16.3693L88.6634 16.169V17.0048V17.0186Z" fill="#1D1F25"/>
<path d="M104.928 10.4157C104.41 9.86311 103.816 9.44177 103.146 9.15168C102.476 8.86158 101.765 8.71653 101.005 8.71653C100.114 8.71653 99.3197 8.89612 98.6221 9.26219C97.9176 9.62136 97.3927 10.1187 97.0473 10.7403V4.26147H94.1602V21.9436H96.923V20.0165C97.738 21.4324 99.0573 22.137 100.881 22.137C101.661 22.137 102.4 21.9919 103.091 21.7018C103.782 21.4117 104.39 20.9904 104.914 20.4378C105.439 19.8853 105.854 19.1807 106.158 18.3243C106.462 17.4678 106.614 16.5008 106.614 15.4302C106.614 14.3596 106.462 13.3926 106.158 12.5292C105.854 11.6659 105.439 10.9613 104.921 10.4088L104.928 10.4157ZM102.794 18.5729C102.159 19.312 101.35 19.678 100.349 19.678C99.3474 19.678 98.5047 19.312 97.8693 18.5798C97.2338 17.8477 96.923 16.7978 96.923 15.4371C96.923 14.0764 97.2407 13.0265 97.8693 12.2944C98.5047 11.5622 99.3266 11.1962 100.349 11.1962C101.371 11.1962 102.159 11.5622 102.794 12.3013C103.429 13.0404 103.74 14.0833 103.74 15.4371C103.74 16.7909 103.423 17.8408 102.794 18.5729Z" fill="#1D1F25"/>
<path d="M118.414 10.4776C117.841 9.91814 117.171 9.48299 116.404 9.17908C115.638 8.86826 114.809 8.71631 113.918 8.71631C113.027 8.71631 112.212 8.86826 111.445 9.17908C110.678 9.4899 110.001 9.91814 109.428 10.4776C108.855 11.0371 108.399 11.7416 108.074 12.5981C107.743 13.4546 107.584 14.4008 107.584 15.4369C107.584 16.4729 107.75 17.4192 108.074 18.2688C108.406 19.1184 108.855 19.8298 109.428 20.3893C110.001 20.9487 110.678 21.3839 111.445 21.6878C112.212 21.9917 113.041 22.1437 113.918 22.1437C114.795 22.1437 115.631 21.9917 116.404 21.6878C117.178 21.3839 117.841 20.9487 118.414 20.3893C118.988 19.8229 119.437 19.1184 119.761 18.2688C120.093 17.4192 120.252 16.4729 120.252 15.4369C120.252 14.4008 120.086 13.4546 119.761 12.5981C119.43 11.7416 118.981 11.0371 118.414 10.4776ZM116.404 18.5727C115.748 19.3118 114.919 19.6778 113.918 19.6778C112.916 19.6778 112.087 19.3118 111.438 18.5727C110.789 17.8336 110.464 16.7907 110.464 15.4369C110.464 14.0831 110.789 13.0332 111.438 12.3011C112.087 11.5689 112.916 11.1959 113.918 11.1959C114.919 11.1959 115.748 11.562 116.404 12.3011C117.06 13.0401 117.385 14.0831 117.385 15.4369C117.385 16.7907 117.06 17.8405 116.404 18.5727Z" fill="#1D1F25"/>
<path d="M132.045 10.4776C131.472 9.91814 130.802 9.48299 130.035 9.17908C129.268 8.86826 128.44 8.71631 127.549 8.71631C126.658 8.71631 125.843 8.86826 125.076 9.17908C124.309 9.4899 123.632 9.91814 123.059 10.4776C122.486 11.0371 122.03 11.7416 121.705 12.5981C121.374 13.4546 121.215 14.4008 121.215 15.4369C121.215 16.4729 121.381 17.4192 121.705 18.2688C122.037 19.1184 122.486 19.8298 123.059 20.3893C123.632 20.9556 124.309 21.3839 125.076 21.6878C125.843 21.9917 126.671 22.1437 127.549 22.1437C128.426 22.1437 129.262 21.9917 130.035 21.6878C130.809 21.3839 131.472 20.9487 132.045 20.3893C132.618 19.8298 133.067 19.1184 133.392 18.2688C133.724 17.4192 133.882 16.4729 133.882 15.4369C133.882 14.4008 133.717 13.4546 133.392 12.5981C133.06 11.7416 132.612 11.0371 132.045 10.4776ZM130.035 18.5727C129.379 19.3118 128.55 19.6778 127.549 19.6778C126.547 19.6778 125.718 19.3118 125.069 18.5727C124.42 17.8336 124.095 16.7907 124.095 15.4369C124.095 14.0831 124.42 13.0332 125.069 12.3011C125.718 11.5689 126.547 11.1959 127.549 11.1959C128.55 11.1959 129.379 11.562 130.035 12.3011C130.691 13.0401 131.016 14.0831 131.016 15.4369C131.016 16.7907 130.691 17.8405 130.035 18.5727Z" fill="#1D1F25"/>
<path d="M142.096 13.5584L146.537 8.90993H142.946L138.387 13.7311V4.26147H135.5V21.9436H138.387V17.4402L140.148 15.5822L144.217 21.9436H147.449L142.096 13.5584Z" fill="#1D1F25"/>
</g>
<defs>
<clipPath id="clip0_50_1292">
<rect width="146.596" height="26.2054" fill="white" transform="translate(0.853516)"/>
</clipPath>
</defs>
</svg>
