<svg width="139" height="26" viewBox="0 0 139 26" fill="none" xmlns="http://www.w3.org/2000/svg">
<g clip-path="url(#clip0_50_1273)">
<path d="M18.5651 1.24286C16.2305 1.73326 14.3794 3.90898 14.3863 6.37481C14.3863 6.45769 14.3932 6.54748 14.4002 6.58202C18.3165 7.53519 20.0985 9.90432 20.1123 13.1714C20.1192 16.4453 17.536 20.0301 13.1707 20.0439C9.63427 20.0577 5.95281 17.0393 5.93899 12.1906C5.92518 8.98568 7.65885 5.89822 9.86911 4.06785C12.0241 2.28582 14.9803 1.13925 17.6603 1.12543C17.978 1.12543 18.3026 1.15306 18.5237 1.21523C16.866 0.441635 15.0287 -0.00732422 13.074 -0.00732422C5.95971 -0.000417151 0.199219 5.76008 0.199219 12.8744C0.199219 19.9886 5.95971 25.7491 13.074 25.7491C20.1883 25.7491 25.9419 19.9886 25.9419 12.8744C25.9419 7.7355 22.9235 3.30807 18.5651 1.24286Z" fill="#1D1F25"/>
<path d="M18.588 1.23701C18.588 1.23701 18.545 1.22266 18.5234 1.22266C18.5378 1.22983 18.5522 1.23701 18.5665 1.24419C18.5665 1.24419 18.5809 1.24419 18.588 1.24419V1.23701Z" fill="#1D1F25"/>
<path d="M37.6566 20.7625L32.0273 7.33521H35.7019L39.2107 16.2522L42.609 7.33521H46.1178L40.6543 20.7625H37.6428H37.6566Z" fill="#1D1F25"/>
<path d="M55.9139 13.9799C55.9139 13.4204 55.8517 12.8886 55.7205 12.3843C55.5892 11.8801 55.3958 11.445 55.1334 11.0858C54.8709 10.7197 54.5601 10.4365 54.1871 10.2224C53.8141 10.0083 53.379 9.89779 52.8817 9.89779C52.3843 9.89779 51.9423 10.0083 51.5762 10.2224C51.2032 10.4365 50.8855 10.7197 50.63 11.0858C50.3675 11.445 50.1741 11.8801 50.0429 12.3843C49.9116 12.8886 49.8494 13.4204 49.8494 13.9799C49.8494 14.5393 49.9116 15.0988 50.0429 15.5892C50.1741 16.0796 50.3606 16.5148 50.6092 16.8877C50.8579 17.2607 51.1756 17.5508 51.5624 17.7719C51.9423 17.986 52.3843 18.0965 52.8817 18.0965C53.379 18.0965 53.821 17.986 54.1871 17.7719C54.5601 17.5577 54.8709 17.2607 55.1334 16.8877C55.3958 16.5148 55.5892 16.0796 55.7205 15.5892C55.8517 15.0988 55.9139 14.5601 55.9139 13.9799ZM59.3121 13.9937C59.3121 14.8709 59.174 15.7274 58.9115 16.57C58.6421 17.4127 58.2415 18.1725 57.7097 18.8355C57.1848 19.5055 56.5148 20.0443 55.7066 20.4518C54.8985 20.8593 53.9522 21.0665 52.8817 21.0665C51.8111 21.0665 50.8579 20.8662 50.0567 20.4518C49.2485 20.0443 48.5785 19.5055 48.0467 18.8355C47.5218 18.1656 47.1212 17.4127 46.8518 16.57C46.5824 15.7274 46.4512 14.864 46.4512 13.9937C46.4512 13.1234 46.5893 12.2669 46.8518 11.4312C47.1212 10.5954 47.5218 9.84945 48.0467 9.18637C48.5785 8.5302 49.2485 7.99835 50.0567 7.59774C50.8648 7.19713 51.8041 6.99683 52.8817 6.99683C53.9592 6.99683 54.8985 7.19713 55.6928 7.59774C56.494 7.99835 57.1571 8.52329 57.6959 9.18637C58.2346 9.84254 58.6421 10.5954 58.9115 11.4312C59.1809 12.2669 59.3121 13.1234 59.3121 13.9937Z" fill="#1D1F25"/>
<path d="M69.6914 10.2918C69.0283 10.0293 68.4067 9.89806 67.8334 9.89806C67.2601 9.89806 66.7352 10.0155 66.3138 10.2365C65.8856 10.4575 65.5333 10.7614 65.257 11.1413C64.9808 11.5212 64.7735 11.9495 64.6354 12.433C64.4973 12.9095 64.4282 13.3999 64.4282 13.8973C64.4282 14.4567 64.4904 14.9886 64.6078 15.5066C64.7252 16.0177 64.9117 16.4667 65.1603 16.8466C65.409 17.2265 65.7198 17.5373 66.0997 17.7721C66.4796 18 66.9286 18.1175 67.4466 18.1175C67.8748 18.1175 68.3031 18 68.7451 17.7721C69.1872 17.5373 69.5049 17.261 69.6914 16.9502V10.2918ZM69.9677 20.7629L69.8295 19.7337C69.5118 20.086 69.0974 20.3968 68.5793 20.6662C68.0613 20.9356 67.4535 21.0737 66.749 21.0737C65.8234 21.0737 65.0084 20.8803 64.3108 20.4866C63.6063 20.0998 63.0122 19.5749 62.5357 18.9256C62.0522 18.2763 61.6861 17.5235 61.4374 16.667C61.1888 15.8174 61.0645 14.9195 61.0645 13.9939C61.0645 13.1237 61.1957 12.2672 61.4512 11.4314C61.7137 10.5957 62.1005 9.84971 62.6324 9.18663C63.1642 8.53046 63.8204 7.99861 64.6216 7.598C65.4159 7.19739 66.3553 6.99709 67.4259 6.99709C68.1304 6.99709 68.8902 7.12832 69.7052 7.38388V2.18286H73.1587V20.7629H69.9815H69.9677Z" fill="#1D1F25"/>
<path d="M82.8638 14.4701C82.4908 14.4909 82.104 14.5254 81.7172 14.5668C81.3235 14.6152 80.9506 14.6773 80.5983 14.7464C79.8454 14.8984 79.3274 15.147 79.0373 15.5131C78.7472 15.8792 78.6022 16.2729 78.6022 16.7011C78.6022 17.1294 78.761 17.5023 79.0926 17.7717C79.4172 18.0411 79.88 18.1723 80.4809 18.1723C80.9298 18.1723 81.365 18.0825 81.7863 17.896C82.2077 17.7095 82.5668 17.4747 82.8638 17.1984V14.4632V14.4701ZM83.1401 20.7556L83.002 19.754C82.629 20.1685 82.1524 20.4931 81.5722 20.721C80.992 20.9559 80.3635 21.0733 79.6728 21.0733C79.0926 21.0733 78.54 20.9766 78.0082 20.7763C77.4763 20.5829 77.0066 20.2997 76.5922 19.9405C76.1847 19.5814 75.8531 19.1324 75.6045 18.6075C75.3489 18.0756 75.2246 17.4816 75.2246 16.8116C75.2246 16.1416 75.3558 15.5545 75.6183 15.0434C75.8808 14.5323 76.233 14.1041 76.682 13.7518C77.131 13.3995 77.6421 13.1094 78.2223 12.8884C78.7956 12.6674 79.4034 12.4947 80.0388 12.3842C80.4878 12.2944 80.9782 12.2253 81.5031 12.177C82.035 12.1286 82.477 12.0872 82.8293 12.0527V11.8593C82.8293 11.1133 82.6428 10.5884 82.256 10.2706C81.8761 9.95291 81.3443 9.79405 80.6743 9.79405C80.2806 9.79405 79.9076 9.8424 79.5484 9.9391C79.1962 10.0289 78.8784 10.1463 78.5953 10.2844C78.3121 10.4295 78.0703 10.5676 77.8493 10.7058C77.6352 10.8439 77.4625 10.9682 77.3313 11.0788L76.1916 8.66129C76.3436 8.53005 76.5646 8.37119 76.8754 8.1847C77.1862 7.99821 77.5523 7.81863 77.9943 7.63904C78.4295 7.46637 78.9199 7.31441 79.4655 7.19008C80.0112 7.06575 80.6052 7.0105 81.2338 7.0105C81.9797 7.0105 82.6566 7.1072 83.2713 7.3075C83.8861 7.50781 84.411 7.80481 84.86 8.22614C85.302 8.64057 85.6543 9.17241 85.9029 9.81477C86.1516 10.4571 86.2759 11.2307 86.2759 12.1355V20.7625H83.1263L83.1401 20.7556Z" fill="#1D1F25"/>
<path d="M96.9671 5.24932C96.8566 5.19406 96.6425 5.11118 96.3178 5.01448C95.9932 4.91087 95.5581 4.86252 95.0193 4.86252C94.5358 4.86252 94.1352 5.00757 93.8106 5.29767C93.4859 5.58777 93.3271 6.05745 93.3271 6.70671V7.34907H96.228V10.1326H93.3547V20.7695H89.9012V10.1257H88.1191V7.34216H89.9012V6.61692C89.9012 5.74663 90.0117 5.00757 90.2327 4.39975C90.4537 3.79884 90.7645 3.30153 91.1652 2.92855C91.5658 2.54866 92.0355 2.26547 92.5742 2.09279C93.113 1.92011 93.7 1.83032 94.3355 1.83032C95.1713 1.83032 95.862 1.9063 96.4076 2.06516C96.9533 2.22403 97.2779 2.32763 97.3677 2.38979L96.9809 5.25623L96.9671 5.24932Z" fill="#1D1F25"/>
<path d="M106.383 13.9799C106.383 13.4204 106.314 12.8886 106.189 12.3843C106.058 11.8801 105.865 11.445 105.602 11.0858C105.34 10.7197 105.029 10.4365 104.656 10.2224C104.283 10.0083 103.848 9.89779 103.35 9.89779C102.853 9.89779 102.411 10.0083 102.045 10.2224C101.672 10.4365 101.354 10.7197 101.092 11.0858C100.836 11.445 100.636 11.8801 100.505 12.3843C100.373 12.8886 100.311 13.4204 100.311 13.9799C100.311 14.5393 100.373 15.0988 100.505 15.5892C100.636 16.0796 100.829 16.5148 101.078 16.8877C101.327 17.2607 101.644 17.5508 102.024 17.7719C102.404 17.986 102.846 18.0965 103.35 18.0965C103.855 18.0965 104.29 17.986 104.656 17.7719C105.029 17.5577 105.34 17.2607 105.602 16.8877C105.865 16.5148 106.058 16.0796 106.189 15.5892C106.32 15.0988 106.383 14.5601 106.383 13.9799ZM109.781 13.9937C109.781 14.8709 109.643 15.7274 109.373 16.57C109.104 17.4127 108.71 18.1725 108.178 18.8355C107.654 19.5055 106.984 20.0443 106.175 20.4518C105.367 20.8593 104.421 21.0665 103.35 21.0665C102.28 21.0665 101.327 20.8662 100.525 20.4518C99.7173 20.0443 99.0473 19.5055 98.5155 18.8355C97.9905 18.1656 97.5899 17.4127 97.3205 16.57C97.0512 15.7274 96.9199 14.864 96.9199 13.9937C96.9199 13.1234 97.0512 12.2669 97.3205 11.4312C97.5899 10.5954 97.9905 9.84945 98.5155 9.18637C99.0473 8.5302 99.7173 7.99835 100.525 7.59774C101.334 7.19713 102.273 6.99683 103.35 6.99683C104.428 6.99683 105.367 7.19713 106.162 7.59774C106.963 7.99835 107.626 8.52329 108.165 9.18637C108.703 9.84254 109.111 10.5954 109.373 11.4312C109.643 12.2669 109.781 13.1234 109.781 13.9937Z" fill="#1D1F25"/>
<path d="M120.5 20.7625V13.1026C120.5 12.0804 120.286 11.293 119.858 10.7335C119.43 10.1809 118.836 9.89772 118.076 9.89772C117.537 9.89772 117.04 10.0359 116.591 10.3191C116.135 10.5953 115.741 10.9062 115.403 11.2377V20.7625H111.949V7.3352H115.099L115.265 8.39198C115.803 7.94993 116.411 7.60458 117.088 7.36283C117.765 7.12108 118.449 7.00366 119.133 7.00366C119.816 7.00366 120.486 7.10727 121.08 7.32139C121.674 7.53551 122.185 7.87395 122.614 8.33673C123.042 8.7995 123.374 9.40732 123.601 10.1464C123.829 10.8923 123.947 11.7834 123.947 12.8194V20.7556H120.493L120.5 20.7625Z" fill="#1D1F25"/>
<path d="M134.702 12.4323C134.667 11.9695 134.563 11.562 134.405 11.2235C134.246 10.8782 134.052 10.6019 133.817 10.3878C133.583 10.1737 133.334 10.0148 133.065 9.91119C132.788 9.80759 132.519 9.75924 132.236 9.75924C131.635 9.75924 131.068 9.98026 130.53 10.4292C129.991 10.8782 129.673 11.5413 129.577 12.4323H134.702ZM129.494 14.9119C129.57 16.0447 129.922 16.8597 130.557 17.3639C131.193 17.8612 132.008 18.1168 133.016 18.1168C133.486 18.1168 133.921 18.0753 134.329 17.9925C134.736 17.9096 135.102 17.806 135.42 17.6678C135.738 17.5366 136.007 17.4054 136.228 17.281C136.449 17.1498 136.615 17.0255 136.732 16.915L137.651 19.733C137.52 19.8228 137.312 19.9472 137.022 20.106C136.732 20.2649 136.38 20.4099 135.952 20.555C135.524 20.6931 135.019 20.8105 134.446 20.9142C133.873 21.0178 133.237 21.0661 132.553 21.0661C131.676 21.0661 130.847 20.928 130.06 20.6517C129.273 20.3685 128.582 19.9403 127.988 19.3532C127.394 18.7661 126.917 18.0408 126.565 17.1705C126.213 16.3002 126.033 15.2573 126.033 14.0485C126.033 12.9158 126.192 11.9142 126.517 11.037C126.841 10.1668 127.29 9.4277 127.85 8.83369C128.416 8.23968 129.079 7.78382 129.825 7.46609C130.578 7.14836 131.379 6.9895 132.236 6.9895C133.092 6.9895 133.88 7.13455 134.605 7.41083C135.33 7.68712 135.952 8.12226 136.484 8.70246C137.009 9.28956 137.43 10.0424 137.734 10.9749C138.045 11.9004 138.197 13.0056 138.197 14.2903V14.905H129.48L129.494 14.9119Z" fill="#1D1F25"/>
</g>
<defs>
<clipPath id="clip0_50_1273">
<rect width="138.01" height="25.7426" fill="white" transform="translate(0.199219)"/>
</clipPath>
</defs>
</svg>
