<svg width="102" height="26" viewBox="0 0 102 26" fill="none" xmlns="http://www.w3.org/2000/svg">
<g clip-path="url(#clip0_50_1311)">
<path fill-rule="evenodd" clip-rule="evenodd" d="M0.811523 21.8675H12.0217V18.186H4.86597V4.15088H0.811523V21.8675Z" fill="#1D1F25"/>
<path fill-rule="evenodd" clip-rule="evenodd" d="M17.6917 21.8679V9.66307H13.6373V21.8679H17.6917ZM15.661 7.99847C17.077 7.99847 17.9542 7.05911 17.9542 5.89181C17.9265 4.69689 17.077 3.78516 15.6887 3.78516C14.3003 3.78516 13.3955 4.69689 13.3955 5.89181C13.3955 7.08673 14.2727 7.99847 15.6403 7.99847H15.6679H15.661Z" fill="#1D1F25"/>
<path fill-rule="evenodd" clip-rule="evenodd" d="M19.5752 21.8679H23.6296V15.0507C23.6296 14.6846 23.6573 14.3185 23.7609 14.0629C24.051 13.3377 24.721 12.5779 25.8399 12.5779C27.3111 12.5779 27.8982 13.6969 27.8982 15.3338V21.861H31.9527V14.8642C31.9527 11.1136 29.9496 9.37305 27.2835 9.37305C25.0939 9.37305 24.1339 10.5956 23.602 11.4314H23.6296V9.66314H19.5752C19.6305 10.8097 19.5752 21.8679 19.5752 21.8679Z" fill="#1D1F25"/>
<path fill-rule="evenodd" clip-rule="evenodd" d="M37.6785 4.15088H33.624V21.8675H37.6785V17.9098L38.6938 16.632L41.8711 21.8675H46.858L41.5188 14.2905L46.188 9.13778H41.3047C41.3047 9.13778 37.9686 13.7517 37.6785 14.2974V4.15088Z" fill="#1D1F25"/>
<path fill-rule="evenodd" clip-rule="evenodd" d="M57.7045 16.7772C57.7598 16.4664 57.8358 15.8655 57.8358 15.1817C57.8358 12.0251 56.2333 8.82715 52.02 8.82715C47.5097 8.82715 45.4307 12.3912 45.4307 15.6306C45.4307 19.6298 47.9656 22.1302 52.393 22.1302C54.1543 22.1302 55.7844 21.8677 57.1174 21.322L56.5856 18.6421C55.4943 19.0082 54.3684 19.1878 52.9801 19.1878C51.0876 19.1878 49.4299 18.4073 49.2986 16.7496L57.7045 16.7772ZM49.271 14.0351C49.3746 12.9921 50.0722 11.4587 51.8059 11.4587C53.6501 11.4587 54.0714 13.1026 54.0714 14.0351H49.271Z" fill="#1D1F25"/>
<path fill-rule="evenodd" clip-rule="evenodd" d="M67.8513 4.15088V10.2844H67.796C67.2089 9.42788 65.9794 8.85459 64.3563 8.85459C61.2343 8.85459 58.4853 11.355 58.5129 15.6235C58.5129 19.5813 60.9925 22.1576 64.0869 22.1576C65.7653 22.1576 67.3678 21.4255 68.169 20.0233H68.2519L68.4107 21.8744H72.0162C71.961 21.0179 71.9057 19.5329 71.9057 18.0755V4.15088H67.8513ZM67.8513 16.2175C67.8513 16.5283 67.8236 16.8392 67.7684 17.1016C67.5266 18.2206 66.5665 19.0011 65.3923 19.0011C63.7139 19.0011 62.6157 17.6473 62.6157 15.513C62.6157 13.51 63.5482 11.8937 65.42 11.8937C66.6771 11.8937 67.5543 12.7502 67.796 13.8208C67.8513 14.0556 67.8513 14.3181 67.8513 14.5529V16.2175Z" fill="#1D1F25"/>
<path d="M99.3265 0H77.7419C76.7059 0 75.8701 0.815034 75.8701 1.82347V23.6567C75.8701 24.6651 76.7059 25.4802 77.7419 25.4802H99.3265C100.363 25.4802 101.198 24.6651 101.198 23.6567V1.82347C101.198 0.815034 100.363 0 99.3265 0ZM83.2469 21.854H79.1924V9.64917H83.2469V21.854ZM81.2162 7.98457H81.1886C79.8279 7.98457 78.9507 7.04521 78.9507 5.87792C78.9507 4.71062 79.8555 3.77126 81.2438 3.77126C82.6321 3.77126 83.4886 4.68299 83.5093 5.87792C83.5093 7.05212 82.6321 7.98457 81.2162 7.98457ZM97.8691 21.854H93.8147V15.3268C93.8147 13.6829 93.2276 12.564 91.7633 12.564C90.6443 12.564 89.9744 13.3168 89.6843 14.049C89.5737 14.3114 89.553 14.6775 89.553 15.0367V21.854H85.4986C85.4986 21.854 85.5538 10.7957 85.4986 9.64917H89.553V11.3759C90.0918 10.5471 91.0519 9.35908 93.2069 9.35908C95.873 9.35908 97.876 11.1066 97.876 14.8502V21.8471L97.8691 21.854Z" fill="#1D1F25"/>
</g>
<defs>
<clipPath id="clip0_50_1311">
<rect width="100.387" height="25.4871" fill="white" transform="translate(0.811523)"/>
</clipPath>
</defs>
</svg>
