<svg width="147" height="38" viewBox="0 0 147 38" fill="none" xmlns="http://www.w3.org/2000/svg">
<g clip-path="url(#clip0_287_2951)">
<path fill-rule="evenodd" clip-rule="evenodd" d="M0.574707 32.2756H16.8756V26.9224H6.47033V6.51367H0.574707V32.2756Z" fill="white"/>
<path fill-rule="evenodd" clip-rule="evenodd" d="M25.1232 32.2621V14.5149H19.2276V32.2621H25.1232ZM22.1704 12.0944C24.2293 12.0944 25.5048 10.7285 25.5048 9.03109C25.4647 7.29353 24.2293 5.96777 22.2105 5.96777C20.1918 5.96777 18.876 7.29353 18.876 9.03109C18.876 10.7686 20.1516 12.0944 22.1402 12.0944H22.1804H22.1704Z" fill="white"/>
<path fill-rule="evenodd" clip-rule="evenodd" d="M27.862 32.2705H33.7576V22.3574C33.7576 21.8251 33.7978 21.2928 33.9485 20.9212C34.3703 19.8666 35.3445 18.7618 36.9716 18.7618C39.1109 18.7618 39.9646 20.3889 39.9646 22.7692V32.2605H45.8602V22.0863C45.8602 16.6326 42.9476 14.1016 39.0707 14.1016C35.8869 14.1016 34.4908 15.8793 33.7174 17.0946H33.7576V14.5234H27.862C27.9423 16.1906 27.862 32.2705 27.862 32.2705Z" fill="white"/>
<path fill-rule="evenodd" clip-rule="evenodd" d="M54.1833 6.51367H48.2877V32.2756H54.1833V26.5206L55.6598 24.6625L60.2798 32.2756H67.5314L59.7676 21.2578L66.5571 13.7652H59.4563C59.4563 13.7652 54.6052 20.4743 54.1833 21.2678V6.51367Z" fill="white"/>
<path fill-rule="evenodd" clip-rule="evenodd" d="M83.3006 24.8669C83.381 24.4149 83.4915 23.5411 83.4915 22.5468C83.4915 17.9569 81.1613 13.3066 75.0347 13.3066C68.4762 13.3066 65.4531 18.4892 65.4531 23.1996C65.4531 29.0149 69.1391 32.6507 75.5771 32.6507C78.1382 32.6507 80.5085 32.2691 82.4469 31.4756L81.6736 27.5787C80.0867 28.111 78.4495 28.3721 76.4308 28.3721C73.6788 28.3721 71.2683 27.2372 71.0775 24.8267L83.3006 24.8669ZM71.0373 20.8796C71.188 19.363 72.2024 17.1333 74.7234 17.1333C77.405 17.1333 78.0177 19.5237 78.0177 20.8796H71.0373Z" fill="white"/>
<path fill-rule="evenodd" clip-rule="evenodd" d="M98.0608 6.51367V15.4324H97.9805C97.1268 14.187 95.339 13.3534 92.9787 13.3534C88.439 13.3534 84.4416 16.9892 84.4818 23.1962C84.4818 28.9512 88.0875 32.6975 92.587 32.6975C95.0276 32.6975 97.3578 31.6328 98.5228 29.594H98.6434L98.8744 32.2857H104.117C104.037 31.0403 103.956 28.8809 103.956 26.7617V6.51367H98.0608ZM98.0608 24.0599C98.0608 24.5119 98.0206 24.9639 97.9403 25.3455C97.5888 26.9726 96.1927 28.1075 94.4853 28.1075C92.0447 28.1075 90.4477 26.139 90.4477 23.0355C90.4477 20.1228 91.8036 17.7726 94.5255 17.7726C96.3534 17.7726 97.6289 19.018 97.9805 20.5748C98.0608 20.9163 98.0608 21.2979 98.0608 21.6394V24.0599Z" fill="white"/>
<path d="M143.832 0.469727H112.446C110.939 0.469727 109.724 1.65488 109.724 3.12125V34.8692C109.724 36.3356 110.939 37.5208 112.446 37.5208H143.832C145.339 37.5208 146.554 36.3356 146.554 34.8692V3.12125C146.554 1.65488 145.339 0.469727 143.832 0.469727ZM120.451 32.2478H114.555V14.5007H120.451V32.2478ZM117.498 12.0802H117.458C115.479 12.0802 114.203 10.7143 114.203 9.01687C114.203 7.3195 115.519 5.95356 117.538 5.95356C119.557 5.95356 120.802 7.27932 120.832 9.01687C120.832 10.7243 119.557 12.0802 117.498 12.0802ZM141.713 32.2478H135.817V22.7566C135.817 20.3662 134.964 18.7391 132.834 18.7391C131.207 18.7391 130.233 19.8339 129.811 20.8985C129.651 21.2802 129.62 21.8125 129.62 22.3348V32.2478H123.725C123.725 32.2478 123.805 16.168 123.725 14.5007H129.62V17.0116C130.404 15.8064 131.8 14.0789 134.934 14.0789C138.81 14.0789 141.723 16.6199 141.723 22.0636V32.2378L141.713 32.2478Z" fill="white"/>
</g>
<defs>
<clipPath id="clip0_287_2951">
<rect width="145.974" height="37.0611" fill="white" transform="translate(0.574707 0.469727)"/>
</clipPath>
</defs>
</svg>
