<svg width="91" height="31" viewBox="0 0 91 31" fill="none" xmlns="http://www.w3.org/2000/svg">
<g clip-path="url(#clip0_287_2990)">
<path d="M75.9847 -0.00319081C75.4223 -0.00319081 74.7537 -0.0031908 74.2019 0.102925L70.9654 5.78015C72.4192 4.88877 74.2019 4.44308 75.9953 4.44308C81.8105 4.44308 86.6069 9.22892 86.6069 15.0229C86.6069 20.8168 81.7999 25.6027 75.9953 25.6027C70.1907 25.6027 65.4898 20.9229 65.3837 15.129L62.0304 20.8062C64.2694 26.2606 69.745 30.0489 75.8892 30.0489C84.1556 30.0489 90.9789 23.2575 90.9789 15.0123C91.0956 6.76703 84.2724 -0.0244141 76.0059 -0.0244141L75.9847 -0.00319081Z" fill="white"/>
<path d="M30.3792 15.7052L32.9472 11.2483L38.7623 21.1596L45.4689 9.68842L52.1754 21.1596L63.6891 1.66603C64.2515 0.668533 65.3657 0 66.5966 0H69.8332L52.1754 30.084L45.4689 18.6128L38.7623 30.084L30.3792 15.7158V15.7052Z" fill="white"/>
<path d="M35.1872 0L17.5294 30.084L-0.0115967 0H3.22495C4.4559 0 5.57012 0.668533 6.13254 1.66603L17.5294 21.2763L29.043 1.66603C29.6055 0.668533 30.7197 0 31.9506 0H35.1872Z" fill="white"/>
</g>
<defs>
<clipPath id="clip0_287_2990">
<rect width="90.9629" height="30.084" fill="white"/>
</clipPath>
</defs>
</svg>
