<svg width="48" height="48" viewBox="0 0 48 48" fill="none" xmlns="http://www.w3.org/2000/svg">
<path fill-rule="evenodd" clip-rule="evenodd" d="M34.5001 2.09091C34.5001 1.53637 34.2789 1.00453 33.8851 0.612413C33.4912 0.220291 32.9571 0 32.4001 0C31.8432 0 31.309 0.220291 30.9152 0.612413C30.5214 1.00453 30.3001 1.53637 30.3001 2.09091V4.18182H17.7001V2.09091C17.7001 1.53637 17.4788 1.00453 17.085 0.612413C16.6912 0.220291 16.157 0 15.6001 0C15.0431 0 14.509 0.220291 14.1151 0.612413C13.7213 1.00453 13.5 1.53637 13.5 2.09091V4.186C12.5025 4.19227 11.6289 4.21318 10.8708 4.27382C9.69063 4.37 8.60493 4.577 7.58642 5.09345C6.00592 5.89529 4.72093 7.17471 3.9156 8.74836C3.3969 9.76245 3.189 10.8435 3.0924 12.0185C3 13.1518 3 14.5402 3 16.2213V33.9585C3 35.6416 3 37.0321 3.0924 38.1612C3.189 39.3384 3.3969 40.4194 3.9156 41.4335C4.72093 43.0071 6.00592 44.2865 7.58642 45.0884C8.60493 45.6048 9.69063 45.8118 10.8708 45.908C12.009 46 13.4034 46 15.0919 46H32.9062C34.5967 46 35.9932 46 37.1273 45.908C38.3096 45.8118 39.3953 45.6048 40.4138 45.0884C41.9943 44.2865 43.2793 43.0071 44.0846 41.4335C44.6033 40.4194 44.8112 39.3384 44.9078 38.1633C45.0002 37.0321 45.0002 35.6416 45.0002 33.9605V16.2213C45.0002 14.5381 45.0002 13.1476 44.9078 12.0185C44.8112 10.8414 44.6033 9.76036 44.0846 8.74627C43.2793 7.17262 41.9943 5.8932 40.4138 5.09136C39.3953 4.57491 38.3096 4.36791 37.1294 4.27173C36.3713 4.209 35.4997 4.18809 34.5001 4.18391V2.09091ZM13.5 10.4545V8.36782C12.5634 8.37409 11.8305 8.39291 11.2131 8.44309C10.2933 8.51627 9.82083 8.65218 9.49323 8.81945C8.70298 9.22037 8.06048 9.86008 7.65782 10.6469C7.48982 10.9731 7.35332 11.4415 7.27982 12.3594C7.20002 13.3003 7.20002 14.5172 7.20002 16.3091V16.7273H40.8002V16.3091C40.8002 14.5172 40.8002 13.3003 40.7204 12.3594C40.6469 11.4435 40.5104 10.9731 40.3424 10.6469C39.9397 9.86008 39.2972 9.22037 38.507 8.81945C38.1794 8.65218 37.709 8.51627 36.7871 8.44309C36.0259 8.39072 35.2631 8.36562 34.5001 8.36782V10.4545C34.5001 11.0091 34.2789 11.5409 33.8851 11.933C33.4912 12.3252 32.9571 12.5455 32.4001 12.5455C31.8432 12.5455 31.309 12.3252 30.9152 11.933C30.5214 11.5409 30.3001 11.0091 30.3001 10.4545V8.36364H17.7001V10.4545C17.7001 11.0091 17.4788 11.5409 17.085 11.933C16.6912 12.3252 16.157 12.5455 15.6001 12.5455C15.0431 12.5455 14.509 12.3252 14.1151 11.933C13.7213 11.5409 13.5 11.0091 13.5 10.4545ZM32.8348 27.6146C33.2174 27.2203 33.429 26.6921 33.4243 26.1439C33.4195 25.5957 33.1986 25.0712 32.8093 24.6836C32.4199 24.2959 31.8932 24.076 31.3426 24.0712C30.792 24.0665 30.2615 24.2772 29.8654 24.6581L21.9001 32.5889L19.1848 29.8854C18.7887 29.5045 18.2582 29.2937 17.7076 29.2985C17.157 29.3033 16.6303 29.5232 16.2409 29.9108C15.8516 30.2985 15.6307 30.8229 15.6259 31.3712C15.6212 31.9194 15.8328 32.4476 16.2154 32.8419L20.4154 37.0237C20.8092 37.4157 21.3432 37.6359 21.9001 37.6359C22.4569 37.6359 22.991 37.4157 23.3848 37.0237L32.8348 27.6146Z" fill="white"/>
</svg>
