<svg width="65" height="23" viewBox="0 0 65 23" fill="none" xmlns="http://www.w3.org/2000/svg">
<g clip-path="url(#clip0_50_1319)">
<path d="M10.2503 22.6483C7.66706 22.4203 5.40154 21.3981 3.68859 19.6782C2.06543 18.0551 1.07081 15.9968 0.732364 13.5586C0.64948 12.9577 0.628758 11.5555 0.697829 10.927C0.911948 8.88249 1.65791 7.05212 2.92191 5.47731C3.26035 5.05597 3.96487 4.33073 4.37239 3.99919C6.52049 2.21717 9.23497 1.34688 12.1774 1.50574C13.5657 1.58172 14.5189 1.74749 15.5826 2.11356C16.3216 2.36912 17.3853 2.90097 17.7099 3.19107L17.7928 3.26014V4.06826L17.7721 4.87639L17.4198 4.66227C15.8105 3.67456 13.7729 3.14962 11.5281 3.14962C9.62867 3.14962 7.87427 3.66075 6.38235 4.64155C4.84898 5.65689 3.68859 7.07975 3.0117 8.80651C2.09306 11.1342 2.23811 13.9868 3.38468 16.28C4.69702 18.8977 7.10759 20.5831 10.0983 20.9699C10.9755 21.0804 12.2741 21.032 13.1996 20.8455C16.218 20.2377 18.1105 18.1725 18.5112 15.0505C18.5526 14.7259 18.5664 14.3322 18.5733 13.4826V12.3498L15.0093 12.3429H11.4452V10.7336H20.1619V12.1772C20.1619 13.8072 20.1274 14.6568 20.0307 15.3406C19.7406 17.3989 18.9739 19.0359 17.7099 20.3068C16.4252 21.5915 14.7882 22.3444 12.6816 22.6137C12.1912 22.6759 10.7545 22.7035 10.2572 22.6621L10.2503 22.6483ZM50.9191 3.50879V0H52.5561V5.93317L52.418 5.99534C52.1279 6.12657 51.7134 6.40976 50.9675 6.98995C50.9329 7.01758 50.926 6.31306 50.926 3.50879H50.9191ZM48.4464 4.77969V0H50.0834V7.65994L49.8278 7.92931C49.5653 8.2056 49.0957 8.75816 48.7158 9.23475C48.5984 9.3798 48.4878 9.51794 48.474 9.53175C48.4602 9.55248 48.4464 7.41128 48.4464 4.77969Z" fill="#1D1F25"/>
<path d="M10.6867 20.1547C8.62837 19.9958 6.9016 19.2015 5.54091 17.7925C5.1403 17.3781 4.91237 17.0949 4.60155 16.6252C3.46188 14.8984 3.01983 12.6398 3.40662 10.5401C3.90393 7.84631 5.76193 5.61533 8.3659 4.57236C9.02898 4.30989 9.84401 4.11649 10.6176 4.03361C11.1218 3.98526 12.4756 4.01289 13.0074 4.08196C14.7273 4.3168 16.2607 4.84864 17.4901 5.63605L17.7802 5.82254V6.61685C17.7802 7.34209 17.7802 7.41116 17.725 7.43879C17.6766 7.46642 17.573 7.41116 17.2484 7.20395C15.9568 6.38892 14.5892 5.91233 12.9729 5.71893C12.3582 5.64295 11.0251 5.63605 10.5693 5.70512C7.61994 6.12645 5.51328 8.25383 5.1403 11.1893C5.03669 11.9906 5.10576 13.1164 5.30607 13.8969C5.74812 15.6375 6.82562 17.0603 8.26229 17.7994C9.23619 18.3036 10.0927 18.5039 11.2392 18.5039C12.8417 18.5039 14.1333 18.048 15.0174 17.1709C15.5907 16.6045 15.9222 15.9069 15.9982 15.1402L16.0189 14.8984H11.4326V13.1924H17.7112V13.8762C17.7112 14.9261 17.6283 15.5546 17.3934 16.2591C16.9169 17.6889 15.9015 18.8216 14.5063 19.4916C13.6015 19.9268 12.6345 20.134 11.4395 20.1616C11.1149 20.1685 10.7765 20.1685 10.6798 20.1616L10.6867 20.1547ZM56.1559 20.1754C54.8574 20.058 53.7108 19.4847 52.7369 18.4625C52.0393 17.7303 51.542 16.8531 51.3279 15.969C51.2035 15.4579 51.1621 15.5546 51.8735 14.5738C52.2189 14.0972 52.5159 13.7035 52.5297 13.6966C52.5435 13.6966 52.5642 13.8555 52.5711 14.0558C52.5988 14.5531 52.6471 14.8639 52.7438 15.2507C53.1928 16.9775 54.443 18.2207 56.0039 18.497C56.4184 18.5661 57.1298 18.5454 57.5304 18.4418C58.9671 18.0688 59.9272 16.9844 60.2932 15.3059C60.383 14.8984 60.383 13.7104 60.2932 13.3098C60.1137 12.4948 59.7683 11.811 59.2572 11.2791C58.5388 10.5193 57.5857 10.1325 56.4598 10.1325C55.0093 10.1325 53.9595 10.7196 52.5642 12.3014C51.2035 13.8486 48.9449 16.7219 47.8122 18.3381L47.4047 18.9183V16.2246L47.9848 15.4372C48.3026 15.002 48.862 14.2699 49.2212 13.8002C49.5804 13.3305 50.0846 12.6813 50.3402 12.3497C51.5005 10.8302 52.2465 10.0704 53.1997 9.43493C55.1613 8.13641 57.7376 8.10187 59.6094 9.35205C61.5158 10.6299 62.4344 13.1302 61.9233 15.6582C61.5089 17.6958 60.2034 19.2706 58.4007 19.9061C58.007 20.0442 57.558 20.134 57.0815 20.1754C56.6394 20.2169 56.5841 20.2169 56.1559 20.1754ZM42.473 17.9997C42.473 14.3666 42.4661 13.738 42.4247 13.441C42.2589 12.3428 41.7547 11.4242 40.988 10.8509C40.4907 10.4779 39.9381 10.25 39.275 10.1395C38.7984 10.0635 38.0939 10.0911 37.6519 10.2085C36.1669 10.6022 35.0963 11.811 34.7785 13.4687C34.6887 13.9383 34.6956 14.8294 34.7923 15.3059C35.1239 16.8669 36.1116 17.9928 37.4999 18.3865C38.7225 18.7388 40.4078 18.4763 41.4508 17.7649L41.6442 17.6336V18.497L41.6234 19.3604L41.2919 19.5331C40.4492 19.9751 39.1231 20.2583 38.1837 20.1961C36.3879 20.0787 34.9443 19.2637 33.9842 17.827C32.962 16.3006 32.6995 14.0834 33.3211 12.2185C34.1431 9.75266 36.4431 8.24692 39.0747 8.45413C40.4976 8.57155 41.5682 9.04814 42.5075 9.9875C43.3778 10.8578 43.8406 11.7972 44.0616 13.1302C44.1169 13.4479 44.1238 13.8693 44.1307 17.8477L44.1445 22.213H42.473V17.9997ZM23.7341 17.8961C23.7341 13.4687 23.7479 12.8747 23.8654 12.2945C24.1693 10.8094 25.0465 9.62833 26.3312 8.98598C26.6351 8.83402 27.2705 8.63371 27.6366 8.57155C28.7487 8.38506 29.909 8.55083 30.731 9.02742L30.9037 9.12412L30.7655 9.34514C30.6895 9.46947 30.5238 9.78029 30.3995 10.0428C30.2751 10.3052 30.1646 10.5193 30.1646 10.5193C30.1646 10.5193 30.0127 10.471 29.84 10.4088C29.094 10.1395 28.4102 10.098 27.7126 10.2776C27.0564 10.4434 26.4624 10.8302 26.0756 11.3344C25.8615 11.6176 25.6129 12.1425 25.5023 12.5431L25.4125 12.8747V17.5438L25.3918 22.213H23.7203V17.8961H23.7341Z" fill="#1D1F25"/>
<path d="M21.296 17.6126C21.296 13.0125 21.3029 12.6395 21.4134 11.9626C21.7587 9.85596 22.8639 8.1361 24.5078 7.13457C26.0688 6.18831 28.1478 5.85677 30.1439 6.25047C30.8554 6.38861 31.7395 6.73396 32.2851 7.08623L32.5061 7.22437L32.1124 7.61116C31.8983 7.82528 31.6566 8.08084 31.5737 8.17754L31.4217 8.35713L31.2283 8.26043C30.5722 7.92889 29.4601 7.68714 28.6106 7.68714C25.9237 7.68714 23.8309 9.24814 23.1678 11.7347C22.9399 12.5912 22.9537 12.3218 22.9399 17.5159L22.926 22.2196H21.2891V17.6195L21.296 17.6126ZM55.9004 22.6617C53.3931 22.4337 51.3141 21.2319 50.0363 19.2634C49.836 18.9526 49.4837 18.248 49.4146 18.0132L49.3732 17.8751L49.9534 17.0877L50.5336 16.3003L50.5612 16.4108C50.9342 17.8198 51.763 19.0216 52.9234 19.8505C53.2826 20.106 53.9388 20.4583 54.3739 20.6241C55.4652 21.0385 56.674 21.1352 57.8551 20.9142C58.6218 20.7691 59.5335 20.3754 60.169 19.9265C60.5627 19.6502 61.2879 18.9249 61.5504 18.552C62.1996 17.6402 62.621 16.5558 62.7936 15.3816C62.8696 14.8429 62.8696 13.7585 62.7936 13.2335C62.5243 11.3755 61.6747 9.88359 60.314 8.85443C59.1674 7.98414 57.5512 7.53518 56.0109 7.6526C53.6763 7.83219 52.0739 8.89588 49.76 11.7761C49.5252 12.0731 48.9035 12.8882 48.3786 13.5858C47.8536 14.2834 47.4185 14.8636 47.4185 14.8705C47.4185 14.8774 47.4047 14.3386 47.4047 13.6687V12.453L47.9642 11.6656C49.1522 10.001 49.6633 9.36556 50.4783 8.55743C51.321 7.71477 51.9979 7.21746 52.9027 6.7685C53.6625 6.39552 54.3877 6.16758 55.2926 6.02944C55.8313 5.94656 57.1575 5.94656 57.6962 6.02944C59.5404 6.31263 61.0047 7.0586 62.2411 8.34331C63.4498 9.6004 64.175 11.1614 64.4513 13.1023C64.5135 13.5305 64.5135 15.0777 64.4513 15.5059C64.2579 16.8943 63.809 18.1375 63.1321 19.1667C61.875 21.073 60.0446 22.2541 57.786 22.6064C57.4614 22.6548 56.225 22.6962 55.9004 22.6686V22.6617ZM37.7624 22.6409C34.1431 22.3094 31.3458 19.7676 30.6481 16.169C30.5169 15.4852 30.4962 15.2297 30.4962 14.3317C30.4962 13.2266 30.5722 12.6602 30.8346 11.7623C31.5184 9.40009 33.259 7.44539 35.4762 6.54057C36.533 6.10542 37.4516 5.93274 38.6672 5.93965C39.8414 5.93965 40.7048 6.09161 41.6925 6.4715C42.7424 6.87211 43.5851 7.43158 44.3863 8.24661C45.5467 9.42772 46.2305 10.8575 46.5275 12.681C46.5966 13.1092 46.5966 13.2059 46.6104 17.6679L46.6242 22.2196H44.9527V18.0339C44.9527 15.4369 44.9389 13.6963 44.9181 13.4476C44.7731 11.7968 44.1031 10.3395 42.998 9.29649C41.7616 8.12229 39.9451 7.50756 38.163 7.6457C35.1032 7.89435 32.8308 9.98719 32.292 13.0608C32.1401 13.9173 32.1677 15.0639 32.3611 16.0102C32.4992 16.694 32.8515 17.5919 33.1968 18.1513C33.9152 19.3256 34.9789 20.1751 36.2843 20.6379C37.4033 21.0316 38.6811 21.1283 39.7655 20.9073C40.3871 20.7829 41.1262 20.4928 41.4991 20.2373L41.6511 20.1337V21.7914L41.4577 21.9157C40.912 22.2749 40.1039 22.5373 39.2613 22.634C38.909 22.6755 38.2321 22.6755 37.7762 22.634L37.7624 22.6409Z" fill="#1D1F25"/>
</g>
<defs>
<clipPath id="clip0_50_1319">
<rect width="63.842" height="22.6759" fill="white" transform="translate(0.65625)"/>
</clipPath>
</defs>
</svg>
