<svg width="24" height="25" viewBox="0 0 24 25" fill="none" xmlns="http://www.w3.org/2000/svg">
<path d="M11.2963 3.95423C11.5266 3.48652 11.6418 3.25317 11.799 3.17805C11.8663 3.14602 11.9399 3.12939 12.0144 3.12939C12.0889 3.12939 12.1624 3.14602 12.2297 3.17805C12.3869 3.25317 12.5021 3.48652 12.7325 3.95423L14.9228 8.39098C14.9909 8.52919 15.0249 8.59829 15.075 8.65137C15.1189 8.69908 15.1716 8.73785 15.2303 8.76555C15.2974 8.79559 15.3735 8.80761 15.5257 8.82964L20.4241 9.54573C20.9399 9.62085 21.1983 9.65891 21.3175 9.7841C21.3689 9.83827 21.4076 9.90327 21.4306 9.97432C21.4537 10.0454 21.4605 10.1207 21.4507 10.1947C21.4277 10.367 21.2404 10.5483 20.8678 10.9118L17.3224 14.3631C17.2123 14.4712 17.1572 14.5253 17.1221 14.5894C17.0904 14.646 17.07 14.7083 17.062 14.7727C17.053 14.8448 17.066 14.9209 17.0921 15.0731L17.9284 19.9475C18.0165 20.4623 18.0606 20.7187 17.9784 20.8709C17.9428 20.9366 17.8929 20.9934 17.8324 21.0372C17.7719 21.0811 17.7024 21.1108 17.6289 21.1243C17.4586 21.1564 17.2283 21.0342 16.7656 20.7918L12.3859 18.4883C12.2497 18.4182 12.1816 18.3812 12.1095 18.3681C12.046 18.3557 11.9807 18.3557 11.9172 18.3681C11.8451 18.3812 11.777 18.4182 11.6408 18.4883L7.26114 20.7918C6.79944 21.0352 6.56809 21.1564 6.39783 21.1243C6.32454 21.1107 6.25521 21.0809 6.19492 21.037C6.13462 20.9932 6.08487 20.9365 6.0493 20.8709C5.96617 20.7187 6.01024 20.4613 6.09938 19.9475L6.93465 15.0731C6.96069 14.9209 6.97371 14.8448 6.96469 14.7727C6.95685 14.7079 6.93644 14.6453 6.9046 14.5884C6.86955 14.5253 6.81446 14.4712 6.7043 14.3631L3.16091 10.9118C2.78734 10.5483 2.60006 10.367 2.57802 10.1947C2.56807 10.1207 2.57477 10.0455 2.59764 9.97444C2.62052 9.9034 2.65898 9.83836 2.71023 9.7841C2.83041 9.65891 3.0878 9.62085 3.60358 9.54573L8.50203 8.82964C8.65426 8.80761 8.73038 8.79559 8.79748 8.76555C8.85604 8.73819 8.90876 8.69976 8.95271 8.65237C9.00279 8.59829 9.03684 8.52919 9.10494 8.39198L11.2953 3.95524L11.2963 3.95423Z" fill="url(#paint0_linear_287_3545)" stroke="white" stroke-width="1.3" stroke-linecap="round" stroke-linejoin="round"/>
<defs>
<linearGradient id="paint0_linear_287_3545" x1="3.00071" y1="13.015" x2="21.5289" y2="13.015" gradientUnits="userSpaceOnUse">
<stop stop-color="white"/>
<stop offset="0.537149" stop-color="white"/>
<stop offset="0.537249" stop-color="white" stop-opacity="0"/>
<stop offset="1" stop-color="white" stop-opacity="0"/>
</linearGradient>
</defs>
</svg>
