<svg width="23" height="17" viewBox="0 0 23 17" fill="none" xmlns="http://www.w3.org/2000/svg">
<g clip-path="url(#clip0_360_8113)">
<path d="M1.54545 16.9995H5.15148V8.24407L0 4.38135V15.4544C0 16.3081 0.691585 16.9995 1.54545 16.9995Z" fill="#4285F4"/>
<path d="M17.5151 16.9995H21.1212C21.9751 16.9995 22.6666 16.3081 22.6666 15.4544V4.38135L17.5151 8.24407V16.9995Z" fill="#34A853"/>
<path d="M17.5151 1.54924V8.24456L22.6666 4.38189V2.32179C22.6666 0.412323 20.4863 -0.678248 18.9576 0.467688L17.5151 1.54924Z" fill="#FBBC04"/>
<path fill-rule="evenodd" clip-rule="evenodd" d="M5.15137 8.24514V1.5498L11.3331 6.18504L17.5149 1.5498V8.24514L11.3331 12.8804L5.15137 8.24514Z" fill="#EA4335"/>
<path d="M0 2.32179V4.38189L5.15148 8.24456V1.54924L3.70907 0.467688C2.18036 -0.678248 0 0.412323 0 2.32179Z" fill="#C5221F"/>
</g>
<defs>
<clipPath id="clip0_360_8113">
<rect width="22.6667" height="17" fill="white"/>
</clipPath>
</defs>
</svg>
