<svg width="134" height="26" viewBox="0 0 134 26" fill="none" xmlns="http://www.w3.org/2000/svg">
<g clip-path="url(#clip0_50_1325)">
<path d="M8.69686 25.6459C8.69686 25.6459 8.66232 25.6183 8.6416 25.6045C8.33078 25.2246 6.42443 22.8279 4.47664 19.7542C3.88954 18.7734 3.51655 18.0136 3.58563 17.8133C3.77902 17.3022 7.17039 17.019 8.21336 17.4818C8.53109 17.6199 8.52418 17.8064 8.52418 17.9169C8.52418 18.3866 8.50346 19.6437 8.50346 19.6437C8.50346 19.9062 8.71758 20.1134 8.97314 20.1134C9.23561 20.1134 9.44282 19.8993 9.44282 19.6368V16.4941C9.44282 16.2247 9.14582 16.1556 9.09056 16.1418C8.5449 16.1418 7.43977 16.1418 6.24485 16.1418C3.62016 16.1418 3.03306 16.2523 2.5841 15.9553C1.61711 15.3406 0.035392 11.0789 0.000856697 8.68219C-0.0474928 5.30463 1.95556 2.37603 4.77364 0.925547C5.95475 0.331539 7.28091 0 8.68995 0C13.1519 0 16.8265 3.37065 17.3169 7.70138C17.3169 7.70138 17.3169 7.70829 17.3169 7.7152C17.4067 8.76507 11.6324 8.9861 10.4858 8.68219C10.3131 8.63384 10.2648 8.45425 10.2648 8.37827C10.2648 7.58396 10.2648 5.33916 10.2648 5.33916C10.2648 5.0767 10.0506 4.86948 9.78817 4.86948C9.5257 4.86948 9.31849 5.0836 9.31849 5.34607V9.4765C9.33921 9.73897 9.55333 9.80804 9.6155 9.82185C10.2648 9.82185 11.7843 9.82185 13.2003 9.82185C15.1135 9.82185 15.9147 10.0429 16.4535 10.4504C16.8058 10.7198 16.9439 11.2378 16.8265 11.9147C15.7559 17.9169 8.95932 25.3489 8.70376 25.6529L8.69686 25.6459ZM36.5669 10.9615C39.2814 12.1219 40.9598 13.4135 40.9598 16.2454C40.9598 19.0773 38.7702 21.0044 35.3789 21.0044C32.6298 21.0044 30.4265 19.7611 29.3283 17.5854L29.1487 17.2331L32.3812 15.3613L32.5953 15.7067C33.3206 16.8947 34.1356 17.4058 35.3167 17.4058C36.332 17.4058 37.0158 16.9569 37.0158 16.2869C37.0158 15.5409 36.5185 15.2646 34.9921 14.5946L34.2185 14.2631C32.1464 13.379 30.2262 12.1495 30.2262 9.17949C30.2262 6.50646 32.2776 4.64155 35.2062 4.64155C37.4303 4.64155 38.9498 5.50493 39.9997 7.34912L40.1931 7.69447L37.0642 9.70443L36.8501 9.31764C36.3251 8.37827 35.8347 8.19178 35.2062 8.19178C34.5776 8.19178 34.1287 8.55095 34.1287 9.11042C34.1287 9.75278 34.4395 10.036 35.7933 10.6231L36.5738 10.9546L36.5669 10.9615ZM59.4362 11.5072L61.7155 5.14577H65.6318L59.8299 21.2669H58.9596L55.437 13.7174C55.2712 13.3721 55.1054 12.9438 54.9604 12.5501C54.8084 12.9438 54.6358 13.3721 54.4769 13.7243L50.8231 21.2738H49.9597L44.061 5.14577H48.2398L50.5468 11.5072C50.6918 11.9147 50.8438 12.4051 50.975 12.8679C51.1339 12.3913 51.3204 11.8802 51.5138 11.4726L54.5391 5.01453H55.3748L58.4485 11.4726C58.6419 11.8871 58.8353 12.3982 58.9872 12.8679C59.1185 12.4051 59.2704 11.9147 59.4155 11.5072H59.4362ZM70.1974 20.8041V4.81423H74.1482V20.8041H70.1974ZM87.1059 15.4304V11.8594H94.4412V19.0221L94.2892 19.1464C93.4466 19.8371 91.2225 21.0044 88.211 21.0044C83.1274 21.0044 79.5772 17.6337 79.5772 12.8126C79.5772 7.99148 83.0031 4.64155 87.7206 4.64155C90.3177 4.64155 92.2171 5.3737 93.5364 6.87944L93.7919 7.17644L91.0982 9.84257L90.8081 9.53866C90.0552 8.76507 89.2747 8.28158 87.7206 8.28158C85.3032 8.28158 83.6109 10.1465 83.6109 12.8126C83.6109 15.4787 85.4137 17.392 88.2041 17.392C89.1297 17.392 90.0967 17.2331 90.7528 16.9776V15.4373H87.099L87.1059 15.4304ZM107.129 15.4304V11.8594H114.465V19.0221L114.313 19.1464C113.47 19.8371 111.246 21.0044 108.235 21.0044C103.151 21.0044 99.6008 17.6337 99.6008 12.8126C99.6008 7.99148 103.027 4.64155 107.744 4.64155C110.341 4.64155 112.241 5.3737 113.56 6.87944L113.816 7.17644L111.122 9.84257L110.832 9.53866C110.079 8.76507 109.298 8.28158 107.744 8.28158C105.327 8.28158 103.641 10.1465 103.641 12.8126C103.641 15.4787 105.444 17.392 108.242 17.392C109.167 17.392 110.134 17.2331 110.79 16.9776V15.4373H107.136L107.129 15.4304ZM128.942 4.81423H133.072L127.402 15.4511V20.8041H123.43V15.679L117.393 4.81423H121.8L124.591 9.91164C124.888 10.4642 125.205 11.1964 125.44 11.7973C125.668 11.2102 125.965 10.478 126.262 9.91855L128.942 4.81423Z" fill="#1D1F25"/>
</g>
<defs>
<clipPath id="clip0_50_1325">
<rect width="133.072" height="25.6459" fill="white"/>
</clipPath>
</defs>
</svg>
