<svg width="16" height="16" viewBox="0 0 16 16" fill="none" xmlns="http://www.w3.org/2000/svg">
<g clip-path="url(#clip0_360_11257)">
<path fill-rule="evenodd" clip-rule="evenodd" d="M4.22104 1.27491C4.29399 0.837143 3.99826 0.423124 3.56049 0.350169C3.12273 0.277213 2.70871 0.572948 2.63576 1.01071L0.423594 14.2846C0.16741 15.8218 2.2993 16.4833 2.9583 15.0711L6.43435 7.62219V12.6155C6.43435 13.8682 8.00059 14.4352 8.8025 13.4729L10.8233 11.0479C11.1391 11.7252 11.5453 12.4322 12.1342 12.9197C12.5021 13.2242 12.9441 13.4467 13.4692 13.5255C13.9889 13.6034 14.5404 13.5331 15.1219 13.33C15.5409 13.1837 15.7619 12.7254 15.6156 12.3065C15.4693 11.8875 15.011 11.6664 14.592 11.8127C14.1992 11.9499 13.9148 11.9672 13.7075 11.9361C13.5057 11.9058 13.3297 11.8229 13.159 11.6816C12.7829 11.3704 12.4656 10.809 12.1267 10.0268C11.7361 9.12522 10.5145 8.9081 9.85996 9.69352L8.04149 11.8757V6.41478C8.04149 4.98179 6.09453 4.54989 5.48856 5.84843L2.33127 12.6142L4.22104 1.27491ZM9.21191 1.92665L9.52512 2.66666L9.8367 3.40737C9.83644 3.40748 9.83646 3.40747 9.83676 3.40735C9.42843 3.57917 8.95787 3.38805 8.78511 2.97988C8.61212 2.57118 8.80321 2.09963 9.21191 1.92665ZM9.83804 3.40681C9.83761 3.40699 9.83719 3.40717 9.83676 3.40735L9.52512 2.66666C9.21191 1.92665 9.21207 1.92658 9.21224 1.92651L9.21259 1.92636L9.2134 1.92602L9.21537 1.92519L9.22072 1.92296L9.23684 1.91634C9.24994 1.91102 9.2677 1.90393 9.28955 1.89547C9.33312 1.87859 9.39371 1.85602 9.46664 1.83117C9.60961 1.78246 9.81326 1.72046 10.0362 1.67779C10.2477 1.6373 10.5362 1.60212 10.826 1.64866C11.1247 1.69663 11.5426 1.85704 11.7677 2.30725C11.9263 2.62444 12.0472 2.74424 12.1025 2.7857C12.1373 2.81181 12.1533 2.81546 12.1918 2.81546C12.2661 2.81546 12.359 2.79655 12.5683 2.74422L12.5944 2.73767C12.7682 2.694 13.043 2.62498 13.3346 2.62496C13.7784 2.62495 14.1382 2.9847 14.1382 3.4285C14.1382 3.8723 13.7785 4.23209 13.3347 4.23211C13.2604 4.23211 13.1675 4.25103 12.9581 4.30337L12.9321 4.30991C12.7582 4.35358 12.4834 4.42261 12.1918 4.4226C11.8493 4.4226 11.4843 4.331 11.1382 4.07139C10.8665 3.8676 10.6405 3.58578 10.444 3.23974C10.414 3.24324 10.3788 3.24852 10.3383 3.25628C10.2135 3.28016 10.0861 3.31797 9.98495 3.35244C9.93581 3.36918 9.89607 3.38403 9.86982 3.3942C9.85676 3.39925 9.84724 3.40307 9.84178 3.40529L9.83804 3.40681Z" fill="#3F3F3F"/>
</g>
<defs>
<clipPath id="clip0_360_11257">
<rect width="16" height="16" fill="white"/>
</clipPath>
</defs>
</svg>
