<svg width="92" height="40" viewBox="0 0 92 40" fill="none" xmlns="http://www.w3.org/2000/svg">
<g clip-path="url(#clip0_287_2974)">
<path d="M30.6433 39.0301L27.4397 34.1365H24.236V39.0301H20.0474V22.172H27.4086C31.5972 22.172 34.3965 24.4529 34.3965 28.092C34.4483 30.1656 33.3493 32.094 31.5453 33.1204L35.5058 39.0301H30.6433ZM24.236 30.3937H27.336C28.943 30.3937 30.2079 29.5021 30.2079 28.1128C30.2079 26.7235 28.943 25.8837 27.336 25.8837H24.236V30.3937ZM41.7576 25.8319V28.9007H49.2432V32.488H41.7576V35.4117H50.3007V39.0508H37.5587V22.1928H50.3007V25.8319H41.7576ZM68.9939 30.5699C68.9939 35.5776 65.1992 39.0404 59.9013 39.0404H53.1311V22.172H59.9013C65.1992 22.172 68.9939 25.6141 68.9939 30.5492V30.5699ZM64.7534 30.5699C64.7327 27.9987 62.628 25.9252 60.0464 25.9459C59.9946 25.9459 59.9428 25.9459 59.8909 25.9459H57.3093V35.2666H59.8909C62.4829 35.3495 64.6601 33.3278 64.7431 30.7255C64.7431 30.6633 64.7431 30.6114 64.7431 30.5492L64.7534 30.5699ZM75.4841 22.1928V39.0404H71.2955V22.172H75.4841V22.1928ZM91.5335 25.9459H86.6917V39.0612H82.5342V25.9355H77.6925V22.1824H91.5335V25.9355V25.9459ZM13.2254 32.9753C12.6033 34.5408 11.0378 35.5361 9.35821 35.4532C6.68332 35.3806 4.57865 33.1619 4.64086 30.4974C4.70306 27.9158 6.77663 25.8526 9.35821 25.78C11.0482 25.6867 12.6033 26.682 13.2254 28.2579H17.6628C16.8023 24.4011 13.6194 21.8713 9.36858 21.8713C4.28835 21.8713 0.441895 25.5416 0.441895 30.6114C0.441895 35.6813 4.28835 39.3618 9.36858 39.3618C13.6194 39.3618 16.7919 36.8217 17.6628 32.9753C17.6628 32.9856 13.2254 32.9856 13.2254 32.9856V32.9753ZM16.6572 1.39492V18.2426H12.4997V11.9286H5.63617V18.2426H1.44757V1.39492H5.63617V8.1651H12.4997V1.39492H16.6572ZM64.826 18.2426H60.6374V9.79285L56.8843 15.5574V15.5885H54.5619V15.5574L50.7984 9.73064L50.8295 18.2322H46.6409V1.37418H49.7719L55.7334 10.3734L61.7157 1.37418H64.8467V18.2426H64.826ZM72.4982 5.03402V8.10289H79.9837V11.6694H72.5086V14.6035H81.0516V18.2426H68.3096V1.39492H81.0516V5.03402H72.5086H72.4982ZM31.6386 0.648438C24.9721 0.648438 19.5705 5.79087 19.5705 12.1463C19.5705 14.3132 20.2029 16.4386 21.4056 18.253H27.2219C23.9872 15.8165 23.3444 11.2132 25.7912 7.97848C28.2276 4.74372 32.8309 4.10092 36.0657 6.54772C39.3004 8.98416 39.9433 13.5875 37.4965 16.8222C37.0921 17.3614 36.6048 17.8486 36.0657 18.253H41.882C43.0847 16.4386 43.7171 14.3236 43.7171 12.1463C43.7171 5.80124 38.3259 0.648438 31.649 0.648438H31.6386ZM27.6885 14.0229C28.3831 16.2105 30.7159 17.4236 32.9035 16.7289C34.1891 16.3246 35.2052 15.3085 35.6095 14.0229H27.6885Z" fill="white"/>
</g>
<defs>
<clipPath id="clip0_287_2974">
<rect width="91.0916" height="38.703" fill="white" transform="translate(0.441895 0.648438)"/>
</clipPath>
</defs>
</svg>
