<svg width="29" height="29" viewBox="0 0 29 29" fill="none" xmlns="http://www.w3.org/2000/svg">
<path d="M21.6527 1.86157L26.6516 7.07251V26.8884H7.97754V26.9531H26.7154V7.1381L21.6527 1.86157Z" fill="#909090"/>
<path d="M8.18143 26.6206V2.06473H21.4763L26.3835 7.18109V26.6206H8.18143Z" fill="#F4F4F4" stroke="#A6A4A4" stroke-width="0.535714"/>
<path d="M7.77617 3.14453H2.03516V9.27816H20.0938V3.14453H7.77617Z" fill="#7A7B7C"/>
<path d="M20.1898 9.17401H2.15186V3.03589H20.1898V9.17401Z" fill="#DD2025"/>
<path d="M8.13275 4.07354H6.9585V8.38604H7.88209V6.93147L8.08604 6.94315C8.2842 6.93974 8.48051 6.90424 8.66732 6.83803C8.83111 6.7817 8.98179 6.69276 9.11025 6.57659C9.24098 6.46592 9.34404 6.32624 9.41123 6.1687C9.50134 5.9068 9.53353 5.62847 9.50557 5.35292C9.49996 5.15607 9.46545 4.96113 9.40314 4.77432C9.34643 4.63947 9.26226 4.51791 9.156 4.41737C9.04973 4.31682 8.9237 4.23951 8.78592 4.19034C8.66679 4.14721 8.54371 4.11591 8.41846 4.0969C8.32361 4.08226 8.22782 4.07446 8.13186 4.07354M7.96205 6.13456H7.88209V4.80487H8.05549C8.13202 4.79935 8.20881 4.8111 8.28019 4.83924C8.35156 4.86739 8.41571 4.91122 8.46787 4.96749C8.57597 5.11215 8.63372 5.28823 8.63229 5.46881C8.63229 5.68983 8.63228 5.89018 8.43283 6.03124C8.28914 6.11027 8.12559 6.14675 7.96205 6.13456ZM11.2602 4.06186C11.1605 4.06186 11.0635 4.06905 10.9952 4.07174L10.7813 4.07713H10.0806V8.38963H10.9053C11.2205 8.39827 11.5343 8.34485 11.8289 8.23241C12.066 8.13836 12.276 7.98676 12.4399 7.79127C12.5992 7.59403 12.7136 7.36437 12.775 7.11834C12.8456 6.83971 12.88 6.55315 12.8774 6.26573C12.8948 5.92626 12.8686 5.58596 12.7992 5.25319C12.7335 5.00824 12.6103 4.78249 12.4399 4.59463C12.3062 4.44294 12.1425 4.32058 11.9592 4.23526C11.8018 4.16241 11.6362 4.10872 11.466 4.07534C11.3983 4.06416 11.3297 4.05904 11.2611 4.06006M11.0976 7.59721H11.0078V4.8444H11.0194C11.2047 4.82309 11.3921 4.85651 11.5585 4.94053C11.6804 5.03786 11.7797 5.16047 11.8496 5.29991C11.925 5.44665 11.9685 5.60772 11.9772 5.77249C11.9853 5.97014 11.9772 6.13186 11.9772 6.26573C11.9808 6.41993 11.9709 6.57416 11.9475 6.72663C11.9198 6.88316 11.8686 7.03461 11.7957 7.17584C11.7131 7.30716 11.6015 7.4178 11.4696 7.49928C11.3587 7.57098 11.2274 7.60442 11.0958 7.59452M15.6599 4.07713H13.4767V8.38963H14.4003V6.67901H15.5682V5.8776H14.4003V4.87854H15.6581V4.07713" fill="#464648"/>
<path d="M19.5687 18.1978C19.5687 18.1978 22.433 17.6785 22.433 18.6569C22.433 19.6353 20.6585 19.2373 19.5687 18.1978ZM17.4511 18.2724C16.9961 18.3729 16.5526 18.5202 16.1277 18.7117L16.4871 17.9031C16.8465 17.0945 17.2193 15.9922 17.2193 15.9922C17.6482 16.7139 18.1471 17.3916 18.7089 18.0154C18.2852 18.0786 17.8653 18.165 17.4511 18.2742V18.2724ZM16.3173 12.4326C16.3173 11.5799 16.5931 11.3472 16.8078 11.3472C17.0226 11.3472 17.2643 11.4506 17.2723 12.1909C17.2024 12.9353 17.0465 13.6691 16.8078 14.3777C16.4809 13.7828 16.3117 13.1141 16.3164 12.4352L16.3173 12.4326ZM12.1405 21.8805C11.2618 21.3549 13.9832 19.7368 14.4764 19.6847C14.4737 19.6856 13.0605 22.4304 12.1405 21.8805ZM23.2694 18.7728C23.2604 18.683 23.1796 17.6884 21.4096 17.7306C20.6719 17.7187 19.9345 17.7708 19.2058 17.8861C18.4998 17.1749 17.8919 16.3727 17.3981 15.5007C17.7092 14.6018 17.8975 13.6649 17.9578 12.7156C17.9318 11.6374 17.6739 11.0193 16.8474 11.0283C16.0208 11.0373 15.9004 11.7605 16.0091 12.8368C16.1156 13.5601 16.3165 14.2663 16.6066 14.9374C16.6066 14.9374 16.2248 16.126 15.7198 17.3084C15.2149 18.4907 14.8699 19.1106 14.8699 19.1106C13.9919 19.3965 13.1653 19.8211 12.4217 20.3685C11.6814 21.0576 11.3804 21.5867 11.7703 22.1159C12.1063 22.5723 13.2824 22.6756 14.3335 21.2983C14.8921 20.587 15.4023 19.839 15.8609 19.0594C15.8609 19.0594 17.4637 18.6201 17.9623 18.4997C18.461 18.3793 19.0638 18.2841 19.0638 18.2841C19.0638 18.2841 20.5274 19.7566 21.9388 19.7045C23.3503 19.6524 23.282 18.8609 23.273 18.7746" fill="#DD2025"/>
<path d="M21.521 1.86609V7.14261H26.5819L21.521 1.86609Z" fill="#909090"/>
<path d="M26.0232 6.80554H21.8582V2.46311L26.0232 6.80554Z" fill="#F4F4F4" stroke="#A6A4A4" stroke-width="0.535714"/>
<path d="M8.06342 4.00433H6.88916V8.31683H7.81635V6.86315L8.02119 6.87483C8.21936 6.87142 8.41567 6.83593 8.60248 6.76972C8.76626 6.71336 8.91693 6.62443 9.04541 6.50827C9.17515 6.39731 9.27727 6.25766 9.34369 6.10038C9.4338 5.83848 9.46599 5.56015 9.43803 5.2846C9.43242 5.08776 9.39791 4.89281 9.33561 4.70601C9.27889 4.57116 9.19472 4.44959 9.08846 4.34905C8.98219 4.24851 8.85616 4.17119 8.71838 4.12202C8.59871 4.07848 8.47502 4.04688 8.34912 4.02769C8.25427 4.01305 8.15849 4.00524 8.06252 4.00433M7.89271 6.06534H7.81275V4.73565H7.98705C8.06358 4.73014 8.14037 4.74188 8.21175 4.77003C8.28313 4.79818 8.34727 4.842 8.39943 4.89827C8.50753 5.04293 8.56528 5.21902 8.56385 5.3996C8.56385 5.62062 8.56385 5.82097 8.36439 5.96202C8.2207 6.04105 8.05715 6.07663 7.89361 6.06444M11.1909 3.99265C11.0912 3.99265 10.9941 3.99983 10.9258 4.00253L10.7147 4.00792H10.0139V8.32042H10.8387C11.1539 8.32906 11.4677 8.27564 11.7623 8.16319C11.9994 8.06915 12.2094 7.91754 12.3732 7.72206C12.5326 7.52481 12.6469 7.29516 12.7083 7.04913C12.7789 6.7705 12.8133 6.48394 12.8108 6.19651C12.8282 5.85705 12.8019 5.51675 12.7326 5.18398C12.6668 4.93903 12.5436 4.71328 12.3732 4.52542C12.2395 4.37373 12.0759 4.25137 11.8926 4.16605C11.7351 4.0932 11.5695 4.03951 11.3993 4.00612C11.3316 3.99494 11.2631 3.98983 11.1945 3.99085M11.031 7.528H10.9411V4.77519H10.9528C11.138 4.75387 11.3254 4.7873 11.4919 4.87132C11.6137 4.96864 11.7131 5.09126 11.7829 5.23069C11.8584 5.37744 11.9019 5.5385 11.9105 5.70327C11.9186 5.90093 11.9105 6.06265 11.9105 6.19651C11.9142 6.35072 11.9043 6.50495 11.8809 6.65741C11.8532 6.81395 11.802 6.9654 11.729 7.10663C11.6465 7.23794 11.5349 7.34859 11.4029 7.43007C11.2921 7.50176 11.1608 7.53521 11.0292 7.5253M15.5905 4.00792H13.4073V8.32042H14.3309V6.6098H15.4989V5.80839H14.3309V4.80933H15.5887V4.00792" fill="white"/>
</svg>
