<svg width="105" height="28" viewBox="0 0 105 28" fill="none" xmlns="http://www.w3.org/2000/svg">
<path d="M5.78311 27.8062H0.0720215V5.83297C0.0720215 5.83297 0.0720215 1.67065 4.23434 0.315475C8.00947 -0.846103 10.5262 1.57385 10.5262 1.57385L29.3051 21.9015C30.273 22.4823 30.6602 21.9015 30.6602 21.3207V0.315475H36.4681V22.1919C36.4681 24.031 34.9194 26.3542 32.693 27.2254C30.4666 28.0965 28.0467 28.0965 25.1427 25.6766L7.52548 6.51056C7.04149 6.02657 5.87991 5.92977 5.78311 6.89775V27.8062Z" fill="#2A2A2A"/>
<path d="M40.1463 0.315918H45.8574V20.0627C45.8574 22.1923 47.5998 22.1923 49.3421 22.1923H74.8968C75.9616 22.1923 77.1232 20.9339 77.1232 19.6755C77.1232 18.3204 75.8648 17.062 74.7032 17.062H58.1508C55.3436 17.1588 49.3421 14.5452 49.3421 8.93095C49.3421 2.05829 54.9564 0.606313 57.57 0.412716H104.614V6.22061H92.8045V28.0002H87.0934V6.12381H58.3444C55.634 5.93021 53.6012 10.5765 58.1508 11.2541H75.8648C78.5752 11.2541 82.9311 13.5773 82.9311 19.2884C82.9311 25.0962 79.5432 27.8066 75.8648 27.8066H49.7293C45.3734 27.8066 43.8246 26.8386 42.3727 25.3866C40.9207 24.0315 40.7271 23.2571 40.2431 20.3531L40.1463 0.315918Z" fill="#2A2A2A"/>
</svg>
