<svg width="63" height="27" viewBox="0 0 63 27" fill="none" xmlns="http://www.w3.org/2000/svg">
<g clip-path="url(#clip0_50_1323)">
<path d="M20.9787 26.3955L18.7755 23.0301H16.5723V26.3955H13.6918V14.8021H18.7541C21.6346 14.8021 23.5597 16.3707 23.5597 18.8733C23.5954 20.2993 22.8396 21.6255 21.599 22.3314L24.3226 26.3955H20.9787ZM16.5723 20.4562H18.7042C19.8093 20.4562 20.6792 19.843 20.6792 18.8876C20.6792 17.9322 19.8093 17.3547 18.7042 17.3547H16.5723V20.4562ZM28.622 17.319V19.4295H33.7699V21.8965H28.622V23.9071H34.4971V26.4097H25.7344V14.8164H34.4971V17.319H28.622ZM47.3525 20.5774C47.3525 24.0212 44.7429 26.4026 41.0995 26.4026H36.4436V14.8021H41.0995C44.7429 14.8021 47.3525 17.1693 47.3525 20.5632V20.5774ZM44.4363 20.5774C44.4221 18.8092 42.9747 17.3832 41.1993 17.3974C41.1637 17.3974 41.128 17.3974 41.0924 17.3974H39.317V23.8073H41.0924C42.8749 23.8643 44.3722 22.474 44.4292 20.6844C44.4292 20.6416 44.4292 20.6059 44.4292 20.5632L44.4363 20.5774ZM51.8159 14.8164V26.4026H48.9354V14.8021H51.8159V14.8164ZM62.8531 17.3974H59.5234V26.4169H56.6643V17.3903H53.3346V14.8092H62.8531V17.3903V17.3974ZM9.00027 22.2316C8.57247 23.3082 7.49584 23.9927 6.34078 23.9356C4.50124 23.8857 3.05385 22.3599 3.09663 20.5275C3.13941 18.7521 4.56541 17.3333 6.34078 17.2834C7.50297 17.2192 8.57247 17.9037 9.00027 18.9874H12.0519C11.4601 16.3351 9.27121 14.5953 6.34791 14.5953C2.85421 14.5953 0.208984 17.1194 0.208984 20.6059C0.208984 24.0925 2.85421 26.6236 6.34791 26.6236C9.27121 26.6236 11.453 24.8768 12.0519 22.2316C12.0519 22.2387 9.00027 22.2387 9.00027 22.2387V22.2316ZM11.3603 0.513604V12.0998H8.50117V7.75768H3.78111V12.0998H0.900594V0.513604H3.78111V5.16949H8.50117V0.513604H11.3603ZM44.4863 12.0998H41.6057V6.2889L39.0247 10.2532V10.2746H37.4276V10.2532L34.8394 6.24612L34.8608 12.0927H31.9802V0.499344H34.1335L38.2332 6.68818L42.3473 0.499344H44.5005V12.0998H44.4863ZM49.7624 3.01623V5.12671H54.9103V7.57943H49.7696V9.59722H55.6447V12.0998H46.8819V0.513604H55.6447V3.01623H49.7696H49.7624ZM21.6631 0.000244141C17.0786 0.000244141 13.3638 3.53672 13.3638 7.90741C13.3638 9.39758 13.7988 10.8592 14.6258 12.107H18.6258C16.4012 10.4314 15.9591 7.26571 17.6418 5.04115C19.3174 2.81659 22.4831 2.37453 24.7076 4.05721C26.9322 5.73276 27.3743 8.89848 25.6916 11.123C25.4135 11.4938 25.0784 11.8289 24.7076 12.107H28.7076C29.5347 10.8592 29.9696 9.40471 29.9696 7.90741C29.9696 3.54385 26.262 0.000244141 21.6703 0.000244141H21.6631ZM18.9466 9.19794C19.4243 10.7024 21.0286 11.5366 22.533 11.0589C23.4171 10.7808 24.1159 10.0821 24.3939 9.19794H18.9466Z" fill="#1D1F25"/>
</g>
<defs>
<clipPath id="clip0_50_1323">
<rect width="62.6441" height="26.6163" fill="white" transform="translate(0.208984)"/>
</clipPath>
</defs>
</svg>
