<svg width="56" height="56" viewBox="0 0 56 56" fill="none" xmlns="http://www.w3.org/2000/svg">
<path fill-rule="evenodd" clip-rule="evenodd" d="M38.4134 48.2123C37.2534 47.5283 36.3713 46.4543 35.9232 45.1801H20.0787C19.6306 46.4543 18.7485 47.5283 17.5884 48.2123C16.4284 48.8962 15.0651 49.146 13.7395 48.9175C12.4138 48.6891 11.2113 47.9971 10.3443 46.9638C9.47739 45.9305 9.00189 44.6226 9.00189 43.2711C9.00189 41.9196 9.47739 40.6116 10.3443 39.5783C11.2113 38.5451 12.4138 37.8531 13.7395 37.6246C15.0651 37.3961 16.4284 37.646 17.5884 38.3299C18.7485 39.0138 19.6306 40.0878 20.0787 41.3621H26.1011V29.908H20.0787C19.6306 31.1823 18.7485 32.2563 17.5884 32.9402C16.4284 33.6242 15.0651 33.874 13.7395 33.6455C12.4138 33.4171 11.2113 32.725 10.3443 31.6918C9.47739 30.6585 9.00189 29.3505 9.00189 27.999C9.00189 26.6476 9.47739 25.3396 10.3443 24.3063C11.2113 23.2731 12.4138 22.581 13.7395 22.3526C15.0651 22.1241 16.4284 22.3739 17.5884 23.0579C18.7485 23.7418 19.6306 24.8158 20.0787 26.09H26.1011V21.8902C26.1011 20.2542 26.1011 19.1432 26.0289 18.2841C25.9624 17.4461 25.839 17.0185 25.687 16.7207C25.3227 16.0023 24.7415 15.4182 24.0265 15.0522C23.7302 14.8995 23.3027 14.7754 22.4706 14.7086C21.8437 14.657 21.0799 14.6418 20.0768 14.6379C19.6287 15.9122 18.7466 16.9862 17.5865 17.6701C16.4265 18.354 15.0632 18.6039 13.7376 18.3754C12.4119 18.1469 11.2094 17.4549 10.3424 16.4216C9.47549 15.3884 9 14.0804 9 12.7289C9 11.3774 9.47549 10.0695 10.3424 9.03621C11.2094 8.00294 12.4119 7.31092 13.7376 7.08246C15.0632 6.854 16.4265 7.10381 17.5865 7.78774C18.7466 8.47167 19.6287 9.54568 20.0768 10.8199C21.1179 10.8237 22.0127 10.839 22.7803 10.902C23.848 10.9898 24.8302 11.1788 25.7516 11.6503C27.1814 12.3824 28.3439 13.5505 29.0724 14.9873C29.5417 15.9131 29.7298 16.9001 29.8172 17.9749C29.9008 19.0057 29.9008 20.2751 29.9008 21.8118V21.812V41.3621H35.9232C36.3713 40.0878 37.2534 39.0138 38.4134 38.3299C39.5735 37.646 40.9368 37.3961 42.2624 37.6246C43.5881 37.8531 44.7906 38.5451 45.6576 39.5783C46.5245 40.6116 47 41.9196 47 43.2711C47 44.6226 46.5245 45.9305 45.6576 46.9638C44.7906 47.9971 43.5881 48.6891 42.2624 48.9175C40.9368 49.146 39.5735 48.8962 38.4134 48.2123ZM44.3327 11.0279C44.3897 11.274 44.4471 11.522 44.5414 11.901L44.5993 12.0404C44.7194 12.525 45.0388 12.7587 45.5191 12.8874C45.9484 13.0015 46.2112 13.0788 46.4733 13.1557C46.8067 13.2537 47.1389 13.3513 47.8112 13.5242C48.3327 13.659 48.6658 13.7012 48.9521 13.7375C49.2896 13.7803 49.5618 13.8148 50.0003 13.983C50.2984 14.0988 50.4956 14.384 50.4999 14.7035V14.7935C50.5042 15.1195 50.3048 15.4154 50.0003 15.5333C49.5633 15.7014 49.3011 15.7353 48.9678 15.7785C48.6846 15.8152 48.3501 15.8585 47.8133 15.9964C47.1373 16.1701 46.8007 16.2505 46.4619 16.3314C46.215 16.3903 45.967 16.4495 45.5856 16.5453C45.1032 16.6654 44.7258 17.0385 44.5993 17.5188C44.4845 17.9532 44.4075 18.2177 44.3306 18.4818C44.2336 18.8149 44.1368 19.1475 43.9646 19.8195C43.8325 20.3374 43.7897 20.6693 43.7531 20.9537C43.7095 21.2921 43.6745 21.5632 43.5079 22.0001C43.39 22.3089 43.0877 22.5083 42.7575 22.4997H42.7039C42.393 22.4933 42.1164 22.3003 41.9984 22.013C41.8056 21.5376 41.76 21.2695 41.6975 20.9014C41.6523 20.6353 41.5982 20.317 41.4731 19.8302C41.3014 19.1617 41.2336 18.8222 41.1659 18.4833C41.1162 18.2342 41.0665 17.9855 40.9757 17.6067C40.8578 17.1157 40.4783 16.7297 39.9894 16.6032C39.6132 16.5056 39.3623 16.4398 39.1309 16.3792C38.7478 16.2787 38.4184 16.1924 37.663 15.9986C37.1831 15.875 36.866 15.8212 36.5992 15.776C36.2318 15.7137 35.9596 15.6676 35.4889 15.4775C35.1951 15.3575 35 15.0723 35 14.7549V14.7485C35 14.429 35.1951 14.1396 35.491 14.0195C35.9499 13.8349 36.2081 13.7934 36.5599 13.7368C36.8293 13.6934 37.1536 13.6412 37.6652 13.5092C38.3349 13.3362 38.672 13.2588 39.0092 13.1813C39.2656 13.1223 39.5221 13.0634 39.9251 12.9624C40.4418 12.8338 40.847 12.4285 40.9757 11.9118C41.0739 11.5199 41.1341 11.2645 41.1944 11.0083C41.2738 10.6715 41.3535 10.3333 41.5203 9.6818C41.6465 9.18897 41.6967 8.8675 41.7391 8.59599C41.7954 8.23553 41.838 7.96314 42.0263 7.49474C42.1378 7.21385 42.4037 7.02087 42.706 7.00372C42.721 7.00157 42.736 7.00157 42.751 7.00157C43.0898 6.98013 43.4071 7.17954 43.5294 7.49688C43.6974 7.93218 43.7333 8.19217 43.7796 8.5268C43.8183 8.80699 43.8643 9.13951 44.0011 9.67108C44.1755 10.349 44.2537 10.6865 44.3327 11.0279Z" fill="url(#paint0_linear_374_16171)"/>
<defs>
<linearGradient id="paint0_linear_374_16171" x1="16" y1="49" x2="62.8717" y2="9.83864" gradientUnits="userSpaceOnUse">
<stop stop-color="#5D5A71"/>
<stop offset="1" stop-color="#9A98AA"/>
</linearGradient>
</defs>
</svg>
