<svg width="56" height="56" viewBox="0 0 56 56" fill="none" xmlns="http://www.w3.org/2000/svg">
<path fill-rule="evenodd" clip-rule="evenodd" d="M43 53.6663C46.3137 53.6663 49 50.9801 49 47.6663V18.8183C49 17.227 48.3679 15.7009 47.2426 14.5757L36.7574 4.09037C35.6321 2.96515 34.106 2.33301 32.5147 2.33301H13C9.68629 2.33301 7 5.0193 7 8.333V47.6663C7 50.98 9.68629 53.6663 13 53.6663H43ZM21.3735 24.3732C22.7331 23.0135 24.5772 22.2497 26.5 22.2497C28.4228 22.2497 30.2669 23.0135 31.6265 24.3732C32.9862 25.7328 33.75 27.5769 33.75 29.4997C33.75 31.3632 33.0326 33.1527 31.7507 34.499C31.7038 34.5342 31.6588 34.5731 31.6161 34.6158C31.5734 34.6585 31.5345 34.7035 31.4993 34.7504C30.153 36.0323 28.3635 36.7497 26.5 36.7497C24.5772 36.7497 22.7331 35.9859 21.3735 34.6262C20.0138 33.2666 19.25 31.4225 19.25 29.4997C19.25 27.5769 20.0138 25.7328 21.3735 24.3732ZM36.25 29.4997C36.25 31.6653 35.5295 33.7566 34.2213 35.4532L37.8839 39.1158C38.372 39.604 38.372 40.3954 37.8839 40.8836C37.3957 41.3717 36.6043 41.3717 36.1161 40.8836L32.4535 37.221C30.757 38.5292 28.6656 39.2497 26.5 39.2497C23.9141 39.2497 21.4342 38.2225 19.6057 36.394C17.7772 34.5655 16.75 32.0856 16.75 29.4997C16.75 26.9138 17.7772 24.4339 19.6057 22.6054C21.4342 20.7769 23.9141 19.7497 26.5 19.7497C29.0859 19.7497 31.5658 20.7769 33.3943 22.6054C35.2228 24.4339 36.25 26.9138 36.25 29.4997Z" fill="url(#paint0_linear_374_16050)"/>
<defs>
<linearGradient id="paint0_linear_374_16050" x1="50.9951" y1="-15.4363" x2="-7.2525" y2="32.835" gradientUnits="userSpaceOnUse">
<stop stop-color="#9A98AA"/>
<stop offset="1" stop-color="#5D5A71"/>
</linearGradient>
</defs>
</svg>
