<svg width="56" height="56" viewBox="0 0 56 56" fill="none" xmlns="http://www.w3.org/2000/svg">
<path fill-rule="evenodd" clip-rule="evenodd" d="M33.9378 6.125C33.9378 4.39844 32.5533 3 30.8439 3C29.1346 3 27.7501 4.39844 27.7501 6.125V10.8125H33.9378V6.125ZM15.375 4.56247C17.0843 4.56247 18.4688 5.96091 18.4688 7.68747V10.8125H12.2812V7.68747C12.2812 5.96091 13.6657 4.56247 15.375 4.56247ZM23.11 4.56247C24.8193 4.56247 26.2038 5.96091 26.2038 7.68747V10.8125H20.0161V7.68747C20.0161 5.96091 21.4006 4.56247 23.11 4.56247ZM38.5789 4.56247C40.2882 4.56247 41.6727 5.96091 41.6727 7.68747V10.8125H35.4851V7.68747C35.4851 5.96091 36.8696 4.56247 38.5789 4.56247ZM28.1519 17.3846C28.7042 17.3846 29.1519 17.8323 29.1519 18.3846V18.958H29.3252C30.4615 18.958 31.4397 19.6095 31.9256 20.5466C32.1799 21.0369 31.9885 21.6405 31.4982 21.8947C31.0079 22.1489 30.4044 21.9576 30.1501 21.4673C29.9899 21.1582 29.6758 20.958 29.3252 20.958H28.1519H27.1164C26.8366 20.958 26.5655 21.0705 26.3637 21.275C26.1614 21.4799 26.0454 21.7606 26.0454 22.0559C26.0454 22.3512 26.1614 22.6319 26.3637 22.8368C26.5655 23.0413 26.8366 23.1538 27.1164 23.1538H29.1874C30.0061 23.1538 30.7886 23.4834 31.3635 24.0657C31.938 24.6477 32.2584 25.4342 32.2584 26.2517C32.2584 27.0692 31.938 27.8558 31.3635 28.4377C30.7886 29.0201 30.0061 29.3496 29.1874 29.3496H29.1519V29.923C29.1519 30.4753 28.7042 30.923 28.1519 30.923C27.5996 30.923 27.1519 30.4753 27.1519 29.923V29.3496H26.9787C25.8431 29.3496 24.8642 28.6998 24.3779 27.7604C24.124 27.2699 24.3158 26.6665 24.8063 26.4126C25.2967 26.1587 25.9002 26.3505 26.1541 26.841C26.3139 27.1498 26.6273 27.3496 26.9787 27.3496H28.1519H29.1874C29.4673 27.3496 29.7383 27.2371 29.9402 27.0326C30.1425 26.8277 30.2584 26.547 30.2584 26.2517C30.2584 25.9564 30.1425 25.6757 29.9402 25.4708C29.7383 25.2663 29.4673 25.1538 29.1874 25.1538H27.1164C26.2978 25.1538 25.5153 24.8242 24.9403 24.2419C24.3659 23.6599 24.0454 22.8734 24.0454 22.0559C24.0454 21.2384 24.3659 20.4519 24.9403 19.8699C25.5153 19.2876 26.2978 18.958 27.1164 18.958H27.1519V18.3846C27.1519 17.8323 27.5996 17.3846 28.1519 17.3846ZM4.54692 12.375H50.9544C51.8098 12.375 52.5013 13.075 52.5013 13.9375V35.8125C52.5013 36.675 51.8098 37.375 50.9544 37.375H44.7281C44.3212 46.0703 37.2333 53 28.5241 53C19.815 53 12.727 46.0703 12.3202 37.375H4.54692C3.69147 37.375 3 36.675 3 35.8125V13.9375C3 13.075 3.69147 12.375 4.54692 12.375ZM44.7667 34.25H49.4075V15.5H6.09383V34.25H27.2634C26.5348 37.8734 27.3144 40.0609 27.3144 40.0609C27.3144 40.0609 28.3787 36.4969 31.5777 34.25C33.1571 33.2672 35.0707 32.6875 37.0322 32.6875V28C37.0322 23.6859 40.4957 20.1875 44.7667 20.1875V34.25Z" fill="url(#paint0_linear_374_16189)"/>
<defs>
<linearGradient id="paint0_linear_374_16189" x1="54.8527" y1="-14.3078" x2="2.92958" y2="39.5384" gradientUnits="userSpaceOnUse">
<stop stop-color="#9A98AA"/>
<stop offset="1" stop-color="#5D5A71"/>
</linearGradient>
</defs>
</svg>
