<svg width="56" height="56" viewBox="0 0 56 56" fill="none" xmlns="http://www.w3.org/2000/svg">
<path fill-rule="evenodd" clip-rule="evenodd" d="M16.8773 13.6858C17.0658 14.0216 17.2304 14.3705 17.3698 14.7298L23.4417 11.1959C24.2727 12.3298 25.4879 13.1163 26.8565 13.4059V20.5289C27.6135 20.406 28.3851 20.406 29.1422 20.5289V13.4059C30.2015 13.1878 31.1777 12.6713 31.9575 11.9163C32.7372 11.1612 33.2885 10.1986 33.5473 9.14025C33.8062 8.08191 33.7619 6.97125 33.4196 5.93727C33.0773 4.9033 32.4511 3.98844 31.6137 3.29895C30.7763 2.60946 29.7621 2.17364 28.6889 2.0421C27.6156 1.91057 26.5274 2.08871 25.5505 2.55584C24.5737 3.02298 23.7483 3.75993 23.1703 4.68112C22.5923 5.6023 22.2854 6.66991 22.2852 7.75995C22.2897 8.21393 22.348 8.66574 22.4589 9.10575L16.2281 12.7341C16.4671 13.0351 16.6841 13.3532 16.8773 13.6858ZM15.4283 18.13C15.4281 17.04 15.1212 15.9724 14.5432 15.0512C13.9652 14.13 13.1398 13.393 12.163 12.9259C11.1861 12.4588 10.0979 12.2806 9.02462 12.4122C7.95137 12.5437 6.93715 12.9795 6.09976 13.669C5.26237 14.3585 4.63618 15.2734 4.2939 16.3073C3.95163 17.3413 3.90733 18.452 4.16614 19.5103C4.42495 20.5687 4.97626 21.5313 5.75603 22.2863C6.53579 23.0414 7.51202 23.5579 8.57134 23.7759V30.8967C8.94962 30.8385 9.33153 30.8077 9.71417 30.8045C10.0968 30.8077 10.4787 30.8385 10.857 30.8967V23.7759C12.085 23.5142 13.193 22.8512 14.0089 21.8897L20.5471 25.5976C20.8244 24.8772 21.2031 24.2008 21.6716 23.5892L15.1301 19.8802C15.3199 19.3162 15.4206 18.7256 15.4283 18.13ZM47.4281 33.2241V26.1034C46.671 26.2263 45.8994 26.2263 45.1424 26.1034V33.2241C43.9142 33.4853 42.8061 34.1484 41.9905 35.1103L35.4534 31.4036C35.1759 32.1235 34.7971 32.7995 34.3289 33.4108L40.8693 37.1198C40.6795 37.6838 40.5788 38.2745 40.5711 38.87C40.5713 39.9601 40.8782 41.0277 41.4562 41.9489C42.0342 42.8701 42.8596 43.607 43.8364 44.0742C44.8133 44.5413 45.9015 44.7194 46.9748 44.5879C48.048 44.4564 49.0622 44.0205 49.8996 43.3311C50.737 42.6416 51.3632 41.7267 51.7055 40.6927C52.0478 39.6588 52.0921 38.5481 51.8333 37.4897C51.5744 36.4314 51.0231 35.4688 50.2434 34.7137C49.4636 33.9587 48.4874 33.4422 47.4281 33.2241ZM38.6296 42.2703C38.769 42.6296 38.9336 42.9784 39.1222 43.3142C39.3154 43.6466 39.5319 43.9646 39.7702 44.2659L33.5394 47.8943C33.6503 48.3343 33.7086 48.7861 33.7131 49.2401C33.7129 50.3301 33.406 51.3977 32.828 52.3189C32.25 53.2401 31.4246 53.977 30.4478 54.4442C29.4709 54.9113 28.3827 55.0895 27.3094 54.9579C26.2362 54.8264 25.222 54.3906 24.3846 53.7011C23.5472 53.0116 22.921 52.0967 22.5787 51.0627C22.2364 50.0288 22.1921 48.9181 22.4509 47.8598C22.7098 46.8014 23.2611 45.8388 24.0408 45.0838C24.8206 44.3287 25.7968 43.8122 26.8561 43.5942V36.4723C27.6132 36.5952 28.3848 36.5952 29.1418 36.4723V43.5942C30.5111 43.8835 31.7271 44.67 32.5589 45.8041L38.6296 42.2703ZM33.7151 28.5C33.7151 31.6818 31.1568 34.2611 28.0009 34.2611C24.8451 34.2611 22.2867 31.6818 22.2867 28.5C22.2867 25.3182 24.8451 22.7389 28.0009 22.7389C31.1568 22.7389 33.7151 25.3182 33.7151 28.5ZM35.4544 25.5952L41.9914 21.8885C42.7454 22.7638 43.7443 23.3889 44.8569 23.6817C45.9696 23.9744 47.144 23.9212 48.2261 23.5291C49.3083 23.1369 50.2475 22.424 50.9206 21.4841C51.5937 20.5441 51.9693 19.4209 51.998 18.2619C52.0267 17.1029 51.7072 15.9623 51.0815 14.9896C50.4557 14.0169 49.5529 13.2577 48.4916 12.8116C47.4302 12.3654 46.2599 12.2532 45.1341 12.4896C44.0084 12.726 42.9798 13.3001 42.1834 14.1363L35.6567 10.3375C35.5173 10.6968 35.3527 11.0456 35.1641 11.3814C34.9702 11.7139 34.7529 12.0319 34.5139 12.3331L40.9606 16.0859C40.4755 17.2975 40.4434 18.6454 40.8703 19.879L34.3299 23.5881C34.7981 24.1994 35.1768 24.8753 35.4544 25.5952ZM14.0088 35.1115L20.547 31.4036C20.8243 32.124 21.203 32.8004 21.6716 33.412L15.13 37.121C15.5568 38.3542 15.5247 39.7018 15.0397 40.9129L21.4876 44.6704C21.2482 44.9715 21.0305 45.2896 20.8361 45.6221C20.6475 45.9576 20.4833 46.3065 20.3447 46.666L13.8169 42.8637C13.0204 43.7 11.9919 44.274 10.8661 44.5104C9.7404 44.7468 8.57006 44.6346 7.50871 44.1884C6.44735 43.7423 5.54456 42.9831 4.91881 42.0104C4.29305 41.0377 3.97357 39.8971 4.00227 38.7381C4.03097 37.5791 4.40653 36.4559 5.07965 35.5159C5.75278 34.576 6.69202 33.8631 7.77414 33.4709C8.85626 33.0788 10.0307 33.0256 11.1433 33.3183C12.256 33.6111 13.2548 34.2362 14.0088 35.1115Z" fill="url(#paint0_linear_374_16147)"/>
<defs>
<linearGradient id="paint0_linear_374_16147" x1="54.2801" y1="-16.3462" x2="-0.718458" y2="35.8289" gradientUnits="userSpaceOnUse">
<stop stop-color="#9A98AA"/>
<stop offset="1" stop-color="#5D5A71"/>
</linearGradient>
</defs>
</svg>
