<svg width="56" height="56" viewBox="0 0 56 56" fill="none" xmlns="http://www.w3.org/2000/svg">
<path fill-rule="evenodd" clip-rule="evenodd" d="M34.3999 4.89844C34.9569 4.89844 35.491 5.1197 35.8849 5.51355C36.2787 5.9074 36.5 6.44158 36.5 6.99857V9.1029C37.4997 9.1092 38.3712 9.1302 39.1294 9.1911C40.3096 9.28771 41.3954 9.49562 42.414 10.0144C43.9946 10.8197 45.2796 12.1048 46.085 13.6854C46.6037 14.7039 46.8116 15.7897 46.9082 16.97C47.0006 18.1083 47.0006 19.5027 47.0006 21.1912V39.0067C47.0006 40.6973 47.0006 42.0938 46.9082 43.2279C46.8116 44.4103 46.6037 45.4961 46.085 46.5146C45.2796 48.0952 43.9946 49.3803 42.414 50.1856C41.3954 50.7044 40.3096 50.9123 39.1294 51.0089C37.9932 51.1013 36.5966 51.1013 34.9081 51.1013H17.0906C15.4 51.1013 14.0034 51.1013 12.8693 51.0089C11.687 50.9123 10.6012 50.7044 9.58263 50.1856C8.00204 49.3803 6.71698 48.0952 5.9116 46.5146C5.39287 45.4961 5.18496 44.4103 5.08835 43.23C4.99805 42.0917 4.99805 40.6973 4.99805 39.0088V21.1912C4.99805 19.5006 4.99805 18.1041 5.09045 16.97C5.18706 15.7876 5.39497 14.7018 5.9137 13.6833C6.71908 12.1027 8.00414 10.8176 9.58473 10.0123C10.6033 9.49352 11.6891 9.28561 12.8693 9.189C13.6275 9.126 14.5011 9.105 15.4987 9.1008V6.99857C15.4987 6.44158 15.72 5.9074 16.1138 5.51355C16.5077 5.1197 17.0418 4.89844 17.5988 4.89844C18.1558 4.89844 18.69 5.1197 19.0838 5.51355C19.4777 5.9074 19.699 6.44158 19.699 6.99857V9.0987H32.2997V6.99857C32.2997 6.44158 32.521 5.9074 32.9149 5.51355C33.3087 5.1197 33.8429 4.89844 34.3999 4.89844ZM15.4987 13.3032V15.3991C15.4987 15.9561 15.72 16.4903 16.1138 16.8841C16.5077 17.278 17.0418 17.4992 17.5988 17.4992C18.1558 17.4992 18.69 17.278 19.0838 16.8841C19.4777 16.4903 19.699 15.9561 19.699 15.3991V13.299H32.2997V15.3991C32.2997 15.9561 32.521 16.4903 32.9149 16.8841C33.3087 17.278 33.8429 17.4992 34.3999 17.4992C34.9569 17.4992 35.491 17.278 35.8849 16.8841C36.2787 16.4903 36.5 15.9561 36.5 15.3991V13.3032C37.4346 13.3095 38.1696 13.3284 38.787 13.3788C39.7069 13.4523 40.1794 13.5888 40.507 13.7568C41.2973 14.1595 41.9399 14.802 42.3426 15.5923C42.5106 15.9199 42.6471 16.3904 42.7206 17.3123C42.8004 18.2574 42.8004 19.4796 42.8004 21.2795V21.6995H9.19831V21.2795C9.19831 19.4796 9.19831 18.2574 9.27811 17.3123C9.35162 16.3925 9.48812 15.9199 9.65614 15.5923C10.0588 14.802 10.7014 14.1595 11.4916 13.7568C11.8193 13.5888 12.2897 13.4523 13.2117 13.3788C13.8291 13.3284 14.562 13.3095 15.4987 13.3032ZM31.8839 30.616C32.372 31.1042 32.372 31.8956 31.8839 32.3838L27.7677 36.4999L31.8839 40.616C32.372 41.1042 32.372 41.8956 31.8839 42.3838C31.3957 42.8719 30.6043 42.8719 30.1161 42.3838L26 38.2677L21.8839 42.3837C21.3957 42.8719 20.6043 42.8719 20.1161 42.3837C19.628 41.8956 19.628 41.1041 20.1161 40.616L24.2322 36.4999L20.1161 32.3838C19.628 31.8957 19.628 31.1042 20.1161 30.6161C20.6043 30.1279 21.3957 30.1279 21.8839 30.6161L26 34.7321L30.1161 30.616C30.6043 30.1278 31.3957 30.1278 31.8839 30.616Z" fill="url(#paint0_linear_374_16029)"/>
<defs>
<linearGradient id="paint0_linear_374_16029" x1="48.9958" y1="-11.0949" x2="1.04154" y2="34.5699" gradientUnits="userSpaceOnUse">
<stop stop-color="#9A98AA"/>
<stop offset="1" stop-color="#5D5A71"/>
</linearGradient>
</defs>
</svg>
