<svg width="152" height="27" viewBox="0 0 152 27" fill="none" xmlns="http://www.w3.org/2000/svg">
<path d="M83.8667 0.855404C86.8667 1.10796 89.6393 2.06728 92.0972 2.91211C93.9891 3.56633 95.7727 4.17843 97.3885 4.39144C99.2368 4.63502 101.171 4.65487 103.216 4.68406C105.888 4.71104 108.65 4.73457 111.445 5.2998C115.593 6.13297 119.442 7.20488 123.169 8.25557L125.083 8.79058C128.396 9.70744 131.311 11.1077 133.892 12.3478C135.387 13.0676 136.795 13.7471 138.129 14.2553C139.885 14.9311 141.699 15.4468 143.447 15.9459C146.474 16.8057 149.338 17.6187 151.845 19.2046L147.061 26.5889C145.636 25.6991 143.484 25.0779 140.992 24.3732C139.134 23.8429 137.025 23.2473 134.89 22.4187C133.221 21.7723 131.576 20.9848 129.995 20.2248C127.651 19.0926 125.231 17.932 122.693 17.2344L120.758 16.6975C117.194 15.7046 113.499 14.6676 109.692 13.8962C107.744 13.5013 105.519 13.4899 103.16 13.4563C100.924 13.4331 98.6096 13.4142 96.1975 13.0901C93.6863 12.7467 91.3915 11.9596 89.1726 11.2009C87.0306 10.4597 85.0071 9.77237 83.1293 9.61429C83.096 9.61148 83.0626 9.60868 83.0293 9.60587C79.9265 9.37766 76.7591 9.38598 73.4129 9.39026C72.1148 9.39097 70.8167 9.39168 69.5196 9.38146C66.5113 9.35919 63.4931 9.58905 60.2934 9.84762C58.8852 9.96005 57.4881 10.0734 56.0826 10.1531C53.293 10.3252 50.5203 10.8287 47.5893 11.3518C46.0552 11.6297 44.4758 11.9146 42.8788 12.1432C40.6921 12.465 38.5589 12.5494 36.5044 12.6294C33.9897 12.7257 31.6214 12.8123 29.5625 13.3429C24.2219 14.7081 20.3256 15.9309 16.921 17.2941C13.446 18.6953 9.77137 20.6077 5.34449 23.3477L0.587501 15.9191C5.45124 12.9079 9.57017 10.7689 13.52 9.17668C17.3069 7.65869 21.5485 6.32197 27.289 4.85846C30.2737 4.09783 33.2605 3.97532 36.1344 3.86529C38.0315 3.79403 39.8388 3.7262 41.5274 3.4724C43.0004 3.25544 44.4779 2.98387 45.9546 2.72323C49.0106 2.17759 52.1805 1.60854 55.4886 1.39209C56.8385 1.30775 58.1902 1.20157 59.5419 1.09539C62.7972 0.84149 66.1543 0.574167 69.5643 0.608268C70.8282 0.615675 72.0929 0.612159 73.3577 0.608644C76.7261 0.606239 80.2074 0.591347 83.6546 0.848551C83.7213 0.854163 83.788 0.859776 83.8435 0.864452L83.8667 0.855404Z" fill="#FF8B37"/>
</svg>
