<svg width="16" height="17" viewBox="0 0 16 17" fill="none" xmlns="http://www.w3.org/2000/svg">
<path d="M9.84918 5.55913C9.61678 4.6251 9.60129 4.46131 9.29142 3.25725C8.98156 2.05318 9.12321 1.83849 8.8045 1.01291C8.67834 0.685332 8.35077 0.479491 8.00107 0.501624C7.98558 0.501624 7.97009 0.501624 7.95459 0.503837C7.64252 0.521544 7.36807 0.720746 7.25298 1.01069C6.91213 1.85841 7.03386 2.08417 6.73064 3.26831C6.42742 4.45246 6.40307 4.63395 6.16846 5.5702C6.03566 6.10362 5.61735 6.52194 5.08395 6.65474C4.12116 6.896 3.96844 6.90485 2.75113 7.21914C1.53382 7.53344 1.34347 7.40949 0.506845 7.74592C0.20141 7.86987 0 8.16867 0 8.49846C0 8.50068 0 8.50289 0 8.5051C0 8.83268 0.20141 9.12705 0.504632 9.251C1.34347 9.58964 1.57144 9.48562 2.74892 9.78885C3.99943 10.1098 4.11895 10.1452 5.15034 10.413C5.65498 10.5436 6.04673 10.942 6.16846 11.4489C6.38979 12.3718 6.3743 12.5467 6.68195 13.7441C6.98959 14.9415 6.88114 15.1518 7.2242 15.9973C7.34594 16.2939 7.63145 16.4931 7.95238 16.4997C7.9723 16.4997 7.99001 16.4997 8.00771 16.4997C8.34856 16.5086 8.66063 16.3027 8.78237 15.984C9.09887 15.154 8.955 14.9039 9.2538 13.733C9.57251 12.4891 9.64113 12.3718 9.90893 11.3581C10.0395 10.8623 10.4291 10.4772 10.9271 10.3532C11.8611 10.1186 12.0204 10.0965 13.2267 9.78663C14.4329 9.47676 14.6498 9.62948 15.4842 9.30855C15.7985 9.18681 16.0044 8.88137 15.9999 8.54494C15.9999 8.51396 15.9999 8.48297 15.9999 8.45198C15.9955 8.12219 15.7919 7.82782 15.4842 7.7083C14.6476 7.38736 14.3975 7.53787 13.2245 7.23464C11.985 6.91592 11.8655 6.84509 10.8584 6.57727C10.3627 6.44447 10.0329 6.20321 9.90893 5.703L9.84918 5.55913Z" fill="#5A586A"/>
</svg>
