<svg width="20" height="15" viewBox="0 0 20 15" fill="none" xmlns="http://www.w3.org/2000/svg">
<path d="M1.63672 4.15293C2.7106 4.17327 2.52205 4.07144 3.59593 4.08771C4.66982 4.10398 4.66982 4.16093 5.7437 4.1772C5.89014 4.1772 6.05692 4.21788 6.18709 4.32364C7.10233 5.0599 7.05758 5.12092 7.97283 5.85718C8.10706 5.96294 8.31452 5.95887 8.46502 5.95887C9.56331 5.95887 9.56331 5.99955 10.6616 5.99955C11.7599 5.99955 11.7599 6.01989 12.8582 6.01989C13.326 6.01989 13.8182 6.3331 13.9727 6.77242C14.4324 8.07817 14.4568 8.07003 14.9165 9.37578C15.3761 10.6815 15.2988 10.71 15.7544 12.0157C15.9781 12.6544 15.6649 13.2035 14.9815 13.2035C13.7775 13.2035 13.7775 13.1873 12.5734 13.1873C11.3694 13.1873 11.3694 13.1344 10.1653 13.1344C8.96129 13.1344 8.96129 13.1181 7.75317 13.1181C6.54505 13.1181 6.54912 13.1913 5.341 13.1913C4.65762 13.1913 3.90101 12.6422 3.67729 12.0076C3.24204 10.771 3.28679 10.7547 2.85154 9.51815C2.41629 8.28155 2.46103 8.26528 2.02578 7.02462C1.59054 5.78396 1.45223 5.83277 1.02105 4.59618C0.927494 4.33177 1.15935 4.14873 1.44816 4.15279L1.63672 4.15293Z" stroke="#151414" stroke-width="1.4859" stroke-miterlimit="10"/>
<path d="M4.94141 4.09962C5.01869 3.20472 5.14479 3.21692 5.22208 2.32202C5.2953 1.61423 5.9136 1 6.67427 1C7.78476 1 7.78476 1.05288 8.89525 1.05288C10.0057 1.05288 10.0057 1.02847 11.1162 1.02847C12.2267 1.02847 12.2267 1.10576 13.3413 1.10576C14.4559 1.10576 14.4559 1.02034 15.5664 1.02034C16.6768 1.02034 16.6809 1.06102 17.7914 1.06102C18.5521 1.06102 19.0646 1.60609 18.9914 2.31388C18.8734 3.49353 18.906 3.49353 18.788 4.67317C18.67 5.85282 18.6985 5.85689 18.5806 7.03246C18.4626 8.20804 18.3812 8.20397 18.2633 9.38362C18.1453 10.5633 18.2633 10.5755 18.1494 11.7551C18.0639 12.5727 17.2341 13.2683 16.3636 13.2683C15.0538 13.2683 15.0538 13.2154 13.7481 13.2154" stroke="#151414" stroke-width="1.4859" stroke-miterlimit="10"/>
</svg>
