<svg width="131" height="28" viewBox="0 0 131 28" fill="none" xmlns="http://www.w3.org/2000/svg">
<path d="M12.4957 6L13.9416 11.6257L19.5673 13.0716V14.1363L13.9416 15.5822L12.4957 21.2079H11.431L9.98509 15.5822L4.35938 14.1363V13.0716L9.98509 11.6257L11.4283 6H12.493H12.4957Z" fill="#5F42FF"/>
<path d="M2.9953 6H0V21.2488H2.9953V6Z" fill="#5F42FF"/>
<path d="M35.6639 12.2139H28.6222V6H26V21.2079H28.6222V14.4958H35.6639V21.2079H38.2725V6H35.6639V12.2139Z" fill="#141122"/>
<path d="M44.8652 17.4532L41.9162 9.99763H39.0625L43.6126 20.8569L43.4329 21.3335C43.1797 21.9407 42.8965 22.3764 42.5888 22.6378C42.2811 22.8992 41.8835 23.0299 41.3961 23.0299C40.8079 23.0299 40.2361 22.9346 39.6779 22.744V25.1184C40.2715 25.2873 40.9087 25.3717 41.5867 25.3717C42.5398 25.3717 43.3403 25.1293 43.983 24.6446C44.6256 24.1599 45.1538 23.3812 45.5623 22.3056L50.431 9.99219H47.738L44.8652 17.4478V17.4532Z" fill="#141122"/>
<path d="M60.4148 11.2904C59.9682 10.8166 59.4563 10.4544 58.8763 10.2039C58.2963 9.95338 57.6755 9.82812 57.0111 9.82812C56.2404 9.82812 55.5488 9.98606 54.9389 10.3046C54.3289 10.6232 53.8551 11.078 53.5229 11.6716V9.99695H51.1484V25.2049H53.6291V19.7752C53.9123 20.2626 54.3425 20.652 54.9171 20.9407C55.4916 21.2293 56.1342 21.3764 56.8422 21.3764C57.5502 21.3764 58.1602 21.2511 58.7565 21.0006C59.3528 20.7501 59.8838 20.3879 60.3467 19.9141C60.8096 19.4403 61.1772 18.8331 61.4495 18.0951C61.7218 17.3572 61.858 16.5267 61.858 15.609C61.858 14.6914 61.73 13.8582 61.4713 13.1175C61.2126 12.3741 60.8614 11.7669 60.4148 11.2931V11.2904ZM58.5686 18.3048C58.024 18.9365 57.3242 19.2551 56.4692 19.2551C55.6142 19.2551 54.8817 18.942 54.3371 18.3103C53.7925 17.6812 53.5202 16.7799 53.5202 15.6063C53.5202 14.4327 53.7925 13.5314 54.3371 12.9024C54.8817 12.2734 55.5924 11.9575 56.4692 11.9575C57.346 11.9575 58.024 12.2734 58.5686 12.9078C59.1132 13.5396 59.3855 14.4409 59.3855 15.6063C59.3855 16.7718 59.1132 17.6731 58.5686 18.3048Z" fill="#141122"/>
<path d="M68.1311 9.82812C67.3741 9.82812 66.6662 9.96155 66.0045 10.2257C65.3428 10.4898 64.7655 10.8656 64.2699 11.3503C63.7743 11.835 63.3849 12.4449 63.1045 13.1801C62.8213 13.9153 62.6797 14.7241 62.6797 15.609C62.6797 17.3899 63.1889 18.7977 64.2073 19.8297C65.2257 20.8617 66.5273 21.3791 68.1093 21.3791C69.3401 21.3791 70.383 21.0959 71.2381 20.5241C72.0931 19.9549 72.6649 19.1544 72.9563 18.1224L70.6118 17.6867C70.4212 18.1823 70.1107 18.5662 69.6778 18.844C69.2476 19.119 68.722 19.2579 68.1093 19.2579C67.2897 19.2579 66.6144 18.9856 66.0834 18.441C65.5525 17.8964 65.2529 17.1121 65.1821 16.0856H73.1905V15.0563C73.1905 13.4306 72.7357 12.1508 71.829 11.2223C70.9195 10.2938 69.6887 9.82812 68.1339 9.82812H68.1311ZM65.2883 14.2829C65.4708 13.4851 65.8111 12.8806 66.3067 12.4749C66.8023 12.0692 67.4014 11.8649 68.1093 11.8649C68.8173 11.8649 69.4164 12.0692 69.8902 12.4803C70.364 12.8915 70.6472 13.4906 70.7398 14.2829H65.2883Z" fill="#141122"/>
<path d="M78.2217 10.321C77.6662 10.6505 77.2632 11.0943 77.0073 11.6525V9.99695H74.6328V21.2075H77.1135V14.803C77.1135 13.9399 77.3667 13.2428 77.8759 12.7091C78.3851 12.1753 79.0059 11.9085 79.7439 11.9085C80.2885 11.9085 80.7868 12.0038 81.2388 12.1944V9.97789C80.8576 9.87986 80.4954 9.82812 80.1578 9.82812C79.4226 9.82812 78.7772 9.9915 78.2217 10.321Z" fill="#141122"/>
<path d="M88.0038 21.6448C86.7505 21.6448 85.6757 21.4393 84.7795 21.0283C83.8833 20.6172 83.196 20.0276 82.7176 19.2595C82.2392 18.4846 82 17.5614 82 16.49H84.7088C84.7155 17.0763 84.8503 17.5816 85.1131 18.0062C85.3826 18.4307 85.7633 18.7575 86.2552 18.9866C86.7471 19.2089 87.3367 19.3201 88.024 19.3201C88.6372 19.3201 89.1729 19.2359 89.6311 19.0674C90.0893 18.8922 90.4464 18.6463 90.7025 18.3296C90.9585 18.0062 91.0866 17.6322 91.0866 17.2077C91.0866 16.8573 90.9922 16.5541 90.8036 16.298C90.6216 16.0352 90.3251 15.8095 89.9141 15.6208C89.5098 15.4254 88.9775 15.2536 88.3171 15.1053L86.7 14.7415C85.1973 14.4045 84.0889 13.8992 83.3746 13.2253C82.6604 12.5448 82.3032 11.6722 82.3032 10.6075C82.3032 9.70459 82.5323 8.91621 82.9905 8.24238C83.4555 7.56855 84.1057 7.04297 84.9413 6.66562C85.7835 6.28828 86.764 6.09961 87.8825 6.09961C89.0078 6.09961 89.9815 6.29502 90.8036 6.68584C91.6324 7.06992 92.2759 7.62246 92.7341 8.34346C93.1923 9.06445 93.4349 9.92358 93.4618 10.9208H90.8339C90.7867 10.1459 90.497 9.53613 89.9646 9.09141C89.4391 8.64668 88.7417 8.42432 87.8724 8.42432C87.3266 8.42432 86.8415 8.51191 86.4169 8.68711C85.9992 8.8623 85.669 9.10488 85.4264 9.41484C85.1906 9.71807 85.0727 10.0718 85.0727 10.4761C85.0727 10.8063 85.1636 11.0927 85.3456 11.3353C85.5275 11.5711 85.8172 11.7833 86.2148 11.972C86.6124 12.154 87.1346 12.319 87.7814 12.4673L89.2875 12.8109C90.0758 12.9794 90.7564 13.1917 91.3292 13.4477C91.9019 13.7038 92.3736 14.0036 92.7442 14.3473C93.1148 14.6909 93.3911 15.0851 93.573 15.5298C93.7549 15.9746 93.8459 16.4766 93.8459 17.0358C93.8459 17.9725 93.6067 18.7878 93.1283 19.4818C92.6566 20.1759 91.9828 20.7116 91.1068 21.0889C90.2376 21.4595 89.2032 21.6448 88.0038 21.6448Z" fill="#141122"/>
<path d="M98.8832 17.2542V12.0233H101.767V10.0192H98.0554C98.6082 9.70059 98.8832 9.19683 98.8832 8.50247V6.84961H96.4135V8.67402C96.4135 9.57261 95.9642 10.0219 95.0656 10.0219H94.4502V12.026H96.4135V17.4339C96.4135 18.7355 96.7076 19.7212 97.2985 20.3938C97.8893 21.0664 98.728 21.4013 99.8172 21.4013C100.686 21.4013 101.369 21.3169 101.865 21.1481V18.888C101.519 19.016 101.056 19.0786 100.476 19.0786C99.4169 19.0786 98.886 18.4714 98.886 17.2542H98.8832Z" fill="#141122"/>
<path d="M110.792 10.9061C109.983 10.2036 108.826 9.84961 107.317 9.84961C106.037 9.84961 105.013 10.1519 104.246 10.7564C103.478 11.3609 103.031 12.1505 102.903 13.1254L105.098 13.3487C105.267 12.3303 106.007 11.8211 107.314 11.8211C108.028 11.8211 108.575 12.0117 108.959 12.3929C109.34 12.7741 109.531 13.2942 109.531 13.9532V14.495L106.38 14.6748C105.136 14.7374 104.175 15.0669 103.502 15.6605C102.827 16.2541 102.489 17.0465 102.489 18.0349C102.489 19.0234 102.832 19.8593 103.519 20.4747C104.205 21.0901 105.076 21.3978 106.138 21.3978C107.813 21.3978 108.973 20.7688 109.618 19.5108V21.229H112.003V13.9532C112.003 12.6243 111.598 11.6087 110.789 10.9034L110.792 10.9061ZM109.534 17.0002C109.534 17.3896 109.449 17.7381 109.283 18.0458C109.117 18.3535 108.899 18.5986 108.632 18.7783C108.363 18.958 108.074 19.0942 107.764 19.1868C107.453 19.2793 107.132 19.3256 106.8 19.3256C106.255 19.3256 105.814 19.2058 105.479 18.9662C105.144 18.7266 104.975 18.3889 104.975 17.9587C104.975 17.0193 105.577 16.5155 106.778 16.4529L109.536 16.2841V17.0056L109.534 17.0002Z" fill="#141122"/>
<path d="M127.145 19.0759C126.086 19.0759 125.555 18.4686 125.555 17.2515V12.0233H128.439V10.0192H124.727C125.28 9.70059 125.555 9.19683 125.555 8.50247V6.84961H123.085V8.67402C123.085 9.57261 122.636 10.0219 121.737 10.0219H121.122V12.026H123.085V17.4339C123.085 18.7355 123.379 19.7212 123.97 20.3938C124.561 21.0664 125.4 21.4013 126.489 21.4013C127.358 21.4013 128.041 21.3169 128.537 21.1481V18.888C128.191 19.016 127.728 19.0786 127.148 19.0786L127.145 19.0759Z" fill="#141122"/>
<path d="M119.436 10.0059C118.701 10.0059 118.056 10.1692 117.5 10.4987C116.945 10.8282 116.542 11.2721 116.286 11.8303V10.0168H113.911V21.2273H116.392V14.9808C116.392 14.9563 116.392 14.9318 116.395 14.9073V14.831C116.395 12.8705 117.998 12.0236 118.842 12.0236H120.237V10.0086H119.439C119.439 10.0086 119.439 10.0086 119.436 10.0086V10.0059Z" fill="#141122"/>
</svg>
