<svg width="60" height="60" viewBox="0 0 60 60" fill="none" xmlns="http://www.w3.org/2000/svg">
<rect width="60" height="60" rx="30" fill="white" fill-opacity="0.1"/>
<path d="M40.4814 23.7029L36.3589 23.6693C36.4784 22.9372 36.8668 22.5376 37.6736 22.1043L38.4206 21.6711C39.7652 20.9054 40.5113 20.0389 40.5113 18.6074C40.5113 17.7073 40.2125 17.0079 39.585 16.4756C38.9874 15.9761 38.2404 15.71 37.3748 15.71C36.6876 15.71 36.0601 15.9089 35.4933 16.3085C34.9256 16.7081 34.5072 17.175 34.2383 17.8072L35.4335 19.1397C35.8817 18.1069 36.568 17.6083 37.4346 17.6083C38.1816 17.6083 38.6298 18.0406 38.6298 18.6401C38.6298 19.1397 38.3907 19.5393 37.5541 20.0389L37.076 20.3059C36.0302 20.9054 35.2832 21.5712 34.8658 22.3378C34.4475 23.1035 34.2383 24.069 34.2084 25.2688V25.6013L40.4217 25.6349L40.4814 23.7029Z" fill="white"/>
<path d="M35.9761 35.8621C34.4543 37.1494 32.5247 37.8543 30.5314 37.851C25.941 37.8183 22.2051 34.0945 22.2368 29.5182C22.2686 25.1949 25.5927 21.6279 29.8665 21.2806L33.3803 15.284C32.4746 15.0927 31.5513 14.9975 30.6257 15.0001C22.587 14.9684 16.032 21.4384 16.0002 29.4547C16.0002 37.5345 22.4899 44.0362 30.5314 44.068C33.7286 44.068 36.7045 43.0577 39.1107 41.3227L35.9761 35.8621Z" fill="white"/>
<path d="M40.4537 27.0522H33.2731L29.6818 33.4401H36.8316L40.4228 39.8606L44.0131 33.4728L40.4537 27.0522Z" fill="white"/>
</svg>
