<svg width="132" height="21" viewBox="0 0 132 21" fill="none" xmlns="http://www.w3.org/2000/svg">
<g clip-path="url(#clip0_50_1327)">
<path d="M17.1226 0.706299L18.5686 6.33201L24.1943 7.77792V8.84261L18.5686 10.2885L17.1226 15.9142H16.058L14.612 10.2885L8.98633 8.84261V7.77792L14.612 6.33201L16.0552 0.706299H17.1199H17.1226Z" fill="#5F63FD"/>
<path d="M7.6242 0.706299H4.62891V15.9551H7.6242V0.706299Z" fill="#5F63FD"/>
<path d="M42.5292 6.92018H35.4875V0.706299H32.8652V15.9142H35.4875V9.20205H42.5292V15.9142H45.1378V0.706299H42.5292V6.92018Z" fill="black"/>
<path d="M51.7285 12.1593L48.7795 4.70369H45.9258L50.4759 15.563L50.2962 16.0395C50.043 16.6468 49.7598 17.0824 49.4521 17.3438C49.1444 17.6052 48.7468 17.736 48.2594 17.736C47.6712 17.736 47.0994 17.6406 46.5412 17.45V19.8245C47.1348 19.9933 47.772 20.0777 48.45 20.0777C49.403 20.0777 50.2036 19.8354 50.8462 19.3507C51.4889 18.866 52.0171 18.0872 52.4256 17.0116L57.2943 4.69824H54.6012L51.7285 12.1538V12.1593Z" fill="black"/>
<path d="M67.2761 5.99692C66.8296 5.52312 66.3176 5.16096 65.7376 4.91044C65.1576 4.65993 64.5368 4.53467 63.8724 4.53467C63.1018 4.53467 62.4101 4.6926 61.8002 5.01119C61.1902 5.32978 60.7164 5.78452 60.3842 6.37814V4.70349H58.0098V19.9114H60.4904V14.4818C60.7736 14.9692 61.2038 15.3586 61.7784 15.6472C62.3529 15.9359 62.9956 16.0829 63.7036 16.0829C64.4115 16.0829 65.0215 15.9576 65.6178 15.7071C66.2142 15.4566 66.7451 15.0944 67.2081 14.6206C67.671 14.1468 68.0386 13.5396 68.3109 12.8017C68.5832 12.0638 68.7193 11.2332 68.7193 10.3156C68.7193 9.39794 68.5913 8.5647 68.3326 7.82405C68.074 7.08067 67.7227 6.47344 67.2761 5.99964V5.99692ZM65.4299 13.0114C64.8853 13.6431 64.1855 13.9617 63.3305 13.9617C62.4755 13.9617 61.743 13.6485 61.1984 13.0168C60.6538 12.3878 60.3815 11.4865 60.3815 10.3129C60.3815 9.13926 60.6538 8.23794 61.1984 7.60893C61.743 6.97992 62.4537 6.66405 63.3305 6.66405C64.2073 6.66405 64.8853 6.97992 65.4299 7.61438C65.9745 8.24611 66.2468 9.14742 66.2468 10.3129C66.2468 11.4783 65.9745 12.3796 65.4299 13.0114Z" fill="black"/>
<path d="M74.9925 4.53491C74.2355 4.53491 73.5275 4.66834 72.8658 4.93247C72.2041 5.1966 71.6268 5.57237 71.1312 6.05707C70.6357 6.54176 70.2463 7.15171 69.9658 7.88692C69.6826 8.62213 69.541 9.43086 69.541 10.3158C69.541 12.0967 70.0502 13.5045 71.0686 14.5365C72.087 15.5685 73.3886 16.0859 74.9707 16.0859C76.2015 16.0859 77.2444 15.8027 78.0994 15.2308C78.9544 14.6617 79.5262 13.8612 79.8176 12.8292L77.4731 12.3935C77.2825 12.8891 76.9721 13.273 76.5391 13.5508C76.1089 13.8258 75.5833 13.9646 74.9707 13.9646C74.151 13.9646 73.4758 13.6923 72.9448 13.1477C72.4138 12.6032 72.1142 11.8189 72.0434 10.7924H80.0518V9.76306C80.0518 8.13744 79.597 6.85763 78.6903 5.92909C77.7808 5.00054 76.55 4.53491 74.9952 4.53491H74.9925ZM72.1496 8.98974C72.3321 8.1919 72.6725 7.58739 73.168 7.18166C73.6636 6.77594 74.2627 6.57171 74.9707 6.57171C75.6786 6.57171 76.2777 6.77594 76.7515 7.18711C77.2253 7.59828 77.5085 8.19734 77.6011 8.98974H72.1496Z" fill="black"/>
<path d="M85.0889 5.02777C84.5334 5.35726 84.1304 5.80111 83.8745 6.35932V4.70374H81.5V15.9143H83.9807V9.50983C83.9807 8.64664 84.2339 7.94955 84.7431 7.41584C85.2523 6.88214 85.8731 6.61528 86.6111 6.61528C87.1557 6.61528 87.654 6.71059 88.106 6.9012V4.68468C87.7248 4.58665 87.3626 4.53491 87.025 4.53491C86.2898 4.53491 85.6444 4.69829 85.0889 5.02777Z" fill="black"/>
<path d="M96.8131 10.2259C96.2331 9.71946 95.3889 9.37909 94.278 9.20209L92.7939 8.9897C91.7129 8.83993 91.171 8.41242 91.171 7.70717C91.171 7.33139 91.3426 7.03459 91.6857 6.81675C92.0288 6.59891 92.4944 6.48726 93.0798 6.48726C93.6653 6.48726 94.1364 6.60163 94.4631 6.83308C94.7926 7.06182 95.0186 7.41036 95.1466 7.87871L97.4257 7.66632C97.3631 6.63431 96.9601 5.85553 96.2167 5.32727C95.4733 4.80173 94.4277 4.5376 93.0771 4.5376C91.7265 4.5376 90.7626 4.83713 89.9974 5.43891C89.2295 6.04069 88.8456 6.83308 88.8456 7.81336C88.8456 8.69834 89.1097 9.40359 89.6407 9.92913C90.1717 10.4547 90.9178 10.7923 91.879 10.9421L93.363 11.1545C94.0002 11.2525 94.4686 11.4186 94.7735 11.6473C95.0785 11.8761 95.2283 12.1865 95.2283 12.5759C95.2283 13.0579 95.054 13.42 94.7027 13.6624C94.3515 13.9074 93.8586 14.0272 93.2241 14.0272C92.5897 14.0272 92.0642 13.8748 91.6966 13.5725C91.3289 13.2675 91.1166 12.8564 91.0594 12.3308L88.5352 12.4996C88.5923 13.5752 89.0171 14.4411 89.8068 15.0974C90.5992 15.7563 91.7374 16.0831 93.2214 16.0831C94.5938 16.0831 95.6776 15.7618 96.4781 15.1192C97.276 14.4765 97.6763 13.5943 97.6763 12.4779C97.6763 11.4812 97.3849 10.7297 96.8076 10.2232L96.8131 10.2259Z" fill="black"/>
<path d="M102.345 11.9385V6.70763H105.229V4.7035H101.517C102.07 4.38491 102.345 3.88116 102.345 3.18679V1.53394H99.8754V3.35834C99.8754 4.25693 99.4261 4.70623 98.5275 4.70623H97.9121V6.71035H99.8754V12.1182C99.8754 13.4198 100.169 14.4055 100.76 15.0781C101.351 15.7507 102.19 16.0856 103.279 16.0856C104.148 16.0856 104.831 16.0012 105.327 15.8324V13.5723C104.981 13.7003 104.518 13.7629 103.938 13.7629C102.879 13.7629 102.348 13.1557 102.348 11.9385H102.345Z" fill="black"/>
<path d="M114.256 5.59119C113.447 4.88866 112.29 4.53467 110.781 4.53467C109.501 4.53467 108.477 4.83692 107.709 5.44143C106.942 6.04593 106.495 6.8356 106.367 7.81043L108.562 8.03372C108.731 7.01532 109.471 6.50612 110.778 6.50612C111.492 6.50612 112.039 6.69673 112.423 7.07795C112.804 7.45917 112.995 7.97926 112.995 8.63822V9.1801L109.844 9.35982C108.6 9.42245 107.639 9.75193 106.966 10.3455C106.291 10.9392 105.953 11.7315 105.953 12.72C105.953 13.7084 106.296 14.5444 106.982 15.1598C107.669 15.7752 108.54 16.0829 109.602 16.0829C111.277 16.0829 112.437 15.4539 113.082 14.1959V15.9141H115.467V8.63822C115.467 7.3094 115.062 6.29372 114.253 5.58847L114.256 5.59119ZM112.998 11.6853C112.998 12.0746 112.913 12.4232 112.747 12.7309C112.581 13.0386 112.363 13.2837 112.096 13.4634C111.827 13.6431 111.538 13.7792 111.228 13.8718C110.917 13.9644 110.596 14.0107 110.264 14.0107C109.719 14.0107 109.278 13.8909 108.943 13.6513C108.608 13.4116 108.439 13.074 108.439 12.6438C108.439 11.7043 109.041 11.2006 110.242 11.1379L113 10.9691V11.6907L112.998 11.6853Z" fill="black"/>
<path d="M130.609 13.7602C129.55 13.7602 129.019 13.153 129.019 11.9358V6.70763H131.903V4.7035H128.191C128.744 4.38491 129.019 3.88116 129.019 3.18679V1.53394H126.549V3.35834C126.549 4.25693 126.1 4.70623 125.201 4.70623H124.586V6.71035H126.549V12.1182C126.549 13.4198 126.843 14.4055 127.434 15.0781C128.025 15.7507 128.864 16.0856 129.953 16.0856C130.822 16.0856 131.505 16.0012 132.001 15.8324V13.5723C131.655 13.7003 131.192 13.7629 130.612 13.7629L130.609 13.7602Z" fill="black"/>
<path d="M122.902 4.69263C122.167 4.69263 121.521 4.85601 120.966 5.18549C120.41 5.51497 120.007 5.95882 119.751 6.51703V4.70352H117.377V15.9141H119.858V9.66754C119.858 9.64304 119.858 9.61853 119.86 9.59402V9.51778C119.86 7.55722 121.464 6.71037 122.308 6.71037H123.702V4.69535H122.905C122.905 4.69535 122.905 4.69535 122.902 4.69535V4.69263Z" fill="black"/>
</g>
<defs>
<clipPath id="clip0_50_1327">
<rect width="132" height="19.3768" fill="white" transform="translate(0 0.706299)"/>
</clipPath>
</defs>
</svg>
