<svg width="16" height="76" viewBox="0 0 16 76" fill="none" xmlns="http://www.w3.org/2000/svg">
<rect x="7" y="0.00012207" width="2" height="76" fill="url(#paint0_linear_1_3076)"/>
<path d="M10.7277 30.7599C8.30199 29.7541 7.88434 29.7441 5.4586 30.7465C3.03287 31.7489 2.74553 32.0596 1.73982 34.482C0.734105 36.9044 0.764176 37.312 1.76655 39.7344C2.76891 42.1568 3.0596 42.4074 5.48533 43.4131C7.91106 44.4188 8.27526 44.4054 10.701 43.4031C13.1267 42.3974 13.394 42.1468 14.3964 39.7244C15.3988 37.302 14.8174 37.0848 14.3997 34.4954C13.9821 31.9059 13.1501 31.7656 10.7277 30.7599Z" fill="white" stroke="black" stroke-width="1.3" stroke-miterlimit="10"/>
<path d="M8.05402 33.8927C8.12232 35.1165 8.00279 35.1279 8.07109 36.3517C8.09386 36.7502 8.08248 37.1543 8.08248 37.5584C8.08248 38.7823 8.03125 38.7823 8.03125 40.0118" stroke="black" stroke-width="1.3" stroke-miterlimit="10"/>
<path d="M11.1418 36.9949C9.59926 37.0575 9.59926 36.9721 8.05669 37.0063C6.51411 37.0404 6.5255 36.9835 5 36.9835" stroke="black" stroke-width="1.3" stroke-miterlimit="10"/>
<defs>
<linearGradient id="paint0_linear_1_3076" x1="8" y1="-11.1076" x2="8" y2="80.0924" gradientUnits="userSpaceOnUse">
<stop offset="0.00302401" stop-color="#F3F5F6" stop-opacity="0"/>
<stop offset="0.509622" stop-color="#E6E9EE"/>
<stop offset="1" stop-color="#F3F5F6" stop-opacity="0"/>
</linearGradient>
</defs>
</svg>
