<svg width="19" height="18" viewBox="0 0 19 18" fill="none" xmlns="http://www.w3.org/2000/svg">
<path d="M16.7093 11.3301C15.5593 12.1701 14.5093 13.1301 13.3593 13.9701C12.2093 14.8101 10.9093 15.4401 9.77926 16.2901C9.40926 16.5701 8.95926 16.6301 8.59926 16.3601C7.48926 15.5201 6.37926 14.6701 5.25926 13.8301C4.13926 12.9901 2.96926 12.2501 1.85926 11.4301C1.58926 11.2301 1.66926 10.8301 1.66926 10.5001C1.68926 9.11008 1.54926 7.73008 1.58926 6.34008C1.62926 4.95008 1.58926 3.58008 1.63926 2.20008C1.65926 1.63008 2.20926 1.04008 2.76926 1.02008C4.23926 0.980078 5.70926 1.07008 7.18926 1.05008C8.66926 1.03008 10.1493 0.840078 11.6293 0.830078C13.1093 0.830078 14.5993 0.900078 16.0893 0.920078C16.6593 0.920078 17.0293 1.51008 17.0393 2.08008C17.0593 3.47008 17.3093 4.85008 17.3093 6.25008C17.3093 7.65008 17.2093 9.04008 17.1893 10.4501C17.1893 10.7901 16.9893 11.1301 16.7193 11.3301H16.7093Z" stroke="#151414" stroke-width="1.5" stroke-miterlimit="10"/>
<path d="M0 9.46007C1.54 9.46007 3.08 9.44007 4.63 9.44007C6.18 9.44007 7.73 9.51007 9.28 9.51007C10.83 9.51007 12.4 9.32007 13.96 9.32007C15.52 9.32007 17.09 9.39007 18.66 9.38007" stroke="#FF7324" stroke-width="1.5" stroke-miterlimit="10"/>
</svg>
