<svg width="19" height="19" viewBox="0 0 19 19" fill="none" xmlns="http://www.w3.org/2000/svg">
<path d="M8.98994 1.41533C8.25457 2.92749 7.4985 4.42928 6.76314 5.93108C6.66992 6.11751 6.54563 6.42823 6.33849 6.4593C4.71241 6.71823 3.07597 6.83216 1.4706 7.10145C0.963094 7.1843 0.849165 7.70217 1.21167 8.04395C2.37168 9.15218 3.46954 10.3536 4.63991 11.4826C4.78491 11.6276 4.97134 11.8865 4.94027 12.0833C4.67098 13.6886 4.39133 15.2733 4.14276 16.8579C4.07026 17.3551 4.4224 17.6451 4.86776 17.4172C6.27635 16.6922 7.7885 16.0915 9.22815 15.3354C9.41458 15.2422 9.64244 15.0454 9.81852 15.149C11.2582 15.9051 12.6046 16.8165 14.0235 17.5415C14.4689 17.7797 15.0489 17.324 14.9764 16.8269C14.7486 15.2215 14.386 13.6369 14.1375 12.0211C14.1064 11.814 14.2203 11.6172 14.3757 11.4722C15.5875 10.3122 16.8511 8.99682 17.9489 7.72288C18.3321 7.27752 18.2389 6.94609 17.7211 6.86323C16.0639 6.63537 14.645 6.61466 12.9982 6.3868C12.791 6.35573 12.6253 6.3868 12.5321 6.20037C11.8071 4.71929 10.9992 2.81356 10.2846 1.32212C10.0567 0.845687 9.24887 0.918188 9.02101 1.40498L8.98994 1.41533Z" stroke="#FF9A24" stroke-width="1.55358" stroke-miterlimit="10"/>
</svg>
