<svg width="18" height="16" viewBox="0 0 18 16" fill="none" xmlns="http://www.w3.org/2000/svg">
<path d="M1.06641 8.78264C1.31672 8.0317 1.59434 7.13966 1.93113 6.25218C2.26792 5.3647 2.61381 4.53184 2.91874 3.76724C3.47853 2.35182 3.39661 2.52022 3.89724 1.2823C3.93365 1.16852 4.05653 1.10935 4.17031 1.10935C5.68585 1.10935 5.68585 1.13211 7.19685 1.13211C8.70784 1.13211 8.71239 1.00012 10.2279 1.00012C11.7435 1.00012 11.7435 1.00012 13.259 1.00012C13.3728 1.00012 13.4138 1.19582 13.4547 1.3096C13.9599 2.56573 14.0327 2.33362 14.5971 3.77179C14.902 4.55004 15.2661 5.42387 15.5938 6.29314C15.9215 7.16242 16.2355 8.09996 16.4858 8.85091" stroke="#151414" stroke-width="1.5" stroke-miterlimit="10"/>
<path d="M12.0958 8.40936C11.9274 8.40936 11.8227 8.60051 11.8045 8.76435C11.7317 9.51985 11.3221 10.1798 10.7896 10.6622C10.2571 11.1446 9.56987 11.4587 8.80072 11.4587C8.03157 11.4587 7.38075 11.0991 6.85282 10.6212C6.32488 10.1434 5.89252 9.51985 5.8197 8.76435C5.80149 8.59596 5.67406 8.44577 5.50567 8.44577C3.45764 8.44577 3.45764 8.42302 1.40961 8.42302C1.22301 8.42302 1.05917 8.62327 1.05917 8.80531C1.05917 10.107 1.09102 10.107 1.09102 11.4086C1.09102 12.7102 1 12.7102 1 14.0119C1 14.1985 1.22301 14.2849 1.40505 14.2849C2.88419 14.2849 2.88419 14.3031 4.35877 14.3031C5.83335 14.3031 5.83335 14.3623 7.31249 14.3623C8.79162 14.3623 8.79162 14.3805 10.2708 14.3805C11.7499 14.3805 11.7499 14.2986 13.229 14.2986C14.7082 14.2986 14.7082 14.3168 16.1873 14.3168C16.3739 14.3168 16.5423 14.1939 16.5423 14.0119C16.5423 12.7102 16.5969 12.7102 16.5969 11.4086C16.5969 10.107 16.4331 10.107 16.4331 8.80531C16.4331 8.61872 16.3693 8.52769 16.1827 8.52769C14.1347 8.46853 14.1347 8.40936 12.0867 8.40936H12.0958Z" stroke="#151414" stroke-width="1.5" stroke-miterlimit="10"/>
</svg>
